%TF.GenerationSoftware,KiCad,Pcbnew,8.0.3*%
%TF.CreationDate,2024-07-13T21:58:22+05:30*%
%TF.ProjectId,Interpose_1,496e7465-7270-46f7-9365-5f312e6b6963,rev?*%
%TF.SameCoordinates,Original*%
%TF.FileFunction,Copper,L4,Bot*%
%TF.FilePolarity,Positive*%
%FSLAX46Y46*%
G04 Gerber Fmt 4.6, Leading zero omitted, Abs format (unit mm)*
G04 Created by KiCad (PCBNEW 8.0.3) date 2024-07-13 21:58:22*
%MOMM*%
%LPD*%
G01*
G04 APERTURE LIST*
%TA.AperFunction,ComponentPad*%
%ADD10R,1.700000X1.700000*%
%TD*%
%TA.AperFunction,ComponentPad*%
%ADD11O,1.700000X1.700000*%
%TD*%
%TA.AperFunction,ComponentPad*%
%ADD12C,1.500000*%
%TD*%
%TA.AperFunction,ViaPad*%
%ADD13C,0.600000*%
%TD*%
G04 APERTURE END LIST*
D10*
%TO.P,J3,1,Pin_1*%
%TO.N,L2M_DISP*%
X146252000Y-103420000D03*
D11*
%TO.P,J3,2,Pin_2*%
X148792000Y-103420000D03*
%TO.P,J3,3,Pin_3*%
%TO.N,DISP0_VCI*%
X146252000Y-105960000D03*
%TO.P,J3,4,Pin_4*%
%TO.N,DISP1_VCI*%
X148792000Y-105960000D03*
%TO.P,J3,5,Pin_5*%
%TO.N,DISP0_VDDI*%
X146252000Y-108500000D03*
%TO.P,J3,6,Pin_6*%
%TO.N,DISP1_VDDI*%
X148792000Y-108500000D03*
%TO.P,J3,7,Pin_7*%
%TO.N,unconnected-(J3-Pin_7-Pad7)*%
X146252000Y-111040000D03*
%TO.P,J3,8,Pin_8*%
%TO.N,unconnected-(J3-Pin_8-Pad8)*%
X148792000Y-111040000D03*
%TO.P,J3,9,Pin_9*%
%TO.N,DISP0_RST*%
X146252000Y-113580000D03*
%TO.P,J3,10,Pin_10*%
%TO.N,DISP1_RST*%
X148792000Y-113580000D03*
%TO.P,J3,11,Pin_11*%
%TO.N,DISP0_BUCK_EN*%
X146252000Y-116120000D03*
%TO.P,J3,12,Pin_12*%
%TO.N,DISP1_BUCK_VSEL*%
X148792000Y-116120000D03*
%TO.P,J3,13,Pin_13*%
%TO.N,DISP0_TE*%
X146252000Y-118660000D03*
%TO.P,J3,14,Pin_14*%
%TO.N,DISP1_TE*%
X148792000Y-118660000D03*
%TO.P,J3,15,Pin_15*%
%TO.N,DISP0_TOUT*%
X146252000Y-121200000D03*
%TO.P,J3,16,Pin_16*%
%TO.N,DISP1_TOUT*%
X148792000Y-121200000D03*
%TO.P,J3,17,Pin_17*%
%TO.N,GND*%
X146252000Y-123740000D03*
%TO.P,J3,18,Pin_18*%
%TO.N,VSYS_PWR*%
X148792000Y-123740000D03*
%TO.P,J3,19,Pin_19*%
%TO.N,GND*%
X146252000Y-126280000D03*
%TO.P,J3,20,Pin_20*%
%TO.N,VSYS_PWR*%
X148792000Y-126280000D03*
%TD*%
D12*
%TO.P,TP1,1,1*%
%TO.N,GND*%
X146452000Y-52720000D03*
%TD*%
D13*
%TO.N,DSI1_LN2_N*%
X125222000Y-103124000D03*
%TO.N,DSI1_CLK_N*%
X125730000Y-87122000D03*
%TO.N,DSI1_LN3_N*%
X124460000Y-118872000D03*
%TO.N,DSI1_LN3_P*%
X124460000Y-117602000D03*
%TO.N,DSI1_LN2_P*%
X125222000Y-102108000D03*
%TO.N,DSI1_CLK_P*%
X125730000Y-86106000D03*
%TO.N,DSI0_LN1_P*%
X76454000Y-60960000D03*
%TO.N,DSI0_CLK_N*%
X82550000Y-93472000D03*
%TO.N,DSI0_LN2_N*%
X82804000Y-109728000D03*
%TO.N,DSI0_LN0_N*%
X83058000Y-77216000D03*
%TO.N,DSI0_CLK_P*%
X78486000Y-93472000D03*
%TO.N,DSI0_LN3_P*%
X78486000Y-125984000D03*
%TO.N,DSI0_LN3_N*%
X82296000Y-125984000D03*
%TO.N,DSI0_LN1_N*%
X83820000Y-60960000D03*
%TO.N,DSI0_LN2_P*%
X77978000Y-109728000D03*
%TO.N,DSI0_LN0_P*%
X77724000Y-77216000D03*
%TO.N,DSI1_LN1_P*%
X109474000Y-60960000D03*
%TO.N,DSI1_LN1_N*%
X111506000Y-60960000D03*
%TO.N,DISP1_BUCK_VSEL*%
X147332000Y-76140000D03*
X102768000Y-38854900D03*
%TO.N,DISP1_TE*%
X150308000Y-79817100D03*
%TO.N,DISP0_TOUT*%
X141998000Y-81014100D03*
X114194000Y-38854900D03*
%TO.N,DISP0_VDDI*%
X142281000Y-68681400D03*
X110574000Y-32418200D03*
%TO.N,DISP0_RST*%
X142407000Y-73628300D03*
X102232000Y-36950000D03*
%TO.N,DISP0_TE*%
X142046000Y-78680000D03*
%TO.N,DISP1_TOUT*%
X106042000Y-36929300D03*
X151525000Y-80081700D03*
%TO.N,DISP1_RST*%
X104134000Y-37545300D03*
X147352000Y-72902400D03*
%TO.N,DISP0_BUCK_EN*%
X99692000Y-35680000D03*
X142281000Y-75904900D03*
%TO.N,VSYS_PWR*%
X151986000Y-88367300D03*
X103502000Y-33140000D03*
%TO.N,DISP1_VDDI*%
X114136000Y-32447600D03*
X149702000Y-67372700D03*
%TO.N,DISP1_VCI*%
X107312000Y-33140000D03*
X147560000Y-67038200D03*
%TO.N,DISP0_VCI*%
X114198000Y-35040100D03*
X142369000Y-65412000D03*
%TO.N,L2M_DISP*%
X145284000Y-64594600D03*
%TO.N,GND*%
X147320000Y-80067600D03*
%TO.N,DSI1_LN0_N*%
X115824000Y-77216000D03*
%TO.N,DSI1_LN0_P*%
X112776000Y-77216000D03*
%TD*%
M02*
