M48
; DRILL file {KiCad 8.0.3} date 2024-07-13T21:58:27+0530
; FORMAT={-:-/ absolute / inch / decimal}
; #@! TF.CreationDate,2024-07-13T21:58:27+05:30
; #@! TF.GenerationSoftware,Kicad,Pcbnew,8.0.3
; #@! TF.FileFunction,Plated,1,4,PTH
FMAT,2
INCH
; #@! TA.AperFunction,Plated,PTH,ViaDrill
T1C0.0118
; #@! TA.AperFunction,Plated,PTH,ComponentDrill
T2C0.0276
; #@! TA.AperFunction,Plated,PTH,ComponentDrill
T3C0.0394
%
G90
G05
T1
X3.01Y-2.4
X3.06Y-3.04
X3.07Y-4.32
X3.09Y-3.68
X3.09Y-4.96
X3.24Y-4.96
X3.25Y-3.68
X3.26Y-4.32
X3.27Y-3.04
X3.3Y-2.4
X3.9249Y-1.4047
X4.0249Y-1.4547
X4.046Y-1.5297
X4.0749Y-1.3047
X4.0998Y-1.4782
X4.1749Y-1.4539
X4.2249Y-1.3047
X4.31Y-2.4
X4.3533Y-1.2763
X4.39Y-2.4
X4.44Y-3.04
X4.4935Y-1.2775
X4.4958Y-1.5297
X4.496Y-1.3795
X4.56Y-3.04
X4.9Y-4.63
X4.9Y-4.68
X4.93Y-4.02
X4.93Y-4.06
X4.95Y-3.39
X4.95Y-3.43
X5.5905Y-3.1895
X5.5924Y-3.0976
X5.6016Y-2.704
X5.6016Y-2.9884
X5.6051Y-2.5753
X5.6066Y-2.8988
X5.7198Y-2.5431
X5.8Y-3.1523
X5.8005Y-2.9976
X5.8013Y-2.8702
X5.8094Y-2.6393
X5.8938Y-2.6525
X5.9176Y-3.1424
X5.9656Y-3.1528
X5.9837Y-3.479
T2
X5.7658Y-2.0756
T3
X5.758Y-4.0717
X5.758Y-4.1717
X5.758Y-4.2717
X5.758Y-4.3717
X5.758Y-4.4717
X5.758Y-4.5717
X5.758Y-4.6717
X5.758Y-4.7717
X5.758Y-4.8717
X5.758Y-4.9717
X5.858Y-4.0717
X5.858Y-4.1717
X5.858Y-4.2717
X5.858Y-4.3717
X5.858Y-4.4717
X5.858Y-4.5717
X5.858Y-4.6717
X5.858Y-4.7717
X5.858Y-4.8717
X5.858Y-4.9717
M30
