%TF.GenerationSoftware,KiCad,Pcbnew,8.0.3*%
%TF.CreationDate,2024-07-13T21:58:22+05:30*%
%TF.ProjectId,Interpose_1,496e7465-7270-46f7-9365-5f312e6b6963,rev?*%
%TF.SameCoordinates,Original*%
%TF.FileFunction,Legend,Top*%
%TF.FilePolarity,Positive*%
%FSLAX46Y46*%
G04 Gerber Fmt 4.6, Leading zero omitted, Abs format (unit mm)*
G04 Created by KiCad (PCBNEW 8.0.3) date 2024-07-13 21:58:22*
%MOMM*%
%LPD*%
G01*
G04 APERTURE LIST*
%ADD10C,0.150000*%
%ADD11C,0.120000*%
%ADD12C,0.127000*%
%ADD13C,0.200000*%
G04 APERTURE END LIST*
D10*
X142896390Y-125275792D02*
X142858295Y-125351982D01*
X142858295Y-125351982D02*
X142858295Y-125466268D01*
X142858295Y-125466268D02*
X142896390Y-125580554D01*
X142896390Y-125580554D02*
X142972580Y-125656744D01*
X142972580Y-125656744D02*
X143048771Y-125694839D01*
X143048771Y-125694839D02*
X143201152Y-125732935D01*
X143201152Y-125732935D02*
X143315438Y-125732935D01*
X143315438Y-125732935D02*
X143467819Y-125694839D01*
X143467819Y-125694839D02*
X143544009Y-125656744D01*
X143544009Y-125656744D02*
X143620200Y-125580554D01*
X143620200Y-125580554D02*
X143658295Y-125466268D01*
X143658295Y-125466268D02*
X143658295Y-125390077D01*
X143658295Y-125390077D02*
X143620200Y-125275792D01*
X143620200Y-125275792D02*
X143582104Y-125237696D01*
X143582104Y-125237696D02*
X143315438Y-125237696D01*
X143315438Y-125237696D02*
X143315438Y-125390077D01*
X143658295Y-124894839D02*
X142858295Y-124894839D01*
X142858295Y-124894839D02*
X143658295Y-124437696D01*
X143658295Y-124437696D02*
X142858295Y-124437696D01*
X143658295Y-124056744D02*
X142858295Y-124056744D01*
X142858295Y-124056744D02*
X142858295Y-123866268D01*
X142858295Y-123866268D02*
X142896390Y-123751982D01*
X142896390Y-123751982D02*
X142972580Y-123675792D01*
X142972580Y-123675792D02*
X143048771Y-123637697D01*
X143048771Y-123637697D02*
X143201152Y-123599601D01*
X143201152Y-123599601D02*
X143315438Y-123599601D01*
X143315438Y-123599601D02*
X143467819Y-123637697D01*
X143467819Y-123637697D02*
X143544009Y-123675792D01*
X143544009Y-123675792D02*
X143620200Y-123751982D01*
X143620200Y-123751982D02*
X143658295Y-123866268D01*
X143658295Y-123866268D02*
X143658295Y-124056744D01*
X152289704Y-123618874D02*
X151489704Y-123885541D01*
X151489704Y-123885541D02*
X152289704Y-124152207D01*
X151527800Y-124380778D02*
X151489704Y-124495064D01*
X151489704Y-124495064D02*
X151489704Y-124685540D01*
X151489704Y-124685540D02*
X151527800Y-124761731D01*
X151527800Y-124761731D02*
X151565895Y-124799826D01*
X151565895Y-124799826D02*
X151642085Y-124837921D01*
X151642085Y-124837921D02*
X151718276Y-124837921D01*
X151718276Y-124837921D02*
X151794466Y-124799826D01*
X151794466Y-124799826D02*
X151832561Y-124761731D01*
X151832561Y-124761731D02*
X151870657Y-124685540D01*
X151870657Y-124685540D02*
X151908752Y-124533159D01*
X151908752Y-124533159D02*
X151946847Y-124456969D01*
X151946847Y-124456969D02*
X151984942Y-124418874D01*
X151984942Y-124418874D02*
X152061133Y-124380778D01*
X152061133Y-124380778D02*
X152137323Y-124380778D01*
X152137323Y-124380778D02*
X152213514Y-124418874D01*
X152213514Y-124418874D02*
X152251609Y-124456969D01*
X152251609Y-124456969D02*
X152289704Y-124533159D01*
X152289704Y-124533159D02*
X152289704Y-124723636D01*
X152289704Y-124723636D02*
X152251609Y-124837921D01*
X151870657Y-125333160D02*
X151489704Y-125333160D01*
X152289704Y-125066493D02*
X151870657Y-125333160D01*
X151870657Y-125333160D02*
X152289704Y-125599826D01*
X151527800Y-125828397D02*
X151489704Y-125942683D01*
X151489704Y-125942683D02*
X151489704Y-126133159D01*
X151489704Y-126133159D02*
X151527800Y-126209350D01*
X151527800Y-126209350D02*
X151565895Y-126247445D01*
X151565895Y-126247445D02*
X151642085Y-126285540D01*
X151642085Y-126285540D02*
X151718276Y-126285540D01*
X151718276Y-126285540D02*
X151794466Y-126247445D01*
X151794466Y-126247445D02*
X151832561Y-126209350D01*
X151832561Y-126209350D02*
X151870657Y-126133159D01*
X151870657Y-126133159D02*
X151908752Y-125980778D01*
X151908752Y-125980778D02*
X151946847Y-125904588D01*
X151946847Y-125904588D02*
X151984942Y-125866493D01*
X151984942Y-125866493D02*
X152061133Y-125828397D01*
X152061133Y-125828397D02*
X152137323Y-125828397D01*
X152137323Y-125828397D02*
X152213514Y-125866493D01*
X152213514Y-125866493D02*
X152251609Y-125904588D01*
X152251609Y-125904588D02*
X152289704Y-125980778D01*
X152289704Y-125980778D02*
X152289704Y-126171255D01*
X152289704Y-126171255D02*
X152251609Y-126285540D01*
X137449160Y-121560295D02*
X137449160Y-120760295D01*
X137449160Y-120760295D02*
X137639636Y-120760295D01*
X137639636Y-120760295D02*
X137753922Y-120798390D01*
X137753922Y-120798390D02*
X137830112Y-120874580D01*
X137830112Y-120874580D02*
X137868207Y-120950771D01*
X137868207Y-120950771D02*
X137906303Y-121103152D01*
X137906303Y-121103152D02*
X137906303Y-121217438D01*
X137906303Y-121217438D02*
X137868207Y-121369819D01*
X137868207Y-121369819D02*
X137830112Y-121446009D01*
X137830112Y-121446009D02*
X137753922Y-121522200D01*
X137753922Y-121522200D02*
X137639636Y-121560295D01*
X137639636Y-121560295D02*
X137449160Y-121560295D01*
X138249160Y-121560295D02*
X138249160Y-120760295D01*
X138592016Y-121522200D02*
X138706302Y-121560295D01*
X138706302Y-121560295D02*
X138896778Y-121560295D01*
X138896778Y-121560295D02*
X138972969Y-121522200D01*
X138972969Y-121522200D02*
X139011064Y-121484104D01*
X139011064Y-121484104D02*
X139049159Y-121407914D01*
X139049159Y-121407914D02*
X139049159Y-121331723D01*
X139049159Y-121331723D02*
X139011064Y-121255533D01*
X139011064Y-121255533D02*
X138972969Y-121217438D01*
X138972969Y-121217438D02*
X138896778Y-121179342D01*
X138896778Y-121179342D02*
X138744397Y-121141247D01*
X138744397Y-121141247D02*
X138668207Y-121103152D01*
X138668207Y-121103152D02*
X138630112Y-121065057D01*
X138630112Y-121065057D02*
X138592016Y-120988866D01*
X138592016Y-120988866D02*
X138592016Y-120912676D01*
X138592016Y-120912676D02*
X138630112Y-120836485D01*
X138630112Y-120836485D02*
X138668207Y-120798390D01*
X138668207Y-120798390D02*
X138744397Y-120760295D01*
X138744397Y-120760295D02*
X138934874Y-120760295D01*
X138934874Y-120760295D02*
X139049159Y-120798390D01*
X139392017Y-121560295D02*
X139392017Y-120760295D01*
X139392017Y-120760295D02*
X139696779Y-120760295D01*
X139696779Y-120760295D02*
X139772969Y-120798390D01*
X139772969Y-120798390D02*
X139811064Y-120836485D01*
X139811064Y-120836485D02*
X139849160Y-120912676D01*
X139849160Y-120912676D02*
X139849160Y-121026961D01*
X139849160Y-121026961D02*
X139811064Y-121103152D01*
X139811064Y-121103152D02*
X139772969Y-121141247D01*
X139772969Y-121141247D02*
X139696779Y-121179342D01*
X139696779Y-121179342D02*
X139392017Y-121179342D01*
X140344398Y-120760295D02*
X140420588Y-120760295D01*
X140420588Y-120760295D02*
X140496779Y-120798390D01*
X140496779Y-120798390D02*
X140534874Y-120836485D01*
X140534874Y-120836485D02*
X140572969Y-120912676D01*
X140572969Y-120912676D02*
X140611064Y-121065057D01*
X140611064Y-121065057D02*
X140611064Y-121255533D01*
X140611064Y-121255533D02*
X140572969Y-121407914D01*
X140572969Y-121407914D02*
X140534874Y-121484104D01*
X140534874Y-121484104D02*
X140496779Y-121522200D01*
X140496779Y-121522200D02*
X140420588Y-121560295D01*
X140420588Y-121560295D02*
X140344398Y-121560295D01*
X140344398Y-121560295D02*
X140268207Y-121522200D01*
X140268207Y-121522200D02*
X140230112Y-121484104D01*
X140230112Y-121484104D02*
X140192017Y-121407914D01*
X140192017Y-121407914D02*
X140153921Y-121255533D01*
X140153921Y-121255533D02*
X140153921Y-121065057D01*
X140153921Y-121065057D02*
X140192017Y-120912676D01*
X140192017Y-120912676D02*
X140230112Y-120836485D01*
X140230112Y-120836485D02*
X140268207Y-120798390D01*
X140268207Y-120798390D02*
X140344398Y-120760295D01*
X140763446Y-121636485D02*
X141372969Y-121636485D01*
X141449160Y-120760295D02*
X141906303Y-120760295D01*
X141677731Y-121560295D02*
X141677731Y-120760295D01*
X142325351Y-120760295D02*
X142477732Y-120760295D01*
X142477732Y-120760295D02*
X142553922Y-120798390D01*
X142553922Y-120798390D02*
X142630113Y-120874580D01*
X142630113Y-120874580D02*
X142668208Y-121026961D01*
X142668208Y-121026961D02*
X142668208Y-121293628D01*
X142668208Y-121293628D02*
X142630113Y-121446009D01*
X142630113Y-121446009D02*
X142553922Y-121522200D01*
X142553922Y-121522200D02*
X142477732Y-121560295D01*
X142477732Y-121560295D02*
X142325351Y-121560295D01*
X142325351Y-121560295D02*
X142249160Y-121522200D01*
X142249160Y-121522200D02*
X142172970Y-121446009D01*
X142172970Y-121446009D02*
X142134874Y-121293628D01*
X142134874Y-121293628D02*
X142134874Y-121026961D01*
X142134874Y-121026961D02*
X142172970Y-120874580D01*
X142172970Y-120874580D02*
X142249160Y-120798390D01*
X142249160Y-120798390D02*
X142325351Y-120760295D01*
X143011065Y-120760295D02*
X143011065Y-121407914D01*
X143011065Y-121407914D02*
X143049160Y-121484104D01*
X143049160Y-121484104D02*
X143087255Y-121522200D01*
X143087255Y-121522200D02*
X143163446Y-121560295D01*
X143163446Y-121560295D02*
X143315827Y-121560295D01*
X143315827Y-121560295D02*
X143392017Y-121522200D01*
X143392017Y-121522200D02*
X143430112Y-121484104D01*
X143430112Y-121484104D02*
X143468208Y-121407914D01*
X143468208Y-121407914D02*
X143468208Y-120760295D01*
X143734874Y-120760295D02*
X144192017Y-120760295D01*
X143963445Y-121560295D02*
X143963445Y-120760295D01*
X151165160Y-121560295D02*
X151165160Y-120760295D01*
X151165160Y-120760295D02*
X151355636Y-120760295D01*
X151355636Y-120760295D02*
X151469922Y-120798390D01*
X151469922Y-120798390D02*
X151546112Y-120874580D01*
X151546112Y-120874580D02*
X151584207Y-120950771D01*
X151584207Y-120950771D02*
X151622303Y-121103152D01*
X151622303Y-121103152D02*
X151622303Y-121217438D01*
X151622303Y-121217438D02*
X151584207Y-121369819D01*
X151584207Y-121369819D02*
X151546112Y-121446009D01*
X151546112Y-121446009D02*
X151469922Y-121522200D01*
X151469922Y-121522200D02*
X151355636Y-121560295D01*
X151355636Y-121560295D02*
X151165160Y-121560295D01*
X151965160Y-121560295D02*
X151965160Y-120760295D01*
X152308016Y-121522200D02*
X152422302Y-121560295D01*
X152422302Y-121560295D02*
X152612778Y-121560295D01*
X152612778Y-121560295D02*
X152688969Y-121522200D01*
X152688969Y-121522200D02*
X152727064Y-121484104D01*
X152727064Y-121484104D02*
X152765159Y-121407914D01*
X152765159Y-121407914D02*
X152765159Y-121331723D01*
X152765159Y-121331723D02*
X152727064Y-121255533D01*
X152727064Y-121255533D02*
X152688969Y-121217438D01*
X152688969Y-121217438D02*
X152612778Y-121179342D01*
X152612778Y-121179342D02*
X152460397Y-121141247D01*
X152460397Y-121141247D02*
X152384207Y-121103152D01*
X152384207Y-121103152D02*
X152346112Y-121065057D01*
X152346112Y-121065057D02*
X152308016Y-120988866D01*
X152308016Y-120988866D02*
X152308016Y-120912676D01*
X152308016Y-120912676D02*
X152346112Y-120836485D01*
X152346112Y-120836485D02*
X152384207Y-120798390D01*
X152384207Y-120798390D02*
X152460397Y-120760295D01*
X152460397Y-120760295D02*
X152650874Y-120760295D01*
X152650874Y-120760295D02*
X152765159Y-120798390D01*
X153108017Y-121560295D02*
X153108017Y-120760295D01*
X153108017Y-120760295D02*
X153412779Y-120760295D01*
X153412779Y-120760295D02*
X153488969Y-120798390D01*
X153488969Y-120798390D02*
X153527064Y-120836485D01*
X153527064Y-120836485D02*
X153565160Y-120912676D01*
X153565160Y-120912676D02*
X153565160Y-121026961D01*
X153565160Y-121026961D02*
X153527064Y-121103152D01*
X153527064Y-121103152D02*
X153488969Y-121141247D01*
X153488969Y-121141247D02*
X153412779Y-121179342D01*
X153412779Y-121179342D02*
X153108017Y-121179342D01*
X154327064Y-121560295D02*
X153869921Y-121560295D01*
X154098493Y-121560295D02*
X154098493Y-120760295D01*
X154098493Y-120760295D02*
X154022302Y-120874580D01*
X154022302Y-120874580D02*
X153946112Y-120950771D01*
X153946112Y-120950771D02*
X153869921Y-120988866D01*
X154479446Y-121636485D02*
X155088969Y-121636485D01*
X155165160Y-120760295D02*
X155622303Y-120760295D01*
X155393731Y-121560295D02*
X155393731Y-120760295D01*
X156041351Y-120760295D02*
X156193732Y-120760295D01*
X156193732Y-120760295D02*
X156269922Y-120798390D01*
X156269922Y-120798390D02*
X156346113Y-120874580D01*
X156346113Y-120874580D02*
X156384208Y-121026961D01*
X156384208Y-121026961D02*
X156384208Y-121293628D01*
X156384208Y-121293628D02*
X156346113Y-121446009D01*
X156346113Y-121446009D02*
X156269922Y-121522200D01*
X156269922Y-121522200D02*
X156193732Y-121560295D01*
X156193732Y-121560295D02*
X156041351Y-121560295D01*
X156041351Y-121560295D02*
X155965160Y-121522200D01*
X155965160Y-121522200D02*
X155888970Y-121446009D01*
X155888970Y-121446009D02*
X155850874Y-121293628D01*
X155850874Y-121293628D02*
X155850874Y-121026961D01*
X155850874Y-121026961D02*
X155888970Y-120874580D01*
X155888970Y-120874580D02*
X155965160Y-120798390D01*
X155965160Y-120798390D02*
X156041351Y-120760295D01*
X156727065Y-120760295D02*
X156727065Y-121407914D01*
X156727065Y-121407914D02*
X156765160Y-121484104D01*
X156765160Y-121484104D02*
X156803255Y-121522200D01*
X156803255Y-121522200D02*
X156879446Y-121560295D01*
X156879446Y-121560295D02*
X157031827Y-121560295D01*
X157031827Y-121560295D02*
X157108017Y-121522200D01*
X157108017Y-121522200D02*
X157146112Y-121484104D01*
X157146112Y-121484104D02*
X157184208Y-121407914D01*
X157184208Y-121407914D02*
X157184208Y-120760295D01*
X157450874Y-120760295D02*
X157908017Y-120760295D01*
X157679445Y-121560295D02*
X157679445Y-120760295D01*
X138973160Y-119020295D02*
X138973160Y-118220295D01*
X138973160Y-118220295D02*
X139163636Y-118220295D01*
X139163636Y-118220295D02*
X139277922Y-118258390D01*
X139277922Y-118258390D02*
X139354112Y-118334580D01*
X139354112Y-118334580D02*
X139392207Y-118410771D01*
X139392207Y-118410771D02*
X139430303Y-118563152D01*
X139430303Y-118563152D02*
X139430303Y-118677438D01*
X139430303Y-118677438D02*
X139392207Y-118829819D01*
X139392207Y-118829819D02*
X139354112Y-118906009D01*
X139354112Y-118906009D02*
X139277922Y-118982200D01*
X139277922Y-118982200D02*
X139163636Y-119020295D01*
X139163636Y-119020295D02*
X138973160Y-119020295D01*
X139773160Y-119020295D02*
X139773160Y-118220295D01*
X140116016Y-118982200D02*
X140230302Y-119020295D01*
X140230302Y-119020295D02*
X140420778Y-119020295D01*
X140420778Y-119020295D02*
X140496969Y-118982200D01*
X140496969Y-118982200D02*
X140535064Y-118944104D01*
X140535064Y-118944104D02*
X140573159Y-118867914D01*
X140573159Y-118867914D02*
X140573159Y-118791723D01*
X140573159Y-118791723D02*
X140535064Y-118715533D01*
X140535064Y-118715533D02*
X140496969Y-118677438D01*
X140496969Y-118677438D02*
X140420778Y-118639342D01*
X140420778Y-118639342D02*
X140268397Y-118601247D01*
X140268397Y-118601247D02*
X140192207Y-118563152D01*
X140192207Y-118563152D02*
X140154112Y-118525057D01*
X140154112Y-118525057D02*
X140116016Y-118448866D01*
X140116016Y-118448866D02*
X140116016Y-118372676D01*
X140116016Y-118372676D02*
X140154112Y-118296485D01*
X140154112Y-118296485D02*
X140192207Y-118258390D01*
X140192207Y-118258390D02*
X140268397Y-118220295D01*
X140268397Y-118220295D02*
X140458874Y-118220295D01*
X140458874Y-118220295D02*
X140573159Y-118258390D01*
X140916017Y-119020295D02*
X140916017Y-118220295D01*
X140916017Y-118220295D02*
X141220779Y-118220295D01*
X141220779Y-118220295D02*
X141296969Y-118258390D01*
X141296969Y-118258390D02*
X141335064Y-118296485D01*
X141335064Y-118296485D02*
X141373160Y-118372676D01*
X141373160Y-118372676D02*
X141373160Y-118486961D01*
X141373160Y-118486961D02*
X141335064Y-118563152D01*
X141335064Y-118563152D02*
X141296969Y-118601247D01*
X141296969Y-118601247D02*
X141220779Y-118639342D01*
X141220779Y-118639342D02*
X140916017Y-118639342D01*
X141868398Y-118220295D02*
X141944588Y-118220295D01*
X141944588Y-118220295D02*
X142020779Y-118258390D01*
X142020779Y-118258390D02*
X142058874Y-118296485D01*
X142058874Y-118296485D02*
X142096969Y-118372676D01*
X142096969Y-118372676D02*
X142135064Y-118525057D01*
X142135064Y-118525057D02*
X142135064Y-118715533D01*
X142135064Y-118715533D02*
X142096969Y-118867914D01*
X142096969Y-118867914D02*
X142058874Y-118944104D01*
X142058874Y-118944104D02*
X142020779Y-118982200D01*
X142020779Y-118982200D02*
X141944588Y-119020295D01*
X141944588Y-119020295D02*
X141868398Y-119020295D01*
X141868398Y-119020295D02*
X141792207Y-118982200D01*
X141792207Y-118982200D02*
X141754112Y-118944104D01*
X141754112Y-118944104D02*
X141716017Y-118867914D01*
X141716017Y-118867914D02*
X141677921Y-118715533D01*
X141677921Y-118715533D02*
X141677921Y-118525057D01*
X141677921Y-118525057D02*
X141716017Y-118372676D01*
X141716017Y-118372676D02*
X141754112Y-118296485D01*
X141754112Y-118296485D02*
X141792207Y-118258390D01*
X141792207Y-118258390D02*
X141868398Y-118220295D01*
X142287446Y-119096485D02*
X142896969Y-119096485D01*
X142973160Y-118220295D02*
X143430303Y-118220295D01*
X143201731Y-119020295D02*
X143201731Y-118220295D01*
X143696970Y-118601247D02*
X143963636Y-118601247D01*
X144077922Y-119020295D02*
X143696970Y-119020295D01*
X143696970Y-119020295D02*
X143696970Y-118220295D01*
X143696970Y-118220295D02*
X144077922Y-118220295D01*
X151165160Y-119020295D02*
X151165160Y-118220295D01*
X151165160Y-118220295D02*
X151355636Y-118220295D01*
X151355636Y-118220295D02*
X151469922Y-118258390D01*
X151469922Y-118258390D02*
X151546112Y-118334580D01*
X151546112Y-118334580D02*
X151584207Y-118410771D01*
X151584207Y-118410771D02*
X151622303Y-118563152D01*
X151622303Y-118563152D02*
X151622303Y-118677438D01*
X151622303Y-118677438D02*
X151584207Y-118829819D01*
X151584207Y-118829819D02*
X151546112Y-118906009D01*
X151546112Y-118906009D02*
X151469922Y-118982200D01*
X151469922Y-118982200D02*
X151355636Y-119020295D01*
X151355636Y-119020295D02*
X151165160Y-119020295D01*
X151965160Y-119020295D02*
X151965160Y-118220295D01*
X152308016Y-118982200D02*
X152422302Y-119020295D01*
X152422302Y-119020295D02*
X152612778Y-119020295D01*
X152612778Y-119020295D02*
X152688969Y-118982200D01*
X152688969Y-118982200D02*
X152727064Y-118944104D01*
X152727064Y-118944104D02*
X152765159Y-118867914D01*
X152765159Y-118867914D02*
X152765159Y-118791723D01*
X152765159Y-118791723D02*
X152727064Y-118715533D01*
X152727064Y-118715533D02*
X152688969Y-118677438D01*
X152688969Y-118677438D02*
X152612778Y-118639342D01*
X152612778Y-118639342D02*
X152460397Y-118601247D01*
X152460397Y-118601247D02*
X152384207Y-118563152D01*
X152384207Y-118563152D02*
X152346112Y-118525057D01*
X152346112Y-118525057D02*
X152308016Y-118448866D01*
X152308016Y-118448866D02*
X152308016Y-118372676D01*
X152308016Y-118372676D02*
X152346112Y-118296485D01*
X152346112Y-118296485D02*
X152384207Y-118258390D01*
X152384207Y-118258390D02*
X152460397Y-118220295D01*
X152460397Y-118220295D02*
X152650874Y-118220295D01*
X152650874Y-118220295D02*
X152765159Y-118258390D01*
X153108017Y-119020295D02*
X153108017Y-118220295D01*
X153108017Y-118220295D02*
X153412779Y-118220295D01*
X153412779Y-118220295D02*
X153488969Y-118258390D01*
X153488969Y-118258390D02*
X153527064Y-118296485D01*
X153527064Y-118296485D02*
X153565160Y-118372676D01*
X153565160Y-118372676D02*
X153565160Y-118486961D01*
X153565160Y-118486961D02*
X153527064Y-118563152D01*
X153527064Y-118563152D02*
X153488969Y-118601247D01*
X153488969Y-118601247D02*
X153412779Y-118639342D01*
X153412779Y-118639342D02*
X153108017Y-118639342D01*
X154327064Y-119020295D02*
X153869921Y-119020295D01*
X154098493Y-119020295D02*
X154098493Y-118220295D01*
X154098493Y-118220295D02*
X154022302Y-118334580D01*
X154022302Y-118334580D02*
X153946112Y-118410771D01*
X153946112Y-118410771D02*
X153869921Y-118448866D01*
X154479446Y-119096485D02*
X155088969Y-119096485D01*
X155165160Y-118220295D02*
X155622303Y-118220295D01*
X155393731Y-119020295D02*
X155393731Y-118220295D01*
X155888970Y-118601247D02*
X156155636Y-118601247D01*
X156269922Y-119020295D02*
X155888970Y-119020295D01*
X155888970Y-119020295D02*
X155888970Y-118220295D01*
X155888970Y-118220295D02*
X156269922Y-118220295D01*
X134909160Y-116480295D02*
X134909160Y-115680295D01*
X134909160Y-115680295D02*
X135099636Y-115680295D01*
X135099636Y-115680295D02*
X135213922Y-115718390D01*
X135213922Y-115718390D02*
X135290112Y-115794580D01*
X135290112Y-115794580D02*
X135328207Y-115870771D01*
X135328207Y-115870771D02*
X135366303Y-116023152D01*
X135366303Y-116023152D02*
X135366303Y-116137438D01*
X135366303Y-116137438D02*
X135328207Y-116289819D01*
X135328207Y-116289819D02*
X135290112Y-116366009D01*
X135290112Y-116366009D02*
X135213922Y-116442200D01*
X135213922Y-116442200D02*
X135099636Y-116480295D01*
X135099636Y-116480295D02*
X134909160Y-116480295D01*
X135709160Y-116480295D02*
X135709160Y-115680295D01*
X136052016Y-116442200D02*
X136166302Y-116480295D01*
X136166302Y-116480295D02*
X136356778Y-116480295D01*
X136356778Y-116480295D02*
X136432969Y-116442200D01*
X136432969Y-116442200D02*
X136471064Y-116404104D01*
X136471064Y-116404104D02*
X136509159Y-116327914D01*
X136509159Y-116327914D02*
X136509159Y-116251723D01*
X136509159Y-116251723D02*
X136471064Y-116175533D01*
X136471064Y-116175533D02*
X136432969Y-116137438D01*
X136432969Y-116137438D02*
X136356778Y-116099342D01*
X136356778Y-116099342D02*
X136204397Y-116061247D01*
X136204397Y-116061247D02*
X136128207Y-116023152D01*
X136128207Y-116023152D02*
X136090112Y-115985057D01*
X136090112Y-115985057D02*
X136052016Y-115908866D01*
X136052016Y-115908866D02*
X136052016Y-115832676D01*
X136052016Y-115832676D02*
X136090112Y-115756485D01*
X136090112Y-115756485D02*
X136128207Y-115718390D01*
X136128207Y-115718390D02*
X136204397Y-115680295D01*
X136204397Y-115680295D02*
X136394874Y-115680295D01*
X136394874Y-115680295D02*
X136509159Y-115718390D01*
X136852017Y-116480295D02*
X136852017Y-115680295D01*
X136852017Y-115680295D02*
X137156779Y-115680295D01*
X137156779Y-115680295D02*
X137232969Y-115718390D01*
X137232969Y-115718390D02*
X137271064Y-115756485D01*
X137271064Y-115756485D02*
X137309160Y-115832676D01*
X137309160Y-115832676D02*
X137309160Y-115946961D01*
X137309160Y-115946961D02*
X137271064Y-116023152D01*
X137271064Y-116023152D02*
X137232969Y-116061247D01*
X137232969Y-116061247D02*
X137156779Y-116099342D01*
X137156779Y-116099342D02*
X136852017Y-116099342D01*
X137804398Y-115680295D02*
X137880588Y-115680295D01*
X137880588Y-115680295D02*
X137956779Y-115718390D01*
X137956779Y-115718390D02*
X137994874Y-115756485D01*
X137994874Y-115756485D02*
X138032969Y-115832676D01*
X138032969Y-115832676D02*
X138071064Y-115985057D01*
X138071064Y-115985057D02*
X138071064Y-116175533D01*
X138071064Y-116175533D02*
X138032969Y-116327914D01*
X138032969Y-116327914D02*
X137994874Y-116404104D01*
X137994874Y-116404104D02*
X137956779Y-116442200D01*
X137956779Y-116442200D02*
X137880588Y-116480295D01*
X137880588Y-116480295D02*
X137804398Y-116480295D01*
X137804398Y-116480295D02*
X137728207Y-116442200D01*
X137728207Y-116442200D02*
X137690112Y-116404104D01*
X137690112Y-116404104D02*
X137652017Y-116327914D01*
X137652017Y-116327914D02*
X137613921Y-116175533D01*
X137613921Y-116175533D02*
X137613921Y-115985057D01*
X137613921Y-115985057D02*
X137652017Y-115832676D01*
X137652017Y-115832676D02*
X137690112Y-115756485D01*
X137690112Y-115756485D02*
X137728207Y-115718390D01*
X137728207Y-115718390D02*
X137804398Y-115680295D01*
X138223446Y-116556485D02*
X138832969Y-116556485D01*
X139290112Y-116061247D02*
X139404398Y-116099342D01*
X139404398Y-116099342D02*
X139442493Y-116137438D01*
X139442493Y-116137438D02*
X139480589Y-116213628D01*
X139480589Y-116213628D02*
X139480589Y-116327914D01*
X139480589Y-116327914D02*
X139442493Y-116404104D01*
X139442493Y-116404104D02*
X139404398Y-116442200D01*
X139404398Y-116442200D02*
X139328208Y-116480295D01*
X139328208Y-116480295D02*
X139023446Y-116480295D01*
X139023446Y-116480295D02*
X139023446Y-115680295D01*
X139023446Y-115680295D02*
X139290112Y-115680295D01*
X139290112Y-115680295D02*
X139366303Y-115718390D01*
X139366303Y-115718390D02*
X139404398Y-115756485D01*
X139404398Y-115756485D02*
X139442493Y-115832676D01*
X139442493Y-115832676D02*
X139442493Y-115908866D01*
X139442493Y-115908866D02*
X139404398Y-115985057D01*
X139404398Y-115985057D02*
X139366303Y-116023152D01*
X139366303Y-116023152D02*
X139290112Y-116061247D01*
X139290112Y-116061247D02*
X139023446Y-116061247D01*
X139823446Y-115680295D02*
X139823446Y-116327914D01*
X139823446Y-116327914D02*
X139861541Y-116404104D01*
X139861541Y-116404104D02*
X139899636Y-116442200D01*
X139899636Y-116442200D02*
X139975827Y-116480295D01*
X139975827Y-116480295D02*
X140128208Y-116480295D01*
X140128208Y-116480295D02*
X140204398Y-116442200D01*
X140204398Y-116442200D02*
X140242493Y-116404104D01*
X140242493Y-116404104D02*
X140280589Y-116327914D01*
X140280589Y-116327914D02*
X140280589Y-115680295D01*
X141118684Y-116404104D02*
X141080588Y-116442200D01*
X141080588Y-116442200D02*
X140966303Y-116480295D01*
X140966303Y-116480295D02*
X140890112Y-116480295D01*
X140890112Y-116480295D02*
X140775826Y-116442200D01*
X140775826Y-116442200D02*
X140699636Y-116366009D01*
X140699636Y-116366009D02*
X140661541Y-116289819D01*
X140661541Y-116289819D02*
X140623445Y-116137438D01*
X140623445Y-116137438D02*
X140623445Y-116023152D01*
X140623445Y-116023152D02*
X140661541Y-115870771D01*
X140661541Y-115870771D02*
X140699636Y-115794580D01*
X140699636Y-115794580D02*
X140775826Y-115718390D01*
X140775826Y-115718390D02*
X140890112Y-115680295D01*
X140890112Y-115680295D02*
X140966303Y-115680295D01*
X140966303Y-115680295D02*
X141080588Y-115718390D01*
X141080588Y-115718390D02*
X141118684Y-115756485D01*
X141461541Y-116480295D02*
X141461541Y-115680295D01*
X141918684Y-116480295D02*
X141575826Y-116023152D01*
X141918684Y-115680295D02*
X141461541Y-116137438D01*
X142071065Y-116556485D02*
X142680588Y-116556485D01*
X142871065Y-116061247D02*
X143137731Y-116061247D01*
X143252017Y-116480295D02*
X142871065Y-116480295D01*
X142871065Y-116480295D02*
X142871065Y-115680295D01*
X142871065Y-115680295D02*
X143252017Y-115680295D01*
X143594875Y-116480295D02*
X143594875Y-115680295D01*
X143594875Y-115680295D02*
X144052018Y-116480295D01*
X144052018Y-116480295D02*
X144052018Y-115680295D01*
X151165160Y-116226295D02*
X151165160Y-115426295D01*
X151165160Y-115426295D02*
X151355636Y-115426295D01*
X151355636Y-115426295D02*
X151469922Y-115464390D01*
X151469922Y-115464390D02*
X151546112Y-115540580D01*
X151546112Y-115540580D02*
X151584207Y-115616771D01*
X151584207Y-115616771D02*
X151622303Y-115769152D01*
X151622303Y-115769152D02*
X151622303Y-115883438D01*
X151622303Y-115883438D02*
X151584207Y-116035819D01*
X151584207Y-116035819D02*
X151546112Y-116112009D01*
X151546112Y-116112009D02*
X151469922Y-116188200D01*
X151469922Y-116188200D02*
X151355636Y-116226295D01*
X151355636Y-116226295D02*
X151165160Y-116226295D01*
X152384207Y-116226295D02*
X151927064Y-116226295D01*
X152155636Y-116226295D02*
X152155636Y-115426295D01*
X152155636Y-115426295D02*
X152079445Y-115540580D01*
X152079445Y-115540580D02*
X152003255Y-115616771D01*
X152003255Y-115616771D02*
X151927064Y-115654866D01*
X152536589Y-116302485D02*
X153146112Y-116302485D01*
X153603255Y-115807247D02*
X153717541Y-115845342D01*
X153717541Y-115845342D02*
X153755636Y-115883438D01*
X153755636Y-115883438D02*
X153793732Y-115959628D01*
X153793732Y-115959628D02*
X153793732Y-116073914D01*
X153793732Y-116073914D02*
X153755636Y-116150104D01*
X153755636Y-116150104D02*
X153717541Y-116188200D01*
X153717541Y-116188200D02*
X153641351Y-116226295D01*
X153641351Y-116226295D02*
X153336589Y-116226295D01*
X153336589Y-116226295D02*
X153336589Y-115426295D01*
X153336589Y-115426295D02*
X153603255Y-115426295D01*
X153603255Y-115426295D02*
X153679446Y-115464390D01*
X153679446Y-115464390D02*
X153717541Y-115502485D01*
X153717541Y-115502485D02*
X153755636Y-115578676D01*
X153755636Y-115578676D02*
X153755636Y-115654866D01*
X153755636Y-115654866D02*
X153717541Y-115731057D01*
X153717541Y-115731057D02*
X153679446Y-115769152D01*
X153679446Y-115769152D02*
X153603255Y-115807247D01*
X153603255Y-115807247D02*
X153336589Y-115807247D01*
X154136589Y-115426295D02*
X154136589Y-116073914D01*
X154136589Y-116073914D02*
X154174684Y-116150104D01*
X154174684Y-116150104D02*
X154212779Y-116188200D01*
X154212779Y-116188200D02*
X154288970Y-116226295D01*
X154288970Y-116226295D02*
X154441351Y-116226295D01*
X154441351Y-116226295D02*
X154517541Y-116188200D01*
X154517541Y-116188200D02*
X154555636Y-116150104D01*
X154555636Y-116150104D02*
X154593732Y-116073914D01*
X154593732Y-116073914D02*
X154593732Y-115426295D01*
X155431827Y-116150104D02*
X155393731Y-116188200D01*
X155393731Y-116188200D02*
X155279446Y-116226295D01*
X155279446Y-116226295D02*
X155203255Y-116226295D01*
X155203255Y-116226295D02*
X155088969Y-116188200D01*
X155088969Y-116188200D02*
X155012779Y-116112009D01*
X155012779Y-116112009D02*
X154974684Y-116035819D01*
X154974684Y-116035819D02*
X154936588Y-115883438D01*
X154936588Y-115883438D02*
X154936588Y-115769152D01*
X154936588Y-115769152D02*
X154974684Y-115616771D01*
X154974684Y-115616771D02*
X155012779Y-115540580D01*
X155012779Y-115540580D02*
X155088969Y-115464390D01*
X155088969Y-115464390D02*
X155203255Y-115426295D01*
X155203255Y-115426295D02*
X155279446Y-115426295D01*
X155279446Y-115426295D02*
X155393731Y-115464390D01*
X155393731Y-115464390D02*
X155431827Y-115502485D01*
X155774684Y-116226295D02*
X155774684Y-115426295D01*
X156231827Y-116226295D02*
X155888969Y-115769152D01*
X156231827Y-115426295D02*
X155774684Y-115883438D01*
X156536588Y-116188200D02*
X156650874Y-116226295D01*
X156650874Y-116226295D02*
X156841350Y-116226295D01*
X156841350Y-116226295D02*
X156917541Y-116188200D01*
X156917541Y-116188200D02*
X156955636Y-116150104D01*
X156955636Y-116150104D02*
X156993731Y-116073914D01*
X156993731Y-116073914D02*
X156993731Y-115997723D01*
X156993731Y-115997723D02*
X156955636Y-115921533D01*
X156955636Y-115921533D02*
X156917541Y-115883438D01*
X156917541Y-115883438D02*
X156841350Y-115845342D01*
X156841350Y-115845342D02*
X156688969Y-115807247D01*
X156688969Y-115807247D02*
X156612779Y-115769152D01*
X156612779Y-115769152D02*
X156574684Y-115731057D01*
X156574684Y-115731057D02*
X156536588Y-115654866D01*
X156536588Y-115654866D02*
X156536588Y-115578676D01*
X156536588Y-115578676D02*
X156574684Y-115502485D01*
X156574684Y-115502485D02*
X156612779Y-115464390D01*
X156612779Y-115464390D02*
X156688969Y-115426295D01*
X156688969Y-115426295D02*
X156879446Y-115426295D01*
X156879446Y-115426295D02*
X156993731Y-115464390D01*
X157336589Y-115807247D02*
X157603255Y-115807247D01*
X157717541Y-116226295D02*
X157336589Y-116226295D01*
X157336589Y-116226295D02*
X157336589Y-115426295D01*
X157336589Y-115426295D02*
X157717541Y-115426295D01*
X158441351Y-116226295D02*
X158060399Y-116226295D01*
X158060399Y-116226295D02*
X158060399Y-115426295D01*
X138211160Y-113940295D02*
X138211160Y-113140295D01*
X138211160Y-113140295D02*
X138401636Y-113140295D01*
X138401636Y-113140295D02*
X138515922Y-113178390D01*
X138515922Y-113178390D02*
X138592112Y-113254580D01*
X138592112Y-113254580D02*
X138630207Y-113330771D01*
X138630207Y-113330771D02*
X138668303Y-113483152D01*
X138668303Y-113483152D02*
X138668303Y-113597438D01*
X138668303Y-113597438D02*
X138630207Y-113749819D01*
X138630207Y-113749819D02*
X138592112Y-113826009D01*
X138592112Y-113826009D02*
X138515922Y-113902200D01*
X138515922Y-113902200D02*
X138401636Y-113940295D01*
X138401636Y-113940295D02*
X138211160Y-113940295D01*
X139011160Y-113940295D02*
X139011160Y-113140295D01*
X139354016Y-113902200D02*
X139468302Y-113940295D01*
X139468302Y-113940295D02*
X139658778Y-113940295D01*
X139658778Y-113940295D02*
X139734969Y-113902200D01*
X139734969Y-113902200D02*
X139773064Y-113864104D01*
X139773064Y-113864104D02*
X139811159Y-113787914D01*
X139811159Y-113787914D02*
X139811159Y-113711723D01*
X139811159Y-113711723D02*
X139773064Y-113635533D01*
X139773064Y-113635533D02*
X139734969Y-113597438D01*
X139734969Y-113597438D02*
X139658778Y-113559342D01*
X139658778Y-113559342D02*
X139506397Y-113521247D01*
X139506397Y-113521247D02*
X139430207Y-113483152D01*
X139430207Y-113483152D02*
X139392112Y-113445057D01*
X139392112Y-113445057D02*
X139354016Y-113368866D01*
X139354016Y-113368866D02*
X139354016Y-113292676D01*
X139354016Y-113292676D02*
X139392112Y-113216485D01*
X139392112Y-113216485D02*
X139430207Y-113178390D01*
X139430207Y-113178390D02*
X139506397Y-113140295D01*
X139506397Y-113140295D02*
X139696874Y-113140295D01*
X139696874Y-113140295D02*
X139811159Y-113178390D01*
X140154017Y-113940295D02*
X140154017Y-113140295D01*
X140154017Y-113140295D02*
X140458779Y-113140295D01*
X140458779Y-113140295D02*
X140534969Y-113178390D01*
X140534969Y-113178390D02*
X140573064Y-113216485D01*
X140573064Y-113216485D02*
X140611160Y-113292676D01*
X140611160Y-113292676D02*
X140611160Y-113406961D01*
X140611160Y-113406961D02*
X140573064Y-113483152D01*
X140573064Y-113483152D02*
X140534969Y-113521247D01*
X140534969Y-113521247D02*
X140458779Y-113559342D01*
X140458779Y-113559342D02*
X140154017Y-113559342D01*
X141106398Y-113140295D02*
X141182588Y-113140295D01*
X141182588Y-113140295D02*
X141258779Y-113178390D01*
X141258779Y-113178390D02*
X141296874Y-113216485D01*
X141296874Y-113216485D02*
X141334969Y-113292676D01*
X141334969Y-113292676D02*
X141373064Y-113445057D01*
X141373064Y-113445057D02*
X141373064Y-113635533D01*
X141373064Y-113635533D02*
X141334969Y-113787914D01*
X141334969Y-113787914D02*
X141296874Y-113864104D01*
X141296874Y-113864104D02*
X141258779Y-113902200D01*
X141258779Y-113902200D02*
X141182588Y-113940295D01*
X141182588Y-113940295D02*
X141106398Y-113940295D01*
X141106398Y-113940295D02*
X141030207Y-113902200D01*
X141030207Y-113902200D02*
X140992112Y-113864104D01*
X140992112Y-113864104D02*
X140954017Y-113787914D01*
X140954017Y-113787914D02*
X140915921Y-113635533D01*
X140915921Y-113635533D02*
X140915921Y-113445057D01*
X140915921Y-113445057D02*
X140954017Y-113292676D01*
X140954017Y-113292676D02*
X140992112Y-113216485D01*
X140992112Y-113216485D02*
X141030207Y-113178390D01*
X141030207Y-113178390D02*
X141106398Y-113140295D01*
X141525446Y-114016485D02*
X142134969Y-114016485D01*
X142782589Y-113940295D02*
X142515922Y-113559342D01*
X142325446Y-113940295D02*
X142325446Y-113140295D01*
X142325446Y-113140295D02*
X142630208Y-113140295D01*
X142630208Y-113140295D02*
X142706398Y-113178390D01*
X142706398Y-113178390D02*
X142744493Y-113216485D01*
X142744493Y-113216485D02*
X142782589Y-113292676D01*
X142782589Y-113292676D02*
X142782589Y-113406961D01*
X142782589Y-113406961D02*
X142744493Y-113483152D01*
X142744493Y-113483152D02*
X142706398Y-113521247D01*
X142706398Y-113521247D02*
X142630208Y-113559342D01*
X142630208Y-113559342D02*
X142325446Y-113559342D01*
X143087350Y-113902200D02*
X143201636Y-113940295D01*
X143201636Y-113940295D02*
X143392112Y-113940295D01*
X143392112Y-113940295D02*
X143468303Y-113902200D01*
X143468303Y-113902200D02*
X143506398Y-113864104D01*
X143506398Y-113864104D02*
X143544493Y-113787914D01*
X143544493Y-113787914D02*
X143544493Y-113711723D01*
X143544493Y-113711723D02*
X143506398Y-113635533D01*
X143506398Y-113635533D02*
X143468303Y-113597438D01*
X143468303Y-113597438D02*
X143392112Y-113559342D01*
X143392112Y-113559342D02*
X143239731Y-113521247D01*
X143239731Y-113521247D02*
X143163541Y-113483152D01*
X143163541Y-113483152D02*
X143125446Y-113445057D01*
X143125446Y-113445057D02*
X143087350Y-113368866D01*
X143087350Y-113368866D02*
X143087350Y-113292676D01*
X143087350Y-113292676D02*
X143125446Y-113216485D01*
X143125446Y-113216485D02*
X143163541Y-113178390D01*
X143163541Y-113178390D02*
X143239731Y-113140295D01*
X143239731Y-113140295D02*
X143430208Y-113140295D01*
X143430208Y-113140295D02*
X143544493Y-113178390D01*
X143773065Y-113140295D02*
X144230208Y-113140295D01*
X144001636Y-113940295D02*
X144001636Y-113140295D01*
X151165160Y-113686295D02*
X151165160Y-112886295D01*
X151165160Y-112886295D02*
X151355636Y-112886295D01*
X151355636Y-112886295D02*
X151469922Y-112924390D01*
X151469922Y-112924390D02*
X151546112Y-113000580D01*
X151546112Y-113000580D02*
X151584207Y-113076771D01*
X151584207Y-113076771D02*
X151622303Y-113229152D01*
X151622303Y-113229152D02*
X151622303Y-113343438D01*
X151622303Y-113343438D02*
X151584207Y-113495819D01*
X151584207Y-113495819D02*
X151546112Y-113572009D01*
X151546112Y-113572009D02*
X151469922Y-113648200D01*
X151469922Y-113648200D02*
X151355636Y-113686295D01*
X151355636Y-113686295D02*
X151165160Y-113686295D01*
X151965160Y-113686295D02*
X151965160Y-112886295D01*
X152308016Y-113648200D02*
X152422302Y-113686295D01*
X152422302Y-113686295D02*
X152612778Y-113686295D01*
X152612778Y-113686295D02*
X152688969Y-113648200D01*
X152688969Y-113648200D02*
X152727064Y-113610104D01*
X152727064Y-113610104D02*
X152765159Y-113533914D01*
X152765159Y-113533914D02*
X152765159Y-113457723D01*
X152765159Y-113457723D02*
X152727064Y-113381533D01*
X152727064Y-113381533D02*
X152688969Y-113343438D01*
X152688969Y-113343438D02*
X152612778Y-113305342D01*
X152612778Y-113305342D02*
X152460397Y-113267247D01*
X152460397Y-113267247D02*
X152384207Y-113229152D01*
X152384207Y-113229152D02*
X152346112Y-113191057D01*
X152346112Y-113191057D02*
X152308016Y-113114866D01*
X152308016Y-113114866D02*
X152308016Y-113038676D01*
X152308016Y-113038676D02*
X152346112Y-112962485D01*
X152346112Y-112962485D02*
X152384207Y-112924390D01*
X152384207Y-112924390D02*
X152460397Y-112886295D01*
X152460397Y-112886295D02*
X152650874Y-112886295D01*
X152650874Y-112886295D02*
X152765159Y-112924390D01*
X153108017Y-113686295D02*
X153108017Y-112886295D01*
X153108017Y-112886295D02*
X153412779Y-112886295D01*
X153412779Y-112886295D02*
X153488969Y-112924390D01*
X153488969Y-112924390D02*
X153527064Y-112962485D01*
X153527064Y-112962485D02*
X153565160Y-113038676D01*
X153565160Y-113038676D02*
X153565160Y-113152961D01*
X153565160Y-113152961D02*
X153527064Y-113229152D01*
X153527064Y-113229152D02*
X153488969Y-113267247D01*
X153488969Y-113267247D02*
X153412779Y-113305342D01*
X153412779Y-113305342D02*
X153108017Y-113305342D01*
X154327064Y-113686295D02*
X153869921Y-113686295D01*
X154098493Y-113686295D02*
X154098493Y-112886295D01*
X154098493Y-112886295D02*
X154022302Y-113000580D01*
X154022302Y-113000580D02*
X153946112Y-113076771D01*
X153946112Y-113076771D02*
X153869921Y-113114866D01*
X154479446Y-113762485D02*
X155088969Y-113762485D01*
X155736589Y-113686295D02*
X155469922Y-113305342D01*
X155279446Y-113686295D02*
X155279446Y-112886295D01*
X155279446Y-112886295D02*
X155584208Y-112886295D01*
X155584208Y-112886295D02*
X155660398Y-112924390D01*
X155660398Y-112924390D02*
X155698493Y-112962485D01*
X155698493Y-112962485D02*
X155736589Y-113038676D01*
X155736589Y-113038676D02*
X155736589Y-113152961D01*
X155736589Y-113152961D02*
X155698493Y-113229152D01*
X155698493Y-113229152D02*
X155660398Y-113267247D01*
X155660398Y-113267247D02*
X155584208Y-113305342D01*
X155584208Y-113305342D02*
X155279446Y-113305342D01*
X156041350Y-113648200D02*
X156155636Y-113686295D01*
X156155636Y-113686295D02*
X156346112Y-113686295D01*
X156346112Y-113686295D02*
X156422303Y-113648200D01*
X156422303Y-113648200D02*
X156460398Y-113610104D01*
X156460398Y-113610104D02*
X156498493Y-113533914D01*
X156498493Y-113533914D02*
X156498493Y-113457723D01*
X156498493Y-113457723D02*
X156460398Y-113381533D01*
X156460398Y-113381533D02*
X156422303Y-113343438D01*
X156422303Y-113343438D02*
X156346112Y-113305342D01*
X156346112Y-113305342D02*
X156193731Y-113267247D01*
X156193731Y-113267247D02*
X156117541Y-113229152D01*
X156117541Y-113229152D02*
X156079446Y-113191057D01*
X156079446Y-113191057D02*
X156041350Y-113114866D01*
X156041350Y-113114866D02*
X156041350Y-113038676D01*
X156041350Y-113038676D02*
X156079446Y-112962485D01*
X156079446Y-112962485D02*
X156117541Y-112924390D01*
X156117541Y-112924390D02*
X156193731Y-112886295D01*
X156193731Y-112886295D02*
X156384208Y-112886295D01*
X156384208Y-112886295D02*
X156498493Y-112924390D01*
X156727065Y-112886295D02*
X157184208Y-112886295D01*
X156955636Y-113686295D02*
X156955636Y-112886295D01*
X137703160Y-109114295D02*
X137703160Y-108314295D01*
X137703160Y-108314295D02*
X137893636Y-108314295D01*
X137893636Y-108314295D02*
X138007922Y-108352390D01*
X138007922Y-108352390D02*
X138084112Y-108428580D01*
X138084112Y-108428580D02*
X138122207Y-108504771D01*
X138122207Y-108504771D02*
X138160303Y-108657152D01*
X138160303Y-108657152D02*
X138160303Y-108771438D01*
X138160303Y-108771438D02*
X138122207Y-108923819D01*
X138122207Y-108923819D02*
X138084112Y-109000009D01*
X138084112Y-109000009D02*
X138007922Y-109076200D01*
X138007922Y-109076200D02*
X137893636Y-109114295D01*
X137893636Y-109114295D02*
X137703160Y-109114295D01*
X138503160Y-109114295D02*
X138503160Y-108314295D01*
X138846016Y-109076200D02*
X138960302Y-109114295D01*
X138960302Y-109114295D02*
X139150778Y-109114295D01*
X139150778Y-109114295D02*
X139226969Y-109076200D01*
X139226969Y-109076200D02*
X139265064Y-109038104D01*
X139265064Y-109038104D02*
X139303159Y-108961914D01*
X139303159Y-108961914D02*
X139303159Y-108885723D01*
X139303159Y-108885723D02*
X139265064Y-108809533D01*
X139265064Y-108809533D02*
X139226969Y-108771438D01*
X139226969Y-108771438D02*
X139150778Y-108733342D01*
X139150778Y-108733342D02*
X138998397Y-108695247D01*
X138998397Y-108695247D02*
X138922207Y-108657152D01*
X138922207Y-108657152D02*
X138884112Y-108619057D01*
X138884112Y-108619057D02*
X138846016Y-108542866D01*
X138846016Y-108542866D02*
X138846016Y-108466676D01*
X138846016Y-108466676D02*
X138884112Y-108390485D01*
X138884112Y-108390485D02*
X138922207Y-108352390D01*
X138922207Y-108352390D02*
X138998397Y-108314295D01*
X138998397Y-108314295D02*
X139188874Y-108314295D01*
X139188874Y-108314295D02*
X139303159Y-108352390D01*
X139646017Y-109114295D02*
X139646017Y-108314295D01*
X139646017Y-108314295D02*
X139950779Y-108314295D01*
X139950779Y-108314295D02*
X140026969Y-108352390D01*
X140026969Y-108352390D02*
X140065064Y-108390485D01*
X140065064Y-108390485D02*
X140103160Y-108466676D01*
X140103160Y-108466676D02*
X140103160Y-108580961D01*
X140103160Y-108580961D02*
X140065064Y-108657152D01*
X140065064Y-108657152D02*
X140026969Y-108695247D01*
X140026969Y-108695247D02*
X139950779Y-108733342D01*
X139950779Y-108733342D02*
X139646017Y-108733342D01*
X140598398Y-108314295D02*
X140674588Y-108314295D01*
X140674588Y-108314295D02*
X140750779Y-108352390D01*
X140750779Y-108352390D02*
X140788874Y-108390485D01*
X140788874Y-108390485D02*
X140826969Y-108466676D01*
X140826969Y-108466676D02*
X140865064Y-108619057D01*
X140865064Y-108619057D02*
X140865064Y-108809533D01*
X140865064Y-108809533D02*
X140826969Y-108961914D01*
X140826969Y-108961914D02*
X140788874Y-109038104D01*
X140788874Y-109038104D02*
X140750779Y-109076200D01*
X140750779Y-109076200D02*
X140674588Y-109114295D01*
X140674588Y-109114295D02*
X140598398Y-109114295D01*
X140598398Y-109114295D02*
X140522207Y-109076200D01*
X140522207Y-109076200D02*
X140484112Y-109038104D01*
X140484112Y-109038104D02*
X140446017Y-108961914D01*
X140446017Y-108961914D02*
X140407921Y-108809533D01*
X140407921Y-108809533D02*
X140407921Y-108619057D01*
X140407921Y-108619057D02*
X140446017Y-108466676D01*
X140446017Y-108466676D02*
X140484112Y-108390485D01*
X140484112Y-108390485D02*
X140522207Y-108352390D01*
X140522207Y-108352390D02*
X140598398Y-108314295D01*
X141017446Y-109190485D02*
X141626969Y-109190485D01*
X141703160Y-108314295D02*
X141969827Y-109114295D01*
X141969827Y-109114295D02*
X142236493Y-108314295D01*
X142503160Y-109114295D02*
X142503160Y-108314295D01*
X142503160Y-108314295D02*
X142693636Y-108314295D01*
X142693636Y-108314295D02*
X142807922Y-108352390D01*
X142807922Y-108352390D02*
X142884112Y-108428580D01*
X142884112Y-108428580D02*
X142922207Y-108504771D01*
X142922207Y-108504771D02*
X142960303Y-108657152D01*
X142960303Y-108657152D02*
X142960303Y-108771438D01*
X142960303Y-108771438D02*
X142922207Y-108923819D01*
X142922207Y-108923819D02*
X142884112Y-109000009D01*
X142884112Y-109000009D02*
X142807922Y-109076200D01*
X142807922Y-109076200D02*
X142693636Y-109114295D01*
X142693636Y-109114295D02*
X142503160Y-109114295D01*
X143303160Y-109114295D02*
X143303160Y-108314295D01*
X143303160Y-108314295D02*
X143493636Y-108314295D01*
X143493636Y-108314295D02*
X143607922Y-108352390D01*
X143607922Y-108352390D02*
X143684112Y-108428580D01*
X143684112Y-108428580D02*
X143722207Y-108504771D01*
X143722207Y-108504771D02*
X143760303Y-108657152D01*
X143760303Y-108657152D02*
X143760303Y-108771438D01*
X143760303Y-108771438D02*
X143722207Y-108923819D01*
X143722207Y-108923819D02*
X143684112Y-109000009D01*
X143684112Y-109000009D02*
X143607922Y-109076200D01*
X143607922Y-109076200D02*
X143493636Y-109114295D01*
X143493636Y-109114295D02*
X143303160Y-109114295D01*
X144103160Y-109114295D02*
X144103160Y-108314295D01*
X150911160Y-108860295D02*
X150911160Y-108060295D01*
X150911160Y-108060295D02*
X151101636Y-108060295D01*
X151101636Y-108060295D02*
X151215922Y-108098390D01*
X151215922Y-108098390D02*
X151292112Y-108174580D01*
X151292112Y-108174580D02*
X151330207Y-108250771D01*
X151330207Y-108250771D02*
X151368303Y-108403152D01*
X151368303Y-108403152D02*
X151368303Y-108517438D01*
X151368303Y-108517438D02*
X151330207Y-108669819D01*
X151330207Y-108669819D02*
X151292112Y-108746009D01*
X151292112Y-108746009D02*
X151215922Y-108822200D01*
X151215922Y-108822200D02*
X151101636Y-108860295D01*
X151101636Y-108860295D02*
X150911160Y-108860295D01*
X151711160Y-108860295D02*
X151711160Y-108060295D01*
X152054016Y-108822200D02*
X152168302Y-108860295D01*
X152168302Y-108860295D02*
X152358778Y-108860295D01*
X152358778Y-108860295D02*
X152434969Y-108822200D01*
X152434969Y-108822200D02*
X152473064Y-108784104D01*
X152473064Y-108784104D02*
X152511159Y-108707914D01*
X152511159Y-108707914D02*
X152511159Y-108631723D01*
X152511159Y-108631723D02*
X152473064Y-108555533D01*
X152473064Y-108555533D02*
X152434969Y-108517438D01*
X152434969Y-108517438D02*
X152358778Y-108479342D01*
X152358778Y-108479342D02*
X152206397Y-108441247D01*
X152206397Y-108441247D02*
X152130207Y-108403152D01*
X152130207Y-108403152D02*
X152092112Y-108365057D01*
X152092112Y-108365057D02*
X152054016Y-108288866D01*
X152054016Y-108288866D02*
X152054016Y-108212676D01*
X152054016Y-108212676D02*
X152092112Y-108136485D01*
X152092112Y-108136485D02*
X152130207Y-108098390D01*
X152130207Y-108098390D02*
X152206397Y-108060295D01*
X152206397Y-108060295D02*
X152396874Y-108060295D01*
X152396874Y-108060295D02*
X152511159Y-108098390D01*
X152854017Y-108860295D02*
X152854017Y-108060295D01*
X152854017Y-108060295D02*
X153158779Y-108060295D01*
X153158779Y-108060295D02*
X153234969Y-108098390D01*
X153234969Y-108098390D02*
X153273064Y-108136485D01*
X153273064Y-108136485D02*
X153311160Y-108212676D01*
X153311160Y-108212676D02*
X153311160Y-108326961D01*
X153311160Y-108326961D02*
X153273064Y-108403152D01*
X153273064Y-108403152D02*
X153234969Y-108441247D01*
X153234969Y-108441247D02*
X153158779Y-108479342D01*
X153158779Y-108479342D02*
X152854017Y-108479342D01*
X154073064Y-108860295D02*
X153615921Y-108860295D01*
X153844493Y-108860295D02*
X153844493Y-108060295D01*
X153844493Y-108060295D02*
X153768302Y-108174580D01*
X153768302Y-108174580D02*
X153692112Y-108250771D01*
X153692112Y-108250771D02*
X153615921Y-108288866D01*
X154225446Y-108936485D02*
X154834969Y-108936485D01*
X154911160Y-108060295D02*
X155177827Y-108860295D01*
X155177827Y-108860295D02*
X155444493Y-108060295D01*
X155711160Y-108860295D02*
X155711160Y-108060295D01*
X155711160Y-108060295D02*
X155901636Y-108060295D01*
X155901636Y-108060295D02*
X156015922Y-108098390D01*
X156015922Y-108098390D02*
X156092112Y-108174580D01*
X156092112Y-108174580D02*
X156130207Y-108250771D01*
X156130207Y-108250771D02*
X156168303Y-108403152D01*
X156168303Y-108403152D02*
X156168303Y-108517438D01*
X156168303Y-108517438D02*
X156130207Y-108669819D01*
X156130207Y-108669819D02*
X156092112Y-108746009D01*
X156092112Y-108746009D02*
X156015922Y-108822200D01*
X156015922Y-108822200D02*
X155901636Y-108860295D01*
X155901636Y-108860295D02*
X155711160Y-108860295D01*
X156511160Y-108860295D02*
X156511160Y-108060295D01*
X156511160Y-108060295D02*
X156701636Y-108060295D01*
X156701636Y-108060295D02*
X156815922Y-108098390D01*
X156815922Y-108098390D02*
X156892112Y-108174580D01*
X156892112Y-108174580D02*
X156930207Y-108250771D01*
X156930207Y-108250771D02*
X156968303Y-108403152D01*
X156968303Y-108403152D02*
X156968303Y-108517438D01*
X156968303Y-108517438D02*
X156930207Y-108669819D01*
X156930207Y-108669819D02*
X156892112Y-108746009D01*
X156892112Y-108746009D02*
X156815922Y-108822200D01*
X156815922Y-108822200D02*
X156701636Y-108860295D01*
X156701636Y-108860295D02*
X156511160Y-108860295D01*
X157311160Y-108860295D02*
X157311160Y-108060295D01*
X150911160Y-106320295D02*
X150911160Y-105520295D01*
X150911160Y-105520295D02*
X151101636Y-105520295D01*
X151101636Y-105520295D02*
X151215922Y-105558390D01*
X151215922Y-105558390D02*
X151292112Y-105634580D01*
X151292112Y-105634580D02*
X151330207Y-105710771D01*
X151330207Y-105710771D02*
X151368303Y-105863152D01*
X151368303Y-105863152D02*
X151368303Y-105977438D01*
X151368303Y-105977438D02*
X151330207Y-106129819D01*
X151330207Y-106129819D02*
X151292112Y-106206009D01*
X151292112Y-106206009D02*
X151215922Y-106282200D01*
X151215922Y-106282200D02*
X151101636Y-106320295D01*
X151101636Y-106320295D02*
X150911160Y-106320295D01*
X151711160Y-106320295D02*
X151711160Y-105520295D01*
X152054016Y-106282200D02*
X152168302Y-106320295D01*
X152168302Y-106320295D02*
X152358778Y-106320295D01*
X152358778Y-106320295D02*
X152434969Y-106282200D01*
X152434969Y-106282200D02*
X152473064Y-106244104D01*
X152473064Y-106244104D02*
X152511159Y-106167914D01*
X152511159Y-106167914D02*
X152511159Y-106091723D01*
X152511159Y-106091723D02*
X152473064Y-106015533D01*
X152473064Y-106015533D02*
X152434969Y-105977438D01*
X152434969Y-105977438D02*
X152358778Y-105939342D01*
X152358778Y-105939342D02*
X152206397Y-105901247D01*
X152206397Y-105901247D02*
X152130207Y-105863152D01*
X152130207Y-105863152D02*
X152092112Y-105825057D01*
X152092112Y-105825057D02*
X152054016Y-105748866D01*
X152054016Y-105748866D02*
X152054016Y-105672676D01*
X152054016Y-105672676D02*
X152092112Y-105596485D01*
X152092112Y-105596485D02*
X152130207Y-105558390D01*
X152130207Y-105558390D02*
X152206397Y-105520295D01*
X152206397Y-105520295D02*
X152396874Y-105520295D01*
X152396874Y-105520295D02*
X152511159Y-105558390D01*
X152854017Y-106320295D02*
X152854017Y-105520295D01*
X152854017Y-105520295D02*
X153158779Y-105520295D01*
X153158779Y-105520295D02*
X153234969Y-105558390D01*
X153234969Y-105558390D02*
X153273064Y-105596485D01*
X153273064Y-105596485D02*
X153311160Y-105672676D01*
X153311160Y-105672676D02*
X153311160Y-105786961D01*
X153311160Y-105786961D02*
X153273064Y-105863152D01*
X153273064Y-105863152D02*
X153234969Y-105901247D01*
X153234969Y-105901247D02*
X153158779Y-105939342D01*
X153158779Y-105939342D02*
X152854017Y-105939342D01*
X154073064Y-106320295D02*
X153615921Y-106320295D01*
X153844493Y-106320295D02*
X153844493Y-105520295D01*
X153844493Y-105520295D02*
X153768302Y-105634580D01*
X153768302Y-105634580D02*
X153692112Y-105710771D01*
X153692112Y-105710771D02*
X153615921Y-105748866D01*
X154225446Y-106396485D02*
X154834969Y-106396485D01*
X154911160Y-105520295D02*
X155177827Y-106320295D01*
X155177827Y-106320295D02*
X155444493Y-105520295D01*
X156168303Y-106244104D02*
X156130207Y-106282200D01*
X156130207Y-106282200D02*
X156015922Y-106320295D01*
X156015922Y-106320295D02*
X155939731Y-106320295D01*
X155939731Y-106320295D02*
X155825445Y-106282200D01*
X155825445Y-106282200D02*
X155749255Y-106206009D01*
X155749255Y-106206009D02*
X155711160Y-106129819D01*
X155711160Y-106129819D02*
X155673064Y-105977438D01*
X155673064Y-105977438D02*
X155673064Y-105863152D01*
X155673064Y-105863152D02*
X155711160Y-105710771D01*
X155711160Y-105710771D02*
X155749255Y-105634580D01*
X155749255Y-105634580D02*
X155825445Y-105558390D01*
X155825445Y-105558390D02*
X155939731Y-105520295D01*
X155939731Y-105520295D02*
X156015922Y-105520295D01*
X156015922Y-105520295D02*
X156130207Y-105558390D01*
X156130207Y-105558390D02*
X156168303Y-105596485D01*
X156511160Y-106320295D02*
X156511160Y-105520295D01*
X138465160Y-106320295D02*
X138465160Y-105520295D01*
X138465160Y-105520295D02*
X138655636Y-105520295D01*
X138655636Y-105520295D02*
X138769922Y-105558390D01*
X138769922Y-105558390D02*
X138846112Y-105634580D01*
X138846112Y-105634580D02*
X138884207Y-105710771D01*
X138884207Y-105710771D02*
X138922303Y-105863152D01*
X138922303Y-105863152D02*
X138922303Y-105977438D01*
X138922303Y-105977438D02*
X138884207Y-106129819D01*
X138884207Y-106129819D02*
X138846112Y-106206009D01*
X138846112Y-106206009D02*
X138769922Y-106282200D01*
X138769922Y-106282200D02*
X138655636Y-106320295D01*
X138655636Y-106320295D02*
X138465160Y-106320295D01*
X139265160Y-106320295D02*
X139265160Y-105520295D01*
X139608016Y-106282200D02*
X139722302Y-106320295D01*
X139722302Y-106320295D02*
X139912778Y-106320295D01*
X139912778Y-106320295D02*
X139988969Y-106282200D01*
X139988969Y-106282200D02*
X140027064Y-106244104D01*
X140027064Y-106244104D02*
X140065159Y-106167914D01*
X140065159Y-106167914D02*
X140065159Y-106091723D01*
X140065159Y-106091723D02*
X140027064Y-106015533D01*
X140027064Y-106015533D02*
X139988969Y-105977438D01*
X139988969Y-105977438D02*
X139912778Y-105939342D01*
X139912778Y-105939342D02*
X139760397Y-105901247D01*
X139760397Y-105901247D02*
X139684207Y-105863152D01*
X139684207Y-105863152D02*
X139646112Y-105825057D01*
X139646112Y-105825057D02*
X139608016Y-105748866D01*
X139608016Y-105748866D02*
X139608016Y-105672676D01*
X139608016Y-105672676D02*
X139646112Y-105596485D01*
X139646112Y-105596485D02*
X139684207Y-105558390D01*
X139684207Y-105558390D02*
X139760397Y-105520295D01*
X139760397Y-105520295D02*
X139950874Y-105520295D01*
X139950874Y-105520295D02*
X140065159Y-105558390D01*
X140408017Y-106320295D02*
X140408017Y-105520295D01*
X140408017Y-105520295D02*
X140712779Y-105520295D01*
X140712779Y-105520295D02*
X140788969Y-105558390D01*
X140788969Y-105558390D02*
X140827064Y-105596485D01*
X140827064Y-105596485D02*
X140865160Y-105672676D01*
X140865160Y-105672676D02*
X140865160Y-105786961D01*
X140865160Y-105786961D02*
X140827064Y-105863152D01*
X140827064Y-105863152D02*
X140788969Y-105901247D01*
X140788969Y-105901247D02*
X140712779Y-105939342D01*
X140712779Y-105939342D02*
X140408017Y-105939342D01*
X141360398Y-105520295D02*
X141436588Y-105520295D01*
X141436588Y-105520295D02*
X141512779Y-105558390D01*
X141512779Y-105558390D02*
X141550874Y-105596485D01*
X141550874Y-105596485D02*
X141588969Y-105672676D01*
X141588969Y-105672676D02*
X141627064Y-105825057D01*
X141627064Y-105825057D02*
X141627064Y-106015533D01*
X141627064Y-106015533D02*
X141588969Y-106167914D01*
X141588969Y-106167914D02*
X141550874Y-106244104D01*
X141550874Y-106244104D02*
X141512779Y-106282200D01*
X141512779Y-106282200D02*
X141436588Y-106320295D01*
X141436588Y-106320295D02*
X141360398Y-106320295D01*
X141360398Y-106320295D02*
X141284207Y-106282200D01*
X141284207Y-106282200D02*
X141246112Y-106244104D01*
X141246112Y-106244104D02*
X141208017Y-106167914D01*
X141208017Y-106167914D02*
X141169921Y-106015533D01*
X141169921Y-106015533D02*
X141169921Y-105825057D01*
X141169921Y-105825057D02*
X141208017Y-105672676D01*
X141208017Y-105672676D02*
X141246112Y-105596485D01*
X141246112Y-105596485D02*
X141284207Y-105558390D01*
X141284207Y-105558390D02*
X141360398Y-105520295D01*
X141779446Y-106396485D02*
X142388969Y-106396485D01*
X142465160Y-105520295D02*
X142731827Y-106320295D01*
X142731827Y-106320295D02*
X142998493Y-105520295D01*
X143722303Y-106244104D02*
X143684207Y-106282200D01*
X143684207Y-106282200D02*
X143569922Y-106320295D01*
X143569922Y-106320295D02*
X143493731Y-106320295D01*
X143493731Y-106320295D02*
X143379445Y-106282200D01*
X143379445Y-106282200D02*
X143303255Y-106206009D01*
X143303255Y-106206009D02*
X143265160Y-106129819D01*
X143265160Y-106129819D02*
X143227064Y-105977438D01*
X143227064Y-105977438D02*
X143227064Y-105863152D01*
X143227064Y-105863152D02*
X143265160Y-105710771D01*
X143265160Y-105710771D02*
X143303255Y-105634580D01*
X143303255Y-105634580D02*
X143379445Y-105558390D01*
X143379445Y-105558390D02*
X143493731Y-105520295D01*
X143493731Y-105520295D02*
X143569922Y-105520295D01*
X143569922Y-105520295D02*
X143684207Y-105558390D01*
X143684207Y-105558390D02*
X143722303Y-105596485D01*
X144065160Y-106320295D02*
X144065160Y-105520295D01*
X139354112Y-103914295D02*
X138973160Y-103914295D01*
X138973160Y-103914295D02*
X138973160Y-103114295D01*
X139582683Y-103190485D02*
X139620779Y-103152390D01*
X139620779Y-103152390D02*
X139696969Y-103114295D01*
X139696969Y-103114295D02*
X139887445Y-103114295D01*
X139887445Y-103114295D02*
X139963636Y-103152390D01*
X139963636Y-103152390D02*
X140001731Y-103190485D01*
X140001731Y-103190485D02*
X140039826Y-103266676D01*
X140039826Y-103266676D02*
X140039826Y-103342866D01*
X140039826Y-103342866D02*
X140001731Y-103457152D01*
X140001731Y-103457152D02*
X139544588Y-103914295D01*
X139544588Y-103914295D02*
X140039826Y-103914295D01*
X140382684Y-103914295D02*
X140382684Y-103114295D01*
X140382684Y-103114295D02*
X140649350Y-103685723D01*
X140649350Y-103685723D02*
X140916017Y-103114295D01*
X140916017Y-103114295D02*
X140916017Y-103914295D01*
X141906494Y-103914295D02*
X141906494Y-103114295D01*
X141906494Y-103114295D02*
X142096970Y-103114295D01*
X142096970Y-103114295D02*
X142211256Y-103152390D01*
X142211256Y-103152390D02*
X142287446Y-103228580D01*
X142287446Y-103228580D02*
X142325541Y-103304771D01*
X142325541Y-103304771D02*
X142363637Y-103457152D01*
X142363637Y-103457152D02*
X142363637Y-103571438D01*
X142363637Y-103571438D02*
X142325541Y-103723819D01*
X142325541Y-103723819D02*
X142287446Y-103800009D01*
X142287446Y-103800009D02*
X142211256Y-103876200D01*
X142211256Y-103876200D02*
X142096970Y-103914295D01*
X142096970Y-103914295D02*
X141906494Y-103914295D01*
X142706494Y-103914295D02*
X142706494Y-103114295D01*
X143049350Y-103876200D02*
X143163636Y-103914295D01*
X143163636Y-103914295D02*
X143354112Y-103914295D01*
X143354112Y-103914295D02*
X143430303Y-103876200D01*
X143430303Y-103876200D02*
X143468398Y-103838104D01*
X143468398Y-103838104D02*
X143506493Y-103761914D01*
X143506493Y-103761914D02*
X143506493Y-103685723D01*
X143506493Y-103685723D02*
X143468398Y-103609533D01*
X143468398Y-103609533D02*
X143430303Y-103571438D01*
X143430303Y-103571438D02*
X143354112Y-103533342D01*
X143354112Y-103533342D02*
X143201731Y-103495247D01*
X143201731Y-103495247D02*
X143125541Y-103457152D01*
X143125541Y-103457152D02*
X143087446Y-103419057D01*
X143087446Y-103419057D02*
X143049350Y-103342866D01*
X143049350Y-103342866D02*
X143049350Y-103266676D01*
X143049350Y-103266676D02*
X143087446Y-103190485D01*
X143087446Y-103190485D02*
X143125541Y-103152390D01*
X143125541Y-103152390D02*
X143201731Y-103114295D01*
X143201731Y-103114295D02*
X143392208Y-103114295D01*
X143392208Y-103114295D02*
X143506493Y-103152390D01*
X143849351Y-103914295D02*
X143849351Y-103114295D01*
X143849351Y-103114295D02*
X144154113Y-103114295D01*
X144154113Y-103114295D02*
X144230303Y-103152390D01*
X144230303Y-103152390D02*
X144268398Y-103190485D01*
X144268398Y-103190485D02*
X144306494Y-103266676D01*
X144306494Y-103266676D02*
X144306494Y-103380961D01*
X144306494Y-103380961D02*
X144268398Y-103457152D01*
X144268398Y-103457152D02*
X144230303Y-103495247D01*
X144230303Y-103495247D02*
X144154113Y-103533342D01*
X144154113Y-103533342D02*
X143849351Y-103533342D01*
X151292112Y-103814295D02*
X150911160Y-103814295D01*
X150911160Y-103814295D02*
X150911160Y-103014295D01*
X151520683Y-103090485D02*
X151558779Y-103052390D01*
X151558779Y-103052390D02*
X151634969Y-103014295D01*
X151634969Y-103014295D02*
X151825445Y-103014295D01*
X151825445Y-103014295D02*
X151901636Y-103052390D01*
X151901636Y-103052390D02*
X151939731Y-103090485D01*
X151939731Y-103090485D02*
X151977826Y-103166676D01*
X151977826Y-103166676D02*
X151977826Y-103242866D01*
X151977826Y-103242866D02*
X151939731Y-103357152D01*
X151939731Y-103357152D02*
X151482588Y-103814295D01*
X151482588Y-103814295D02*
X151977826Y-103814295D01*
X152320684Y-103814295D02*
X152320684Y-103014295D01*
X152320684Y-103014295D02*
X152587350Y-103585723D01*
X152587350Y-103585723D02*
X152854017Y-103014295D01*
X152854017Y-103014295D02*
X152854017Y-103814295D01*
X153844494Y-103814295D02*
X153844494Y-103014295D01*
X153844494Y-103014295D02*
X154034970Y-103014295D01*
X154034970Y-103014295D02*
X154149256Y-103052390D01*
X154149256Y-103052390D02*
X154225446Y-103128580D01*
X154225446Y-103128580D02*
X154263541Y-103204771D01*
X154263541Y-103204771D02*
X154301637Y-103357152D01*
X154301637Y-103357152D02*
X154301637Y-103471438D01*
X154301637Y-103471438D02*
X154263541Y-103623819D01*
X154263541Y-103623819D02*
X154225446Y-103700009D01*
X154225446Y-103700009D02*
X154149256Y-103776200D01*
X154149256Y-103776200D02*
X154034970Y-103814295D01*
X154034970Y-103814295D02*
X153844494Y-103814295D01*
X154644494Y-103814295D02*
X154644494Y-103014295D01*
X154987350Y-103776200D02*
X155101636Y-103814295D01*
X155101636Y-103814295D02*
X155292112Y-103814295D01*
X155292112Y-103814295D02*
X155368303Y-103776200D01*
X155368303Y-103776200D02*
X155406398Y-103738104D01*
X155406398Y-103738104D02*
X155444493Y-103661914D01*
X155444493Y-103661914D02*
X155444493Y-103585723D01*
X155444493Y-103585723D02*
X155406398Y-103509533D01*
X155406398Y-103509533D02*
X155368303Y-103471438D01*
X155368303Y-103471438D02*
X155292112Y-103433342D01*
X155292112Y-103433342D02*
X155139731Y-103395247D01*
X155139731Y-103395247D02*
X155063541Y-103357152D01*
X155063541Y-103357152D02*
X155025446Y-103319057D01*
X155025446Y-103319057D02*
X154987350Y-103242866D01*
X154987350Y-103242866D02*
X154987350Y-103166676D01*
X154987350Y-103166676D02*
X155025446Y-103090485D01*
X155025446Y-103090485D02*
X155063541Y-103052390D01*
X155063541Y-103052390D02*
X155139731Y-103014295D01*
X155139731Y-103014295D02*
X155330208Y-103014295D01*
X155330208Y-103014295D02*
X155444493Y-103052390D01*
X155787351Y-103814295D02*
X155787351Y-103014295D01*
X155787351Y-103014295D02*
X156092113Y-103014295D01*
X156092113Y-103014295D02*
X156168303Y-103052390D01*
X156168303Y-103052390D02*
X156206398Y-103090485D01*
X156206398Y-103090485D02*
X156244494Y-103166676D01*
X156244494Y-103166676D02*
X156244494Y-103280961D01*
X156244494Y-103280961D02*
X156206398Y-103357152D01*
X156206398Y-103357152D02*
X156168303Y-103395247D01*
X156168303Y-103395247D02*
X156092113Y-103433342D01*
X156092113Y-103433342D02*
X155787351Y-103433342D01*
X147188666Y-100544819D02*
X147188666Y-101259104D01*
X147188666Y-101259104D02*
X147141047Y-101401961D01*
X147141047Y-101401961D02*
X147045809Y-101497200D01*
X147045809Y-101497200D02*
X146902952Y-101544819D01*
X146902952Y-101544819D02*
X146807714Y-101544819D01*
X147569619Y-100544819D02*
X148188666Y-100544819D01*
X148188666Y-100544819D02*
X147855333Y-100925771D01*
X147855333Y-100925771D02*
X147998190Y-100925771D01*
X147998190Y-100925771D02*
X148093428Y-100973390D01*
X148093428Y-100973390D02*
X148141047Y-101021009D01*
X148141047Y-101021009D02*
X148188666Y-101116247D01*
X148188666Y-101116247D02*
X148188666Y-101354342D01*
X148188666Y-101354342D02*
X148141047Y-101449580D01*
X148141047Y-101449580D02*
X148093428Y-101497200D01*
X148093428Y-101497200D02*
X147998190Y-101544819D01*
X147998190Y-101544819D02*
X147712476Y-101544819D01*
X147712476Y-101544819D02*
X147617238Y-101497200D01*
X147617238Y-101497200D02*
X147569619Y-101449580D01*
X117030143Y-131153819D02*
X117030143Y-130153819D01*
X117030143Y-130153819D02*
X117268238Y-130153819D01*
X117268238Y-130153819D02*
X117411095Y-130201438D01*
X117411095Y-130201438D02*
X117506333Y-130296676D01*
X117506333Y-130296676D02*
X117553952Y-130391914D01*
X117553952Y-130391914D02*
X117601571Y-130582390D01*
X117601571Y-130582390D02*
X117601571Y-130725247D01*
X117601571Y-130725247D02*
X117553952Y-130915723D01*
X117553952Y-130915723D02*
X117506333Y-131010961D01*
X117506333Y-131010961D02*
X117411095Y-131106200D01*
X117411095Y-131106200D02*
X117268238Y-131153819D01*
X117268238Y-131153819D02*
X117030143Y-131153819D01*
X117982524Y-131106200D02*
X118125381Y-131153819D01*
X118125381Y-131153819D02*
X118363476Y-131153819D01*
X118363476Y-131153819D02*
X118458714Y-131106200D01*
X118458714Y-131106200D02*
X118506333Y-131058580D01*
X118506333Y-131058580D02*
X118553952Y-130963342D01*
X118553952Y-130963342D02*
X118553952Y-130868104D01*
X118553952Y-130868104D02*
X118506333Y-130772866D01*
X118506333Y-130772866D02*
X118458714Y-130725247D01*
X118458714Y-130725247D02*
X118363476Y-130677628D01*
X118363476Y-130677628D02*
X118173000Y-130630009D01*
X118173000Y-130630009D02*
X118077762Y-130582390D01*
X118077762Y-130582390D02*
X118030143Y-130534771D01*
X118030143Y-130534771D02*
X117982524Y-130439533D01*
X117982524Y-130439533D02*
X117982524Y-130344295D01*
X117982524Y-130344295D02*
X118030143Y-130249057D01*
X118030143Y-130249057D02*
X118077762Y-130201438D01*
X118077762Y-130201438D02*
X118173000Y-130153819D01*
X118173000Y-130153819D02*
X118411095Y-130153819D01*
X118411095Y-130153819D02*
X118553952Y-130201438D01*
X118982524Y-131153819D02*
X118982524Y-130153819D01*
X119982523Y-131153819D02*
X119411095Y-131153819D01*
X119696809Y-131153819D02*
X119696809Y-130153819D01*
X119696809Y-130153819D02*
X119601571Y-130296676D01*
X119601571Y-130296676D02*
X119506333Y-130391914D01*
X119506333Y-130391914D02*
X119411095Y-130439533D01*
X120173000Y-131249057D02*
X120934904Y-131249057D01*
X121649190Y-131153819D02*
X121173000Y-131153819D01*
X121173000Y-131153819D02*
X121173000Y-130153819D01*
X121982524Y-131153819D02*
X121982524Y-130153819D01*
X121982524Y-130153819D02*
X122553952Y-131153819D01*
X122553952Y-131153819D02*
X122553952Y-130153819D01*
X122934905Y-130153819D02*
X123553952Y-130153819D01*
X123553952Y-130153819D02*
X123220619Y-130534771D01*
X123220619Y-130534771D02*
X123363476Y-130534771D01*
X123363476Y-130534771D02*
X123458714Y-130582390D01*
X123458714Y-130582390D02*
X123506333Y-130630009D01*
X123506333Y-130630009D02*
X123553952Y-130725247D01*
X123553952Y-130725247D02*
X123553952Y-130963342D01*
X123553952Y-130963342D02*
X123506333Y-131058580D01*
X123506333Y-131058580D02*
X123458714Y-131106200D01*
X123458714Y-131106200D02*
X123363476Y-131153819D01*
X123363476Y-131153819D02*
X123077762Y-131153819D01*
X123077762Y-131153819D02*
X122982524Y-131106200D01*
X122982524Y-131106200D02*
X122934905Y-131058580D01*
X123744429Y-131249057D02*
X124506333Y-131249057D01*
X124744429Y-131153819D02*
X124744429Y-130153819D01*
X124744429Y-130153819D02*
X125315857Y-131153819D01*
X125315857Y-131153819D02*
X125315857Y-130153819D01*
X100832952Y-131031819D02*
X100832952Y-130031819D01*
X100832952Y-130031819D02*
X101071047Y-130031819D01*
X101071047Y-130031819D02*
X101213904Y-130079438D01*
X101213904Y-130079438D02*
X101309142Y-130174676D01*
X101309142Y-130174676D02*
X101356761Y-130269914D01*
X101356761Y-130269914D02*
X101404380Y-130460390D01*
X101404380Y-130460390D02*
X101404380Y-130603247D01*
X101404380Y-130603247D02*
X101356761Y-130793723D01*
X101356761Y-130793723D02*
X101309142Y-130888961D01*
X101309142Y-130888961D02*
X101213904Y-130984200D01*
X101213904Y-130984200D02*
X101071047Y-131031819D01*
X101071047Y-131031819D02*
X100832952Y-131031819D01*
X101785333Y-130984200D02*
X101928190Y-131031819D01*
X101928190Y-131031819D02*
X102166285Y-131031819D01*
X102166285Y-131031819D02*
X102261523Y-130984200D01*
X102261523Y-130984200D02*
X102309142Y-130936580D01*
X102309142Y-130936580D02*
X102356761Y-130841342D01*
X102356761Y-130841342D02*
X102356761Y-130746104D01*
X102356761Y-130746104D02*
X102309142Y-130650866D01*
X102309142Y-130650866D02*
X102261523Y-130603247D01*
X102261523Y-130603247D02*
X102166285Y-130555628D01*
X102166285Y-130555628D02*
X101975809Y-130508009D01*
X101975809Y-130508009D02*
X101880571Y-130460390D01*
X101880571Y-130460390D02*
X101832952Y-130412771D01*
X101832952Y-130412771D02*
X101785333Y-130317533D01*
X101785333Y-130317533D02*
X101785333Y-130222295D01*
X101785333Y-130222295D02*
X101832952Y-130127057D01*
X101832952Y-130127057D02*
X101880571Y-130079438D01*
X101880571Y-130079438D02*
X101975809Y-130031819D01*
X101975809Y-130031819D02*
X102213904Y-130031819D01*
X102213904Y-130031819D02*
X102356761Y-130079438D01*
X102785333Y-131031819D02*
X102785333Y-130031819D01*
X103785332Y-131031819D02*
X103213904Y-131031819D01*
X103499618Y-131031819D02*
X103499618Y-130031819D01*
X103499618Y-130031819D02*
X103404380Y-130174676D01*
X103404380Y-130174676D02*
X103309142Y-130269914D01*
X103309142Y-130269914D02*
X103213904Y-130317533D01*
X103975809Y-131127057D02*
X104737713Y-131127057D01*
X105451999Y-131031819D02*
X104975809Y-131031819D01*
X104975809Y-131031819D02*
X104975809Y-130031819D01*
X105785333Y-131031819D02*
X105785333Y-130031819D01*
X105785333Y-130031819D02*
X106356761Y-131031819D01*
X106356761Y-131031819D02*
X106356761Y-130031819D01*
X106737714Y-130031819D02*
X107356761Y-130031819D01*
X107356761Y-130031819D02*
X107023428Y-130412771D01*
X107023428Y-130412771D02*
X107166285Y-130412771D01*
X107166285Y-130412771D02*
X107261523Y-130460390D01*
X107261523Y-130460390D02*
X107309142Y-130508009D01*
X107309142Y-130508009D02*
X107356761Y-130603247D01*
X107356761Y-130603247D02*
X107356761Y-130841342D01*
X107356761Y-130841342D02*
X107309142Y-130936580D01*
X107309142Y-130936580D02*
X107261523Y-130984200D01*
X107261523Y-130984200D02*
X107166285Y-131031819D01*
X107166285Y-131031819D02*
X106880571Y-131031819D01*
X106880571Y-131031819D02*
X106785333Y-130984200D01*
X106785333Y-130984200D02*
X106737714Y-130936580D01*
X107547238Y-131127057D02*
X108309142Y-131127057D01*
X108547238Y-131031819D02*
X108547238Y-130031819D01*
X108547238Y-130031819D02*
X108928190Y-130031819D01*
X108928190Y-130031819D02*
X109023428Y-130079438D01*
X109023428Y-130079438D02*
X109071047Y-130127057D01*
X109071047Y-130127057D02*
X109118666Y-130222295D01*
X109118666Y-130222295D02*
X109118666Y-130365152D01*
X109118666Y-130365152D02*
X109071047Y-130460390D01*
X109071047Y-130460390D02*
X109023428Y-130508009D01*
X109023428Y-130508009D02*
X108928190Y-130555628D01*
X108928190Y-130555628D02*
X108547238Y-130555628D01*
X116959143Y-114945819D02*
X116959143Y-113945819D01*
X116959143Y-113945819D02*
X117197238Y-113945819D01*
X117197238Y-113945819D02*
X117340095Y-113993438D01*
X117340095Y-113993438D02*
X117435333Y-114088676D01*
X117435333Y-114088676D02*
X117482952Y-114183914D01*
X117482952Y-114183914D02*
X117530571Y-114374390D01*
X117530571Y-114374390D02*
X117530571Y-114517247D01*
X117530571Y-114517247D02*
X117482952Y-114707723D01*
X117482952Y-114707723D02*
X117435333Y-114802961D01*
X117435333Y-114802961D02*
X117340095Y-114898200D01*
X117340095Y-114898200D02*
X117197238Y-114945819D01*
X117197238Y-114945819D02*
X116959143Y-114945819D01*
X117911524Y-114898200D02*
X118054381Y-114945819D01*
X118054381Y-114945819D02*
X118292476Y-114945819D01*
X118292476Y-114945819D02*
X118387714Y-114898200D01*
X118387714Y-114898200D02*
X118435333Y-114850580D01*
X118435333Y-114850580D02*
X118482952Y-114755342D01*
X118482952Y-114755342D02*
X118482952Y-114660104D01*
X118482952Y-114660104D02*
X118435333Y-114564866D01*
X118435333Y-114564866D02*
X118387714Y-114517247D01*
X118387714Y-114517247D02*
X118292476Y-114469628D01*
X118292476Y-114469628D02*
X118102000Y-114422009D01*
X118102000Y-114422009D02*
X118006762Y-114374390D01*
X118006762Y-114374390D02*
X117959143Y-114326771D01*
X117959143Y-114326771D02*
X117911524Y-114231533D01*
X117911524Y-114231533D02*
X117911524Y-114136295D01*
X117911524Y-114136295D02*
X117959143Y-114041057D01*
X117959143Y-114041057D02*
X118006762Y-113993438D01*
X118006762Y-113993438D02*
X118102000Y-113945819D01*
X118102000Y-113945819D02*
X118340095Y-113945819D01*
X118340095Y-113945819D02*
X118482952Y-113993438D01*
X118911524Y-114945819D02*
X118911524Y-113945819D01*
X119911523Y-114945819D02*
X119340095Y-114945819D01*
X119625809Y-114945819D02*
X119625809Y-113945819D01*
X119625809Y-113945819D02*
X119530571Y-114088676D01*
X119530571Y-114088676D02*
X119435333Y-114183914D01*
X119435333Y-114183914D02*
X119340095Y-114231533D01*
X120102000Y-115041057D02*
X120863904Y-115041057D01*
X121578190Y-114945819D02*
X121102000Y-114945819D01*
X121102000Y-114945819D02*
X121102000Y-113945819D01*
X121911524Y-114945819D02*
X121911524Y-113945819D01*
X121911524Y-113945819D02*
X122482952Y-114945819D01*
X122482952Y-114945819D02*
X122482952Y-113945819D01*
X122911524Y-114041057D02*
X122959143Y-113993438D01*
X122959143Y-113993438D02*
X123054381Y-113945819D01*
X123054381Y-113945819D02*
X123292476Y-113945819D01*
X123292476Y-113945819D02*
X123387714Y-113993438D01*
X123387714Y-113993438D02*
X123435333Y-114041057D01*
X123435333Y-114041057D02*
X123482952Y-114136295D01*
X123482952Y-114136295D02*
X123482952Y-114231533D01*
X123482952Y-114231533D02*
X123435333Y-114374390D01*
X123435333Y-114374390D02*
X122863905Y-114945819D01*
X122863905Y-114945819D02*
X123482952Y-114945819D01*
X123673429Y-115041057D02*
X124435333Y-115041057D01*
X124673429Y-114945819D02*
X124673429Y-113945819D01*
X124673429Y-113945819D02*
X125244857Y-114945819D01*
X125244857Y-114945819D02*
X125244857Y-113945819D01*
X100811952Y-115053819D02*
X100811952Y-114053819D01*
X100811952Y-114053819D02*
X101050047Y-114053819D01*
X101050047Y-114053819D02*
X101192904Y-114101438D01*
X101192904Y-114101438D02*
X101288142Y-114196676D01*
X101288142Y-114196676D02*
X101335761Y-114291914D01*
X101335761Y-114291914D02*
X101383380Y-114482390D01*
X101383380Y-114482390D02*
X101383380Y-114625247D01*
X101383380Y-114625247D02*
X101335761Y-114815723D01*
X101335761Y-114815723D02*
X101288142Y-114910961D01*
X101288142Y-114910961D02*
X101192904Y-115006200D01*
X101192904Y-115006200D02*
X101050047Y-115053819D01*
X101050047Y-115053819D02*
X100811952Y-115053819D01*
X101764333Y-115006200D02*
X101907190Y-115053819D01*
X101907190Y-115053819D02*
X102145285Y-115053819D01*
X102145285Y-115053819D02*
X102240523Y-115006200D01*
X102240523Y-115006200D02*
X102288142Y-114958580D01*
X102288142Y-114958580D02*
X102335761Y-114863342D01*
X102335761Y-114863342D02*
X102335761Y-114768104D01*
X102335761Y-114768104D02*
X102288142Y-114672866D01*
X102288142Y-114672866D02*
X102240523Y-114625247D01*
X102240523Y-114625247D02*
X102145285Y-114577628D01*
X102145285Y-114577628D02*
X101954809Y-114530009D01*
X101954809Y-114530009D02*
X101859571Y-114482390D01*
X101859571Y-114482390D02*
X101811952Y-114434771D01*
X101811952Y-114434771D02*
X101764333Y-114339533D01*
X101764333Y-114339533D02*
X101764333Y-114244295D01*
X101764333Y-114244295D02*
X101811952Y-114149057D01*
X101811952Y-114149057D02*
X101859571Y-114101438D01*
X101859571Y-114101438D02*
X101954809Y-114053819D01*
X101954809Y-114053819D02*
X102192904Y-114053819D01*
X102192904Y-114053819D02*
X102335761Y-114101438D01*
X102764333Y-115053819D02*
X102764333Y-114053819D01*
X103764332Y-115053819D02*
X103192904Y-115053819D01*
X103478618Y-115053819D02*
X103478618Y-114053819D01*
X103478618Y-114053819D02*
X103383380Y-114196676D01*
X103383380Y-114196676D02*
X103288142Y-114291914D01*
X103288142Y-114291914D02*
X103192904Y-114339533D01*
X103954809Y-115149057D02*
X104716713Y-115149057D01*
X105430999Y-115053819D02*
X104954809Y-115053819D01*
X104954809Y-115053819D02*
X104954809Y-114053819D01*
X105764333Y-115053819D02*
X105764333Y-114053819D01*
X105764333Y-114053819D02*
X106335761Y-115053819D01*
X106335761Y-115053819D02*
X106335761Y-114053819D01*
X106764333Y-114149057D02*
X106811952Y-114101438D01*
X106811952Y-114101438D02*
X106907190Y-114053819D01*
X106907190Y-114053819D02*
X107145285Y-114053819D01*
X107145285Y-114053819D02*
X107240523Y-114101438D01*
X107240523Y-114101438D02*
X107288142Y-114149057D01*
X107288142Y-114149057D02*
X107335761Y-114244295D01*
X107335761Y-114244295D02*
X107335761Y-114339533D01*
X107335761Y-114339533D02*
X107288142Y-114482390D01*
X107288142Y-114482390D02*
X106716714Y-115053819D01*
X106716714Y-115053819D02*
X107335761Y-115053819D01*
X107526238Y-115149057D02*
X108288142Y-115149057D01*
X108526238Y-115053819D02*
X108526238Y-114053819D01*
X108526238Y-114053819D02*
X108907190Y-114053819D01*
X108907190Y-114053819D02*
X109002428Y-114101438D01*
X109002428Y-114101438D02*
X109050047Y-114149057D01*
X109050047Y-114149057D02*
X109097666Y-114244295D01*
X109097666Y-114244295D02*
X109097666Y-114387152D01*
X109097666Y-114387152D02*
X109050047Y-114482390D01*
X109050047Y-114482390D02*
X109002428Y-114530009D01*
X109002428Y-114530009D02*
X108907190Y-114577628D01*
X108907190Y-114577628D02*
X108526238Y-114577628D01*
X117080143Y-98397819D02*
X117080143Y-97397819D01*
X117080143Y-97397819D02*
X117318238Y-97397819D01*
X117318238Y-97397819D02*
X117461095Y-97445438D01*
X117461095Y-97445438D02*
X117556333Y-97540676D01*
X117556333Y-97540676D02*
X117603952Y-97635914D01*
X117603952Y-97635914D02*
X117651571Y-97826390D01*
X117651571Y-97826390D02*
X117651571Y-97969247D01*
X117651571Y-97969247D02*
X117603952Y-98159723D01*
X117603952Y-98159723D02*
X117556333Y-98254961D01*
X117556333Y-98254961D02*
X117461095Y-98350200D01*
X117461095Y-98350200D02*
X117318238Y-98397819D01*
X117318238Y-98397819D02*
X117080143Y-98397819D01*
X118032524Y-98350200D02*
X118175381Y-98397819D01*
X118175381Y-98397819D02*
X118413476Y-98397819D01*
X118413476Y-98397819D02*
X118508714Y-98350200D01*
X118508714Y-98350200D02*
X118556333Y-98302580D01*
X118556333Y-98302580D02*
X118603952Y-98207342D01*
X118603952Y-98207342D02*
X118603952Y-98112104D01*
X118603952Y-98112104D02*
X118556333Y-98016866D01*
X118556333Y-98016866D02*
X118508714Y-97969247D01*
X118508714Y-97969247D02*
X118413476Y-97921628D01*
X118413476Y-97921628D02*
X118223000Y-97874009D01*
X118223000Y-97874009D02*
X118127762Y-97826390D01*
X118127762Y-97826390D02*
X118080143Y-97778771D01*
X118080143Y-97778771D02*
X118032524Y-97683533D01*
X118032524Y-97683533D02*
X118032524Y-97588295D01*
X118032524Y-97588295D02*
X118080143Y-97493057D01*
X118080143Y-97493057D02*
X118127762Y-97445438D01*
X118127762Y-97445438D02*
X118223000Y-97397819D01*
X118223000Y-97397819D02*
X118461095Y-97397819D01*
X118461095Y-97397819D02*
X118603952Y-97445438D01*
X119032524Y-98397819D02*
X119032524Y-97397819D01*
X120032523Y-98397819D02*
X119461095Y-98397819D01*
X119746809Y-98397819D02*
X119746809Y-97397819D01*
X119746809Y-97397819D02*
X119651571Y-97540676D01*
X119651571Y-97540676D02*
X119556333Y-97635914D01*
X119556333Y-97635914D02*
X119461095Y-97683533D01*
X120223000Y-98493057D02*
X120984904Y-98493057D01*
X121794428Y-98302580D02*
X121746809Y-98350200D01*
X121746809Y-98350200D02*
X121603952Y-98397819D01*
X121603952Y-98397819D02*
X121508714Y-98397819D01*
X121508714Y-98397819D02*
X121365857Y-98350200D01*
X121365857Y-98350200D02*
X121270619Y-98254961D01*
X121270619Y-98254961D02*
X121223000Y-98159723D01*
X121223000Y-98159723D02*
X121175381Y-97969247D01*
X121175381Y-97969247D02*
X121175381Y-97826390D01*
X121175381Y-97826390D02*
X121223000Y-97635914D01*
X121223000Y-97635914D02*
X121270619Y-97540676D01*
X121270619Y-97540676D02*
X121365857Y-97445438D01*
X121365857Y-97445438D02*
X121508714Y-97397819D01*
X121508714Y-97397819D02*
X121603952Y-97397819D01*
X121603952Y-97397819D02*
X121746809Y-97445438D01*
X121746809Y-97445438D02*
X121794428Y-97493057D01*
X122699190Y-98397819D02*
X122223000Y-98397819D01*
X122223000Y-98397819D02*
X122223000Y-97397819D01*
X123032524Y-98397819D02*
X123032524Y-97397819D01*
X123603952Y-98397819D02*
X123175381Y-97826390D01*
X123603952Y-97397819D02*
X123032524Y-97969247D01*
X123794429Y-98493057D02*
X124556333Y-98493057D01*
X124794429Y-98397819D02*
X124794429Y-97397819D01*
X124794429Y-97397819D02*
X125365857Y-98397819D01*
X125365857Y-98397819D02*
X125365857Y-97397819D01*
X100782952Y-98645819D02*
X100782952Y-97645819D01*
X100782952Y-97645819D02*
X101021047Y-97645819D01*
X101021047Y-97645819D02*
X101163904Y-97693438D01*
X101163904Y-97693438D02*
X101259142Y-97788676D01*
X101259142Y-97788676D02*
X101306761Y-97883914D01*
X101306761Y-97883914D02*
X101354380Y-98074390D01*
X101354380Y-98074390D02*
X101354380Y-98217247D01*
X101354380Y-98217247D02*
X101306761Y-98407723D01*
X101306761Y-98407723D02*
X101259142Y-98502961D01*
X101259142Y-98502961D02*
X101163904Y-98598200D01*
X101163904Y-98598200D02*
X101021047Y-98645819D01*
X101021047Y-98645819D02*
X100782952Y-98645819D01*
X101735333Y-98598200D02*
X101878190Y-98645819D01*
X101878190Y-98645819D02*
X102116285Y-98645819D01*
X102116285Y-98645819D02*
X102211523Y-98598200D01*
X102211523Y-98598200D02*
X102259142Y-98550580D01*
X102259142Y-98550580D02*
X102306761Y-98455342D01*
X102306761Y-98455342D02*
X102306761Y-98360104D01*
X102306761Y-98360104D02*
X102259142Y-98264866D01*
X102259142Y-98264866D02*
X102211523Y-98217247D01*
X102211523Y-98217247D02*
X102116285Y-98169628D01*
X102116285Y-98169628D02*
X101925809Y-98122009D01*
X101925809Y-98122009D02*
X101830571Y-98074390D01*
X101830571Y-98074390D02*
X101782952Y-98026771D01*
X101782952Y-98026771D02*
X101735333Y-97931533D01*
X101735333Y-97931533D02*
X101735333Y-97836295D01*
X101735333Y-97836295D02*
X101782952Y-97741057D01*
X101782952Y-97741057D02*
X101830571Y-97693438D01*
X101830571Y-97693438D02*
X101925809Y-97645819D01*
X101925809Y-97645819D02*
X102163904Y-97645819D01*
X102163904Y-97645819D02*
X102306761Y-97693438D01*
X102735333Y-98645819D02*
X102735333Y-97645819D01*
X103735332Y-98645819D02*
X103163904Y-98645819D01*
X103449618Y-98645819D02*
X103449618Y-97645819D01*
X103449618Y-97645819D02*
X103354380Y-97788676D01*
X103354380Y-97788676D02*
X103259142Y-97883914D01*
X103259142Y-97883914D02*
X103163904Y-97931533D01*
X103925809Y-98741057D02*
X104687713Y-98741057D01*
X105497237Y-98550580D02*
X105449618Y-98598200D01*
X105449618Y-98598200D02*
X105306761Y-98645819D01*
X105306761Y-98645819D02*
X105211523Y-98645819D01*
X105211523Y-98645819D02*
X105068666Y-98598200D01*
X105068666Y-98598200D02*
X104973428Y-98502961D01*
X104973428Y-98502961D02*
X104925809Y-98407723D01*
X104925809Y-98407723D02*
X104878190Y-98217247D01*
X104878190Y-98217247D02*
X104878190Y-98074390D01*
X104878190Y-98074390D02*
X104925809Y-97883914D01*
X104925809Y-97883914D02*
X104973428Y-97788676D01*
X104973428Y-97788676D02*
X105068666Y-97693438D01*
X105068666Y-97693438D02*
X105211523Y-97645819D01*
X105211523Y-97645819D02*
X105306761Y-97645819D01*
X105306761Y-97645819D02*
X105449618Y-97693438D01*
X105449618Y-97693438D02*
X105497237Y-97741057D01*
X106401999Y-98645819D02*
X105925809Y-98645819D01*
X105925809Y-98645819D02*
X105925809Y-97645819D01*
X106735333Y-98645819D02*
X106735333Y-97645819D01*
X107306761Y-98645819D02*
X106878190Y-98074390D01*
X107306761Y-97645819D02*
X106735333Y-98217247D01*
X107497238Y-98741057D02*
X108259142Y-98741057D01*
X108497238Y-98645819D02*
X108497238Y-97645819D01*
X108497238Y-97645819D02*
X108878190Y-97645819D01*
X108878190Y-97645819D02*
X108973428Y-97693438D01*
X108973428Y-97693438D02*
X109021047Y-97741057D01*
X109021047Y-97741057D02*
X109068666Y-97836295D01*
X109068666Y-97836295D02*
X109068666Y-97979152D01*
X109068666Y-97979152D02*
X109021047Y-98074390D01*
X109021047Y-98074390D02*
X108973428Y-98122009D01*
X108973428Y-98122009D02*
X108878190Y-98169628D01*
X108878190Y-98169628D02*
X108497238Y-98169628D01*
X116951143Y-82053819D02*
X116951143Y-81053819D01*
X116951143Y-81053819D02*
X117189238Y-81053819D01*
X117189238Y-81053819D02*
X117332095Y-81101438D01*
X117332095Y-81101438D02*
X117427333Y-81196676D01*
X117427333Y-81196676D02*
X117474952Y-81291914D01*
X117474952Y-81291914D02*
X117522571Y-81482390D01*
X117522571Y-81482390D02*
X117522571Y-81625247D01*
X117522571Y-81625247D02*
X117474952Y-81815723D01*
X117474952Y-81815723D02*
X117427333Y-81910961D01*
X117427333Y-81910961D02*
X117332095Y-82006200D01*
X117332095Y-82006200D02*
X117189238Y-82053819D01*
X117189238Y-82053819D02*
X116951143Y-82053819D01*
X117903524Y-82006200D02*
X118046381Y-82053819D01*
X118046381Y-82053819D02*
X118284476Y-82053819D01*
X118284476Y-82053819D02*
X118379714Y-82006200D01*
X118379714Y-82006200D02*
X118427333Y-81958580D01*
X118427333Y-81958580D02*
X118474952Y-81863342D01*
X118474952Y-81863342D02*
X118474952Y-81768104D01*
X118474952Y-81768104D02*
X118427333Y-81672866D01*
X118427333Y-81672866D02*
X118379714Y-81625247D01*
X118379714Y-81625247D02*
X118284476Y-81577628D01*
X118284476Y-81577628D02*
X118094000Y-81530009D01*
X118094000Y-81530009D02*
X117998762Y-81482390D01*
X117998762Y-81482390D02*
X117951143Y-81434771D01*
X117951143Y-81434771D02*
X117903524Y-81339533D01*
X117903524Y-81339533D02*
X117903524Y-81244295D01*
X117903524Y-81244295D02*
X117951143Y-81149057D01*
X117951143Y-81149057D02*
X117998762Y-81101438D01*
X117998762Y-81101438D02*
X118094000Y-81053819D01*
X118094000Y-81053819D02*
X118332095Y-81053819D01*
X118332095Y-81053819D02*
X118474952Y-81101438D01*
X118903524Y-82053819D02*
X118903524Y-81053819D01*
X119903523Y-82053819D02*
X119332095Y-82053819D01*
X119617809Y-82053819D02*
X119617809Y-81053819D01*
X119617809Y-81053819D02*
X119522571Y-81196676D01*
X119522571Y-81196676D02*
X119427333Y-81291914D01*
X119427333Y-81291914D02*
X119332095Y-81339533D01*
X120094000Y-82149057D02*
X120855904Y-82149057D01*
X121570190Y-82053819D02*
X121094000Y-82053819D01*
X121094000Y-82053819D02*
X121094000Y-81053819D01*
X121903524Y-82053819D02*
X121903524Y-81053819D01*
X121903524Y-81053819D02*
X122474952Y-82053819D01*
X122474952Y-82053819D02*
X122474952Y-81053819D01*
X123141619Y-81053819D02*
X123236857Y-81053819D01*
X123236857Y-81053819D02*
X123332095Y-81101438D01*
X123332095Y-81101438D02*
X123379714Y-81149057D01*
X123379714Y-81149057D02*
X123427333Y-81244295D01*
X123427333Y-81244295D02*
X123474952Y-81434771D01*
X123474952Y-81434771D02*
X123474952Y-81672866D01*
X123474952Y-81672866D02*
X123427333Y-81863342D01*
X123427333Y-81863342D02*
X123379714Y-81958580D01*
X123379714Y-81958580D02*
X123332095Y-82006200D01*
X123332095Y-82006200D02*
X123236857Y-82053819D01*
X123236857Y-82053819D02*
X123141619Y-82053819D01*
X123141619Y-82053819D02*
X123046381Y-82006200D01*
X123046381Y-82006200D02*
X122998762Y-81958580D01*
X122998762Y-81958580D02*
X122951143Y-81863342D01*
X122951143Y-81863342D02*
X122903524Y-81672866D01*
X122903524Y-81672866D02*
X122903524Y-81434771D01*
X122903524Y-81434771D02*
X122951143Y-81244295D01*
X122951143Y-81244295D02*
X122998762Y-81149057D01*
X122998762Y-81149057D02*
X123046381Y-81101438D01*
X123046381Y-81101438D02*
X123141619Y-81053819D01*
X123665429Y-82149057D02*
X124427333Y-82149057D01*
X124665429Y-82053819D02*
X124665429Y-81053819D01*
X124665429Y-81053819D02*
X125236857Y-82053819D01*
X125236857Y-82053819D02*
X125236857Y-81053819D01*
X100753952Y-82161819D02*
X100753952Y-81161819D01*
X100753952Y-81161819D02*
X100992047Y-81161819D01*
X100992047Y-81161819D02*
X101134904Y-81209438D01*
X101134904Y-81209438D02*
X101230142Y-81304676D01*
X101230142Y-81304676D02*
X101277761Y-81399914D01*
X101277761Y-81399914D02*
X101325380Y-81590390D01*
X101325380Y-81590390D02*
X101325380Y-81733247D01*
X101325380Y-81733247D02*
X101277761Y-81923723D01*
X101277761Y-81923723D02*
X101230142Y-82018961D01*
X101230142Y-82018961D02*
X101134904Y-82114200D01*
X101134904Y-82114200D02*
X100992047Y-82161819D01*
X100992047Y-82161819D02*
X100753952Y-82161819D01*
X101706333Y-82114200D02*
X101849190Y-82161819D01*
X101849190Y-82161819D02*
X102087285Y-82161819D01*
X102087285Y-82161819D02*
X102182523Y-82114200D01*
X102182523Y-82114200D02*
X102230142Y-82066580D01*
X102230142Y-82066580D02*
X102277761Y-81971342D01*
X102277761Y-81971342D02*
X102277761Y-81876104D01*
X102277761Y-81876104D02*
X102230142Y-81780866D01*
X102230142Y-81780866D02*
X102182523Y-81733247D01*
X102182523Y-81733247D02*
X102087285Y-81685628D01*
X102087285Y-81685628D02*
X101896809Y-81638009D01*
X101896809Y-81638009D02*
X101801571Y-81590390D01*
X101801571Y-81590390D02*
X101753952Y-81542771D01*
X101753952Y-81542771D02*
X101706333Y-81447533D01*
X101706333Y-81447533D02*
X101706333Y-81352295D01*
X101706333Y-81352295D02*
X101753952Y-81257057D01*
X101753952Y-81257057D02*
X101801571Y-81209438D01*
X101801571Y-81209438D02*
X101896809Y-81161819D01*
X101896809Y-81161819D02*
X102134904Y-81161819D01*
X102134904Y-81161819D02*
X102277761Y-81209438D01*
X102706333Y-82161819D02*
X102706333Y-81161819D01*
X103706332Y-82161819D02*
X103134904Y-82161819D01*
X103420618Y-82161819D02*
X103420618Y-81161819D01*
X103420618Y-81161819D02*
X103325380Y-81304676D01*
X103325380Y-81304676D02*
X103230142Y-81399914D01*
X103230142Y-81399914D02*
X103134904Y-81447533D01*
X103896809Y-82257057D02*
X104658713Y-82257057D01*
X105372999Y-82161819D02*
X104896809Y-82161819D01*
X104896809Y-82161819D02*
X104896809Y-81161819D01*
X105706333Y-82161819D02*
X105706333Y-81161819D01*
X105706333Y-81161819D02*
X106277761Y-82161819D01*
X106277761Y-82161819D02*
X106277761Y-81161819D01*
X106944428Y-81161819D02*
X107039666Y-81161819D01*
X107039666Y-81161819D02*
X107134904Y-81209438D01*
X107134904Y-81209438D02*
X107182523Y-81257057D01*
X107182523Y-81257057D02*
X107230142Y-81352295D01*
X107230142Y-81352295D02*
X107277761Y-81542771D01*
X107277761Y-81542771D02*
X107277761Y-81780866D01*
X107277761Y-81780866D02*
X107230142Y-81971342D01*
X107230142Y-81971342D02*
X107182523Y-82066580D01*
X107182523Y-82066580D02*
X107134904Y-82114200D01*
X107134904Y-82114200D02*
X107039666Y-82161819D01*
X107039666Y-82161819D02*
X106944428Y-82161819D01*
X106944428Y-82161819D02*
X106849190Y-82114200D01*
X106849190Y-82114200D02*
X106801571Y-82066580D01*
X106801571Y-82066580D02*
X106753952Y-81971342D01*
X106753952Y-81971342D02*
X106706333Y-81780866D01*
X106706333Y-81780866D02*
X106706333Y-81542771D01*
X106706333Y-81542771D02*
X106753952Y-81352295D01*
X106753952Y-81352295D02*
X106801571Y-81257057D01*
X106801571Y-81257057D02*
X106849190Y-81209438D01*
X106849190Y-81209438D02*
X106944428Y-81161819D01*
X107468238Y-82257057D02*
X108230142Y-82257057D01*
X108468238Y-82161819D02*
X108468238Y-81161819D01*
X108468238Y-81161819D02*
X108849190Y-81161819D01*
X108849190Y-81161819D02*
X108944428Y-81209438D01*
X108944428Y-81209438D02*
X108992047Y-81257057D01*
X108992047Y-81257057D02*
X109039666Y-81352295D01*
X109039666Y-81352295D02*
X109039666Y-81495152D01*
X109039666Y-81495152D02*
X108992047Y-81590390D01*
X108992047Y-81590390D02*
X108944428Y-81638009D01*
X108944428Y-81638009D02*
X108849190Y-81685628D01*
X108849190Y-81685628D02*
X108468238Y-81685628D01*
X117005143Y-65870819D02*
X117005143Y-64870819D01*
X117005143Y-64870819D02*
X117243238Y-64870819D01*
X117243238Y-64870819D02*
X117386095Y-64918438D01*
X117386095Y-64918438D02*
X117481333Y-65013676D01*
X117481333Y-65013676D02*
X117528952Y-65108914D01*
X117528952Y-65108914D02*
X117576571Y-65299390D01*
X117576571Y-65299390D02*
X117576571Y-65442247D01*
X117576571Y-65442247D02*
X117528952Y-65632723D01*
X117528952Y-65632723D02*
X117481333Y-65727961D01*
X117481333Y-65727961D02*
X117386095Y-65823200D01*
X117386095Y-65823200D02*
X117243238Y-65870819D01*
X117243238Y-65870819D02*
X117005143Y-65870819D01*
X117957524Y-65823200D02*
X118100381Y-65870819D01*
X118100381Y-65870819D02*
X118338476Y-65870819D01*
X118338476Y-65870819D02*
X118433714Y-65823200D01*
X118433714Y-65823200D02*
X118481333Y-65775580D01*
X118481333Y-65775580D02*
X118528952Y-65680342D01*
X118528952Y-65680342D02*
X118528952Y-65585104D01*
X118528952Y-65585104D02*
X118481333Y-65489866D01*
X118481333Y-65489866D02*
X118433714Y-65442247D01*
X118433714Y-65442247D02*
X118338476Y-65394628D01*
X118338476Y-65394628D02*
X118148000Y-65347009D01*
X118148000Y-65347009D02*
X118052762Y-65299390D01*
X118052762Y-65299390D02*
X118005143Y-65251771D01*
X118005143Y-65251771D02*
X117957524Y-65156533D01*
X117957524Y-65156533D02*
X117957524Y-65061295D01*
X117957524Y-65061295D02*
X118005143Y-64966057D01*
X118005143Y-64966057D02*
X118052762Y-64918438D01*
X118052762Y-64918438D02*
X118148000Y-64870819D01*
X118148000Y-64870819D02*
X118386095Y-64870819D01*
X118386095Y-64870819D02*
X118528952Y-64918438D01*
X118957524Y-65870819D02*
X118957524Y-64870819D01*
X119957523Y-65870819D02*
X119386095Y-65870819D01*
X119671809Y-65870819D02*
X119671809Y-64870819D01*
X119671809Y-64870819D02*
X119576571Y-65013676D01*
X119576571Y-65013676D02*
X119481333Y-65108914D01*
X119481333Y-65108914D02*
X119386095Y-65156533D01*
X120148000Y-65966057D02*
X120909904Y-65966057D01*
X121624190Y-65870819D02*
X121148000Y-65870819D01*
X121148000Y-65870819D02*
X121148000Y-64870819D01*
X121957524Y-65870819D02*
X121957524Y-64870819D01*
X121957524Y-64870819D02*
X122528952Y-65870819D01*
X122528952Y-65870819D02*
X122528952Y-64870819D01*
X123528952Y-65870819D02*
X122957524Y-65870819D01*
X123243238Y-65870819D02*
X123243238Y-64870819D01*
X123243238Y-64870819D02*
X123148000Y-65013676D01*
X123148000Y-65013676D02*
X123052762Y-65108914D01*
X123052762Y-65108914D02*
X122957524Y-65156533D01*
X123719429Y-65966057D02*
X124481333Y-65966057D01*
X124719429Y-65870819D02*
X124719429Y-64870819D01*
X124719429Y-64870819D02*
X125290857Y-65870819D01*
X125290857Y-65870819D02*
X125290857Y-64870819D01*
X100882952Y-66153819D02*
X100882952Y-65153819D01*
X100882952Y-65153819D02*
X101121047Y-65153819D01*
X101121047Y-65153819D02*
X101263904Y-65201438D01*
X101263904Y-65201438D02*
X101359142Y-65296676D01*
X101359142Y-65296676D02*
X101406761Y-65391914D01*
X101406761Y-65391914D02*
X101454380Y-65582390D01*
X101454380Y-65582390D02*
X101454380Y-65725247D01*
X101454380Y-65725247D02*
X101406761Y-65915723D01*
X101406761Y-65915723D02*
X101359142Y-66010961D01*
X101359142Y-66010961D02*
X101263904Y-66106200D01*
X101263904Y-66106200D02*
X101121047Y-66153819D01*
X101121047Y-66153819D02*
X100882952Y-66153819D01*
X101835333Y-66106200D02*
X101978190Y-66153819D01*
X101978190Y-66153819D02*
X102216285Y-66153819D01*
X102216285Y-66153819D02*
X102311523Y-66106200D01*
X102311523Y-66106200D02*
X102359142Y-66058580D01*
X102359142Y-66058580D02*
X102406761Y-65963342D01*
X102406761Y-65963342D02*
X102406761Y-65868104D01*
X102406761Y-65868104D02*
X102359142Y-65772866D01*
X102359142Y-65772866D02*
X102311523Y-65725247D01*
X102311523Y-65725247D02*
X102216285Y-65677628D01*
X102216285Y-65677628D02*
X102025809Y-65630009D01*
X102025809Y-65630009D02*
X101930571Y-65582390D01*
X101930571Y-65582390D02*
X101882952Y-65534771D01*
X101882952Y-65534771D02*
X101835333Y-65439533D01*
X101835333Y-65439533D02*
X101835333Y-65344295D01*
X101835333Y-65344295D02*
X101882952Y-65249057D01*
X101882952Y-65249057D02*
X101930571Y-65201438D01*
X101930571Y-65201438D02*
X102025809Y-65153819D01*
X102025809Y-65153819D02*
X102263904Y-65153819D01*
X102263904Y-65153819D02*
X102406761Y-65201438D01*
X102835333Y-66153819D02*
X102835333Y-65153819D01*
X103835332Y-66153819D02*
X103263904Y-66153819D01*
X103549618Y-66153819D02*
X103549618Y-65153819D01*
X103549618Y-65153819D02*
X103454380Y-65296676D01*
X103454380Y-65296676D02*
X103359142Y-65391914D01*
X103359142Y-65391914D02*
X103263904Y-65439533D01*
X104025809Y-66249057D02*
X104787713Y-66249057D01*
X105501999Y-66153819D02*
X105025809Y-66153819D01*
X105025809Y-66153819D02*
X105025809Y-65153819D01*
X105835333Y-66153819D02*
X105835333Y-65153819D01*
X105835333Y-65153819D02*
X106406761Y-66153819D01*
X106406761Y-66153819D02*
X106406761Y-65153819D01*
X107406761Y-66153819D02*
X106835333Y-66153819D01*
X107121047Y-66153819D02*
X107121047Y-65153819D01*
X107121047Y-65153819D02*
X107025809Y-65296676D01*
X107025809Y-65296676D02*
X106930571Y-65391914D01*
X106930571Y-65391914D02*
X106835333Y-65439533D01*
X107597238Y-66249057D02*
X108359142Y-66249057D01*
X108597238Y-66153819D02*
X108597238Y-65153819D01*
X108597238Y-65153819D02*
X108978190Y-65153819D01*
X108978190Y-65153819D02*
X109073428Y-65201438D01*
X109073428Y-65201438D02*
X109121047Y-65249057D01*
X109121047Y-65249057D02*
X109168666Y-65344295D01*
X109168666Y-65344295D02*
X109168666Y-65487152D01*
X109168666Y-65487152D02*
X109121047Y-65582390D01*
X109121047Y-65582390D02*
X109073428Y-65630009D01*
X109073428Y-65630009D02*
X108978190Y-65677628D01*
X108978190Y-65677628D02*
X108597238Y-65677628D01*
X84555143Y-66070819D02*
X84555143Y-65070819D01*
X84555143Y-65070819D02*
X84793238Y-65070819D01*
X84793238Y-65070819D02*
X84936095Y-65118438D01*
X84936095Y-65118438D02*
X85031333Y-65213676D01*
X85031333Y-65213676D02*
X85078952Y-65308914D01*
X85078952Y-65308914D02*
X85126571Y-65499390D01*
X85126571Y-65499390D02*
X85126571Y-65642247D01*
X85126571Y-65642247D02*
X85078952Y-65832723D01*
X85078952Y-65832723D02*
X85031333Y-65927961D01*
X85031333Y-65927961D02*
X84936095Y-66023200D01*
X84936095Y-66023200D02*
X84793238Y-66070819D01*
X84793238Y-66070819D02*
X84555143Y-66070819D01*
X85507524Y-66023200D02*
X85650381Y-66070819D01*
X85650381Y-66070819D02*
X85888476Y-66070819D01*
X85888476Y-66070819D02*
X85983714Y-66023200D01*
X85983714Y-66023200D02*
X86031333Y-65975580D01*
X86031333Y-65975580D02*
X86078952Y-65880342D01*
X86078952Y-65880342D02*
X86078952Y-65785104D01*
X86078952Y-65785104D02*
X86031333Y-65689866D01*
X86031333Y-65689866D02*
X85983714Y-65642247D01*
X85983714Y-65642247D02*
X85888476Y-65594628D01*
X85888476Y-65594628D02*
X85698000Y-65547009D01*
X85698000Y-65547009D02*
X85602762Y-65499390D01*
X85602762Y-65499390D02*
X85555143Y-65451771D01*
X85555143Y-65451771D02*
X85507524Y-65356533D01*
X85507524Y-65356533D02*
X85507524Y-65261295D01*
X85507524Y-65261295D02*
X85555143Y-65166057D01*
X85555143Y-65166057D02*
X85602762Y-65118438D01*
X85602762Y-65118438D02*
X85698000Y-65070819D01*
X85698000Y-65070819D02*
X85936095Y-65070819D01*
X85936095Y-65070819D02*
X86078952Y-65118438D01*
X86507524Y-66070819D02*
X86507524Y-65070819D01*
X87174190Y-65070819D02*
X87269428Y-65070819D01*
X87269428Y-65070819D02*
X87364666Y-65118438D01*
X87364666Y-65118438D02*
X87412285Y-65166057D01*
X87412285Y-65166057D02*
X87459904Y-65261295D01*
X87459904Y-65261295D02*
X87507523Y-65451771D01*
X87507523Y-65451771D02*
X87507523Y-65689866D01*
X87507523Y-65689866D02*
X87459904Y-65880342D01*
X87459904Y-65880342D02*
X87412285Y-65975580D01*
X87412285Y-65975580D02*
X87364666Y-66023200D01*
X87364666Y-66023200D02*
X87269428Y-66070819D01*
X87269428Y-66070819D02*
X87174190Y-66070819D01*
X87174190Y-66070819D02*
X87078952Y-66023200D01*
X87078952Y-66023200D02*
X87031333Y-65975580D01*
X87031333Y-65975580D02*
X86983714Y-65880342D01*
X86983714Y-65880342D02*
X86936095Y-65689866D01*
X86936095Y-65689866D02*
X86936095Y-65451771D01*
X86936095Y-65451771D02*
X86983714Y-65261295D01*
X86983714Y-65261295D02*
X87031333Y-65166057D01*
X87031333Y-65166057D02*
X87078952Y-65118438D01*
X87078952Y-65118438D02*
X87174190Y-65070819D01*
X87698000Y-66166057D02*
X88459904Y-66166057D01*
X89174190Y-66070819D02*
X88698000Y-66070819D01*
X88698000Y-66070819D02*
X88698000Y-65070819D01*
X89507524Y-66070819D02*
X89507524Y-65070819D01*
X89507524Y-65070819D02*
X90078952Y-66070819D01*
X90078952Y-66070819D02*
X90078952Y-65070819D01*
X91078952Y-66070819D02*
X90507524Y-66070819D01*
X90793238Y-66070819D02*
X90793238Y-65070819D01*
X90793238Y-65070819D02*
X90698000Y-65213676D01*
X90698000Y-65213676D02*
X90602762Y-65308914D01*
X90602762Y-65308914D02*
X90507524Y-65356533D01*
X91269429Y-66166057D02*
X92031333Y-66166057D01*
X92269429Y-66070819D02*
X92269429Y-65070819D01*
X92269429Y-65070819D02*
X92840857Y-66070819D01*
X92840857Y-66070819D02*
X92840857Y-65070819D01*
X84530143Y-131303819D02*
X84530143Y-130303819D01*
X84530143Y-130303819D02*
X84768238Y-130303819D01*
X84768238Y-130303819D02*
X84911095Y-130351438D01*
X84911095Y-130351438D02*
X85006333Y-130446676D01*
X85006333Y-130446676D02*
X85053952Y-130541914D01*
X85053952Y-130541914D02*
X85101571Y-130732390D01*
X85101571Y-130732390D02*
X85101571Y-130875247D01*
X85101571Y-130875247D02*
X85053952Y-131065723D01*
X85053952Y-131065723D02*
X85006333Y-131160961D01*
X85006333Y-131160961D02*
X84911095Y-131256200D01*
X84911095Y-131256200D02*
X84768238Y-131303819D01*
X84768238Y-131303819D02*
X84530143Y-131303819D01*
X85482524Y-131256200D02*
X85625381Y-131303819D01*
X85625381Y-131303819D02*
X85863476Y-131303819D01*
X85863476Y-131303819D02*
X85958714Y-131256200D01*
X85958714Y-131256200D02*
X86006333Y-131208580D01*
X86006333Y-131208580D02*
X86053952Y-131113342D01*
X86053952Y-131113342D02*
X86053952Y-131018104D01*
X86053952Y-131018104D02*
X86006333Y-130922866D01*
X86006333Y-130922866D02*
X85958714Y-130875247D01*
X85958714Y-130875247D02*
X85863476Y-130827628D01*
X85863476Y-130827628D02*
X85673000Y-130780009D01*
X85673000Y-130780009D02*
X85577762Y-130732390D01*
X85577762Y-130732390D02*
X85530143Y-130684771D01*
X85530143Y-130684771D02*
X85482524Y-130589533D01*
X85482524Y-130589533D02*
X85482524Y-130494295D01*
X85482524Y-130494295D02*
X85530143Y-130399057D01*
X85530143Y-130399057D02*
X85577762Y-130351438D01*
X85577762Y-130351438D02*
X85673000Y-130303819D01*
X85673000Y-130303819D02*
X85911095Y-130303819D01*
X85911095Y-130303819D02*
X86053952Y-130351438D01*
X86482524Y-131303819D02*
X86482524Y-130303819D01*
X87149190Y-130303819D02*
X87244428Y-130303819D01*
X87244428Y-130303819D02*
X87339666Y-130351438D01*
X87339666Y-130351438D02*
X87387285Y-130399057D01*
X87387285Y-130399057D02*
X87434904Y-130494295D01*
X87434904Y-130494295D02*
X87482523Y-130684771D01*
X87482523Y-130684771D02*
X87482523Y-130922866D01*
X87482523Y-130922866D02*
X87434904Y-131113342D01*
X87434904Y-131113342D02*
X87387285Y-131208580D01*
X87387285Y-131208580D02*
X87339666Y-131256200D01*
X87339666Y-131256200D02*
X87244428Y-131303819D01*
X87244428Y-131303819D02*
X87149190Y-131303819D01*
X87149190Y-131303819D02*
X87053952Y-131256200D01*
X87053952Y-131256200D02*
X87006333Y-131208580D01*
X87006333Y-131208580D02*
X86958714Y-131113342D01*
X86958714Y-131113342D02*
X86911095Y-130922866D01*
X86911095Y-130922866D02*
X86911095Y-130684771D01*
X86911095Y-130684771D02*
X86958714Y-130494295D01*
X86958714Y-130494295D02*
X87006333Y-130399057D01*
X87006333Y-130399057D02*
X87053952Y-130351438D01*
X87053952Y-130351438D02*
X87149190Y-130303819D01*
X87673000Y-131399057D02*
X88434904Y-131399057D01*
X89149190Y-131303819D02*
X88673000Y-131303819D01*
X88673000Y-131303819D02*
X88673000Y-130303819D01*
X89482524Y-131303819D02*
X89482524Y-130303819D01*
X89482524Y-130303819D02*
X90053952Y-131303819D01*
X90053952Y-131303819D02*
X90053952Y-130303819D01*
X90434905Y-130303819D02*
X91053952Y-130303819D01*
X91053952Y-130303819D02*
X90720619Y-130684771D01*
X90720619Y-130684771D02*
X90863476Y-130684771D01*
X90863476Y-130684771D02*
X90958714Y-130732390D01*
X90958714Y-130732390D02*
X91006333Y-130780009D01*
X91006333Y-130780009D02*
X91053952Y-130875247D01*
X91053952Y-130875247D02*
X91053952Y-131113342D01*
X91053952Y-131113342D02*
X91006333Y-131208580D01*
X91006333Y-131208580D02*
X90958714Y-131256200D01*
X90958714Y-131256200D02*
X90863476Y-131303819D01*
X90863476Y-131303819D02*
X90577762Y-131303819D01*
X90577762Y-131303819D02*
X90482524Y-131256200D01*
X90482524Y-131256200D02*
X90434905Y-131208580D01*
X91244429Y-131399057D02*
X92006333Y-131399057D01*
X92244429Y-131303819D02*
X92244429Y-130303819D01*
X92244429Y-130303819D02*
X92815857Y-131303819D01*
X92815857Y-131303819D02*
X92815857Y-130303819D01*
X68357952Y-131378819D02*
X68357952Y-130378819D01*
X68357952Y-130378819D02*
X68596047Y-130378819D01*
X68596047Y-130378819D02*
X68738904Y-130426438D01*
X68738904Y-130426438D02*
X68834142Y-130521676D01*
X68834142Y-130521676D02*
X68881761Y-130616914D01*
X68881761Y-130616914D02*
X68929380Y-130807390D01*
X68929380Y-130807390D02*
X68929380Y-130950247D01*
X68929380Y-130950247D02*
X68881761Y-131140723D01*
X68881761Y-131140723D02*
X68834142Y-131235961D01*
X68834142Y-131235961D02*
X68738904Y-131331200D01*
X68738904Y-131331200D02*
X68596047Y-131378819D01*
X68596047Y-131378819D02*
X68357952Y-131378819D01*
X69310333Y-131331200D02*
X69453190Y-131378819D01*
X69453190Y-131378819D02*
X69691285Y-131378819D01*
X69691285Y-131378819D02*
X69786523Y-131331200D01*
X69786523Y-131331200D02*
X69834142Y-131283580D01*
X69834142Y-131283580D02*
X69881761Y-131188342D01*
X69881761Y-131188342D02*
X69881761Y-131093104D01*
X69881761Y-131093104D02*
X69834142Y-130997866D01*
X69834142Y-130997866D02*
X69786523Y-130950247D01*
X69786523Y-130950247D02*
X69691285Y-130902628D01*
X69691285Y-130902628D02*
X69500809Y-130855009D01*
X69500809Y-130855009D02*
X69405571Y-130807390D01*
X69405571Y-130807390D02*
X69357952Y-130759771D01*
X69357952Y-130759771D02*
X69310333Y-130664533D01*
X69310333Y-130664533D02*
X69310333Y-130569295D01*
X69310333Y-130569295D02*
X69357952Y-130474057D01*
X69357952Y-130474057D02*
X69405571Y-130426438D01*
X69405571Y-130426438D02*
X69500809Y-130378819D01*
X69500809Y-130378819D02*
X69738904Y-130378819D01*
X69738904Y-130378819D02*
X69881761Y-130426438D01*
X70310333Y-131378819D02*
X70310333Y-130378819D01*
X70976999Y-130378819D02*
X71072237Y-130378819D01*
X71072237Y-130378819D02*
X71167475Y-130426438D01*
X71167475Y-130426438D02*
X71215094Y-130474057D01*
X71215094Y-130474057D02*
X71262713Y-130569295D01*
X71262713Y-130569295D02*
X71310332Y-130759771D01*
X71310332Y-130759771D02*
X71310332Y-130997866D01*
X71310332Y-130997866D02*
X71262713Y-131188342D01*
X71262713Y-131188342D02*
X71215094Y-131283580D01*
X71215094Y-131283580D02*
X71167475Y-131331200D01*
X71167475Y-131331200D02*
X71072237Y-131378819D01*
X71072237Y-131378819D02*
X70976999Y-131378819D01*
X70976999Y-131378819D02*
X70881761Y-131331200D01*
X70881761Y-131331200D02*
X70834142Y-131283580D01*
X70834142Y-131283580D02*
X70786523Y-131188342D01*
X70786523Y-131188342D02*
X70738904Y-130997866D01*
X70738904Y-130997866D02*
X70738904Y-130759771D01*
X70738904Y-130759771D02*
X70786523Y-130569295D01*
X70786523Y-130569295D02*
X70834142Y-130474057D01*
X70834142Y-130474057D02*
X70881761Y-130426438D01*
X70881761Y-130426438D02*
X70976999Y-130378819D01*
X71500809Y-131474057D02*
X72262713Y-131474057D01*
X72976999Y-131378819D02*
X72500809Y-131378819D01*
X72500809Y-131378819D02*
X72500809Y-130378819D01*
X73310333Y-131378819D02*
X73310333Y-130378819D01*
X73310333Y-130378819D02*
X73881761Y-131378819D01*
X73881761Y-131378819D02*
X73881761Y-130378819D01*
X74262714Y-130378819D02*
X74881761Y-130378819D01*
X74881761Y-130378819D02*
X74548428Y-130759771D01*
X74548428Y-130759771D02*
X74691285Y-130759771D01*
X74691285Y-130759771D02*
X74786523Y-130807390D01*
X74786523Y-130807390D02*
X74834142Y-130855009D01*
X74834142Y-130855009D02*
X74881761Y-130950247D01*
X74881761Y-130950247D02*
X74881761Y-131188342D01*
X74881761Y-131188342D02*
X74834142Y-131283580D01*
X74834142Y-131283580D02*
X74786523Y-131331200D01*
X74786523Y-131331200D02*
X74691285Y-131378819D01*
X74691285Y-131378819D02*
X74405571Y-131378819D01*
X74405571Y-131378819D02*
X74310333Y-131331200D01*
X74310333Y-131331200D02*
X74262714Y-131283580D01*
X75072238Y-131474057D02*
X75834142Y-131474057D01*
X76072238Y-131378819D02*
X76072238Y-130378819D01*
X76072238Y-130378819D02*
X76453190Y-130378819D01*
X76453190Y-130378819D02*
X76548428Y-130426438D01*
X76548428Y-130426438D02*
X76596047Y-130474057D01*
X76596047Y-130474057D02*
X76643666Y-130569295D01*
X76643666Y-130569295D02*
X76643666Y-130712152D01*
X76643666Y-130712152D02*
X76596047Y-130807390D01*
X76596047Y-130807390D02*
X76548428Y-130855009D01*
X76548428Y-130855009D02*
X76453190Y-130902628D01*
X76453190Y-130902628D02*
X76072238Y-130902628D01*
X84609143Y-114995819D02*
X84609143Y-113995819D01*
X84609143Y-113995819D02*
X84847238Y-113995819D01*
X84847238Y-113995819D02*
X84990095Y-114043438D01*
X84990095Y-114043438D02*
X85085333Y-114138676D01*
X85085333Y-114138676D02*
X85132952Y-114233914D01*
X85132952Y-114233914D02*
X85180571Y-114424390D01*
X85180571Y-114424390D02*
X85180571Y-114567247D01*
X85180571Y-114567247D02*
X85132952Y-114757723D01*
X85132952Y-114757723D02*
X85085333Y-114852961D01*
X85085333Y-114852961D02*
X84990095Y-114948200D01*
X84990095Y-114948200D02*
X84847238Y-114995819D01*
X84847238Y-114995819D02*
X84609143Y-114995819D01*
X85561524Y-114948200D02*
X85704381Y-114995819D01*
X85704381Y-114995819D02*
X85942476Y-114995819D01*
X85942476Y-114995819D02*
X86037714Y-114948200D01*
X86037714Y-114948200D02*
X86085333Y-114900580D01*
X86085333Y-114900580D02*
X86132952Y-114805342D01*
X86132952Y-114805342D02*
X86132952Y-114710104D01*
X86132952Y-114710104D02*
X86085333Y-114614866D01*
X86085333Y-114614866D02*
X86037714Y-114567247D01*
X86037714Y-114567247D02*
X85942476Y-114519628D01*
X85942476Y-114519628D02*
X85752000Y-114472009D01*
X85752000Y-114472009D02*
X85656762Y-114424390D01*
X85656762Y-114424390D02*
X85609143Y-114376771D01*
X85609143Y-114376771D02*
X85561524Y-114281533D01*
X85561524Y-114281533D02*
X85561524Y-114186295D01*
X85561524Y-114186295D02*
X85609143Y-114091057D01*
X85609143Y-114091057D02*
X85656762Y-114043438D01*
X85656762Y-114043438D02*
X85752000Y-113995819D01*
X85752000Y-113995819D02*
X85990095Y-113995819D01*
X85990095Y-113995819D02*
X86132952Y-114043438D01*
X86561524Y-114995819D02*
X86561524Y-113995819D01*
X87228190Y-113995819D02*
X87323428Y-113995819D01*
X87323428Y-113995819D02*
X87418666Y-114043438D01*
X87418666Y-114043438D02*
X87466285Y-114091057D01*
X87466285Y-114091057D02*
X87513904Y-114186295D01*
X87513904Y-114186295D02*
X87561523Y-114376771D01*
X87561523Y-114376771D02*
X87561523Y-114614866D01*
X87561523Y-114614866D02*
X87513904Y-114805342D01*
X87513904Y-114805342D02*
X87466285Y-114900580D01*
X87466285Y-114900580D02*
X87418666Y-114948200D01*
X87418666Y-114948200D02*
X87323428Y-114995819D01*
X87323428Y-114995819D02*
X87228190Y-114995819D01*
X87228190Y-114995819D02*
X87132952Y-114948200D01*
X87132952Y-114948200D02*
X87085333Y-114900580D01*
X87085333Y-114900580D02*
X87037714Y-114805342D01*
X87037714Y-114805342D02*
X86990095Y-114614866D01*
X86990095Y-114614866D02*
X86990095Y-114376771D01*
X86990095Y-114376771D02*
X87037714Y-114186295D01*
X87037714Y-114186295D02*
X87085333Y-114091057D01*
X87085333Y-114091057D02*
X87132952Y-114043438D01*
X87132952Y-114043438D02*
X87228190Y-113995819D01*
X87752000Y-115091057D02*
X88513904Y-115091057D01*
X89228190Y-114995819D02*
X88752000Y-114995819D01*
X88752000Y-114995819D02*
X88752000Y-113995819D01*
X89561524Y-114995819D02*
X89561524Y-113995819D01*
X89561524Y-113995819D02*
X90132952Y-114995819D01*
X90132952Y-114995819D02*
X90132952Y-113995819D01*
X90561524Y-114091057D02*
X90609143Y-114043438D01*
X90609143Y-114043438D02*
X90704381Y-113995819D01*
X90704381Y-113995819D02*
X90942476Y-113995819D01*
X90942476Y-113995819D02*
X91037714Y-114043438D01*
X91037714Y-114043438D02*
X91085333Y-114091057D01*
X91085333Y-114091057D02*
X91132952Y-114186295D01*
X91132952Y-114186295D02*
X91132952Y-114281533D01*
X91132952Y-114281533D02*
X91085333Y-114424390D01*
X91085333Y-114424390D02*
X90513905Y-114995819D01*
X90513905Y-114995819D02*
X91132952Y-114995819D01*
X91323429Y-115091057D02*
X92085333Y-115091057D01*
X92323429Y-114995819D02*
X92323429Y-113995819D01*
X92323429Y-113995819D02*
X92894857Y-114995819D01*
X92894857Y-114995819D02*
X92894857Y-113995819D01*
X68411952Y-114945819D02*
X68411952Y-113945819D01*
X68411952Y-113945819D02*
X68650047Y-113945819D01*
X68650047Y-113945819D02*
X68792904Y-113993438D01*
X68792904Y-113993438D02*
X68888142Y-114088676D01*
X68888142Y-114088676D02*
X68935761Y-114183914D01*
X68935761Y-114183914D02*
X68983380Y-114374390D01*
X68983380Y-114374390D02*
X68983380Y-114517247D01*
X68983380Y-114517247D02*
X68935761Y-114707723D01*
X68935761Y-114707723D02*
X68888142Y-114802961D01*
X68888142Y-114802961D02*
X68792904Y-114898200D01*
X68792904Y-114898200D02*
X68650047Y-114945819D01*
X68650047Y-114945819D02*
X68411952Y-114945819D01*
X69364333Y-114898200D02*
X69507190Y-114945819D01*
X69507190Y-114945819D02*
X69745285Y-114945819D01*
X69745285Y-114945819D02*
X69840523Y-114898200D01*
X69840523Y-114898200D02*
X69888142Y-114850580D01*
X69888142Y-114850580D02*
X69935761Y-114755342D01*
X69935761Y-114755342D02*
X69935761Y-114660104D01*
X69935761Y-114660104D02*
X69888142Y-114564866D01*
X69888142Y-114564866D02*
X69840523Y-114517247D01*
X69840523Y-114517247D02*
X69745285Y-114469628D01*
X69745285Y-114469628D02*
X69554809Y-114422009D01*
X69554809Y-114422009D02*
X69459571Y-114374390D01*
X69459571Y-114374390D02*
X69411952Y-114326771D01*
X69411952Y-114326771D02*
X69364333Y-114231533D01*
X69364333Y-114231533D02*
X69364333Y-114136295D01*
X69364333Y-114136295D02*
X69411952Y-114041057D01*
X69411952Y-114041057D02*
X69459571Y-113993438D01*
X69459571Y-113993438D02*
X69554809Y-113945819D01*
X69554809Y-113945819D02*
X69792904Y-113945819D01*
X69792904Y-113945819D02*
X69935761Y-113993438D01*
X70364333Y-114945819D02*
X70364333Y-113945819D01*
X71030999Y-113945819D02*
X71126237Y-113945819D01*
X71126237Y-113945819D02*
X71221475Y-113993438D01*
X71221475Y-113993438D02*
X71269094Y-114041057D01*
X71269094Y-114041057D02*
X71316713Y-114136295D01*
X71316713Y-114136295D02*
X71364332Y-114326771D01*
X71364332Y-114326771D02*
X71364332Y-114564866D01*
X71364332Y-114564866D02*
X71316713Y-114755342D01*
X71316713Y-114755342D02*
X71269094Y-114850580D01*
X71269094Y-114850580D02*
X71221475Y-114898200D01*
X71221475Y-114898200D02*
X71126237Y-114945819D01*
X71126237Y-114945819D02*
X71030999Y-114945819D01*
X71030999Y-114945819D02*
X70935761Y-114898200D01*
X70935761Y-114898200D02*
X70888142Y-114850580D01*
X70888142Y-114850580D02*
X70840523Y-114755342D01*
X70840523Y-114755342D02*
X70792904Y-114564866D01*
X70792904Y-114564866D02*
X70792904Y-114326771D01*
X70792904Y-114326771D02*
X70840523Y-114136295D01*
X70840523Y-114136295D02*
X70888142Y-114041057D01*
X70888142Y-114041057D02*
X70935761Y-113993438D01*
X70935761Y-113993438D02*
X71030999Y-113945819D01*
X71554809Y-115041057D02*
X72316713Y-115041057D01*
X73030999Y-114945819D02*
X72554809Y-114945819D01*
X72554809Y-114945819D02*
X72554809Y-113945819D01*
X73364333Y-114945819D02*
X73364333Y-113945819D01*
X73364333Y-113945819D02*
X73935761Y-114945819D01*
X73935761Y-114945819D02*
X73935761Y-113945819D01*
X74364333Y-114041057D02*
X74411952Y-113993438D01*
X74411952Y-113993438D02*
X74507190Y-113945819D01*
X74507190Y-113945819D02*
X74745285Y-113945819D01*
X74745285Y-113945819D02*
X74840523Y-113993438D01*
X74840523Y-113993438D02*
X74888142Y-114041057D01*
X74888142Y-114041057D02*
X74935761Y-114136295D01*
X74935761Y-114136295D02*
X74935761Y-114231533D01*
X74935761Y-114231533D02*
X74888142Y-114374390D01*
X74888142Y-114374390D02*
X74316714Y-114945819D01*
X74316714Y-114945819D02*
X74935761Y-114945819D01*
X75126238Y-115041057D02*
X75888142Y-115041057D01*
X76126238Y-114945819D02*
X76126238Y-113945819D01*
X76126238Y-113945819D02*
X76507190Y-113945819D01*
X76507190Y-113945819D02*
X76602428Y-113993438D01*
X76602428Y-113993438D02*
X76650047Y-114041057D01*
X76650047Y-114041057D02*
X76697666Y-114136295D01*
X76697666Y-114136295D02*
X76697666Y-114279152D01*
X76697666Y-114279152D02*
X76650047Y-114374390D01*
X76650047Y-114374390D02*
X76602428Y-114422009D01*
X76602428Y-114422009D02*
X76507190Y-114469628D01*
X76507190Y-114469628D02*
X76126238Y-114469628D01*
X84580143Y-98437819D02*
X84580143Y-97437819D01*
X84580143Y-97437819D02*
X84818238Y-97437819D01*
X84818238Y-97437819D02*
X84961095Y-97485438D01*
X84961095Y-97485438D02*
X85056333Y-97580676D01*
X85056333Y-97580676D02*
X85103952Y-97675914D01*
X85103952Y-97675914D02*
X85151571Y-97866390D01*
X85151571Y-97866390D02*
X85151571Y-98009247D01*
X85151571Y-98009247D02*
X85103952Y-98199723D01*
X85103952Y-98199723D02*
X85056333Y-98294961D01*
X85056333Y-98294961D02*
X84961095Y-98390200D01*
X84961095Y-98390200D02*
X84818238Y-98437819D01*
X84818238Y-98437819D02*
X84580143Y-98437819D01*
X85532524Y-98390200D02*
X85675381Y-98437819D01*
X85675381Y-98437819D02*
X85913476Y-98437819D01*
X85913476Y-98437819D02*
X86008714Y-98390200D01*
X86008714Y-98390200D02*
X86056333Y-98342580D01*
X86056333Y-98342580D02*
X86103952Y-98247342D01*
X86103952Y-98247342D02*
X86103952Y-98152104D01*
X86103952Y-98152104D02*
X86056333Y-98056866D01*
X86056333Y-98056866D02*
X86008714Y-98009247D01*
X86008714Y-98009247D02*
X85913476Y-97961628D01*
X85913476Y-97961628D02*
X85723000Y-97914009D01*
X85723000Y-97914009D02*
X85627762Y-97866390D01*
X85627762Y-97866390D02*
X85580143Y-97818771D01*
X85580143Y-97818771D02*
X85532524Y-97723533D01*
X85532524Y-97723533D02*
X85532524Y-97628295D01*
X85532524Y-97628295D02*
X85580143Y-97533057D01*
X85580143Y-97533057D02*
X85627762Y-97485438D01*
X85627762Y-97485438D02*
X85723000Y-97437819D01*
X85723000Y-97437819D02*
X85961095Y-97437819D01*
X85961095Y-97437819D02*
X86103952Y-97485438D01*
X86532524Y-98437819D02*
X86532524Y-97437819D01*
X87199190Y-97437819D02*
X87294428Y-97437819D01*
X87294428Y-97437819D02*
X87389666Y-97485438D01*
X87389666Y-97485438D02*
X87437285Y-97533057D01*
X87437285Y-97533057D02*
X87484904Y-97628295D01*
X87484904Y-97628295D02*
X87532523Y-97818771D01*
X87532523Y-97818771D02*
X87532523Y-98056866D01*
X87532523Y-98056866D02*
X87484904Y-98247342D01*
X87484904Y-98247342D02*
X87437285Y-98342580D01*
X87437285Y-98342580D02*
X87389666Y-98390200D01*
X87389666Y-98390200D02*
X87294428Y-98437819D01*
X87294428Y-98437819D02*
X87199190Y-98437819D01*
X87199190Y-98437819D02*
X87103952Y-98390200D01*
X87103952Y-98390200D02*
X87056333Y-98342580D01*
X87056333Y-98342580D02*
X87008714Y-98247342D01*
X87008714Y-98247342D02*
X86961095Y-98056866D01*
X86961095Y-98056866D02*
X86961095Y-97818771D01*
X86961095Y-97818771D02*
X87008714Y-97628295D01*
X87008714Y-97628295D02*
X87056333Y-97533057D01*
X87056333Y-97533057D02*
X87103952Y-97485438D01*
X87103952Y-97485438D02*
X87199190Y-97437819D01*
X87723000Y-98533057D02*
X88484904Y-98533057D01*
X89294428Y-98342580D02*
X89246809Y-98390200D01*
X89246809Y-98390200D02*
X89103952Y-98437819D01*
X89103952Y-98437819D02*
X89008714Y-98437819D01*
X89008714Y-98437819D02*
X88865857Y-98390200D01*
X88865857Y-98390200D02*
X88770619Y-98294961D01*
X88770619Y-98294961D02*
X88723000Y-98199723D01*
X88723000Y-98199723D02*
X88675381Y-98009247D01*
X88675381Y-98009247D02*
X88675381Y-97866390D01*
X88675381Y-97866390D02*
X88723000Y-97675914D01*
X88723000Y-97675914D02*
X88770619Y-97580676D01*
X88770619Y-97580676D02*
X88865857Y-97485438D01*
X88865857Y-97485438D02*
X89008714Y-97437819D01*
X89008714Y-97437819D02*
X89103952Y-97437819D01*
X89103952Y-97437819D02*
X89246809Y-97485438D01*
X89246809Y-97485438D02*
X89294428Y-97533057D01*
X90199190Y-98437819D02*
X89723000Y-98437819D01*
X89723000Y-98437819D02*
X89723000Y-97437819D01*
X90532524Y-98437819D02*
X90532524Y-97437819D01*
X91103952Y-98437819D02*
X90675381Y-97866390D01*
X91103952Y-97437819D02*
X90532524Y-98009247D01*
X91294429Y-98533057D02*
X92056333Y-98533057D01*
X92294429Y-98437819D02*
X92294429Y-97437819D01*
X92294429Y-97437819D02*
X92865857Y-98437819D01*
X92865857Y-98437819D02*
X92865857Y-97437819D01*
X68382952Y-98537819D02*
X68382952Y-97537819D01*
X68382952Y-97537819D02*
X68621047Y-97537819D01*
X68621047Y-97537819D02*
X68763904Y-97585438D01*
X68763904Y-97585438D02*
X68859142Y-97680676D01*
X68859142Y-97680676D02*
X68906761Y-97775914D01*
X68906761Y-97775914D02*
X68954380Y-97966390D01*
X68954380Y-97966390D02*
X68954380Y-98109247D01*
X68954380Y-98109247D02*
X68906761Y-98299723D01*
X68906761Y-98299723D02*
X68859142Y-98394961D01*
X68859142Y-98394961D02*
X68763904Y-98490200D01*
X68763904Y-98490200D02*
X68621047Y-98537819D01*
X68621047Y-98537819D02*
X68382952Y-98537819D01*
X69335333Y-98490200D02*
X69478190Y-98537819D01*
X69478190Y-98537819D02*
X69716285Y-98537819D01*
X69716285Y-98537819D02*
X69811523Y-98490200D01*
X69811523Y-98490200D02*
X69859142Y-98442580D01*
X69859142Y-98442580D02*
X69906761Y-98347342D01*
X69906761Y-98347342D02*
X69906761Y-98252104D01*
X69906761Y-98252104D02*
X69859142Y-98156866D01*
X69859142Y-98156866D02*
X69811523Y-98109247D01*
X69811523Y-98109247D02*
X69716285Y-98061628D01*
X69716285Y-98061628D02*
X69525809Y-98014009D01*
X69525809Y-98014009D02*
X69430571Y-97966390D01*
X69430571Y-97966390D02*
X69382952Y-97918771D01*
X69382952Y-97918771D02*
X69335333Y-97823533D01*
X69335333Y-97823533D02*
X69335333Y-97728295D01*
X69335333Y-97728295D02*
X69382952Y-97633057D01*
X69382952Y-97633057D02*
X69430571Y-97585438D01*
X69430571Y-97585438D02*
X69525809Y-97537819D01*
X69525809Y-97537819D02*
X69763904Y-97537819D01*
X69763904Y-97537819D02*
X69906761Y-97585438D01*
X70335333Y-98537819D02*
X70335333Y-97537819D01*
X71001999Y-97537819D02*
X71097237Y-97537819D01*
X71097237Y-97537819D02*
X71192475Y-97585438D01*
X71192475Y-97585438D02*
X71240094Y-97633057D01*
X71240094Y-97633057D02*
X71287713Y-97728295D01*
X71287713Y-97728295D02*
X71335332Y-97918771D01*
X71335332Y-97918771D02*
X71335332Y-98156866D01*
X71335332Y-98156866D02*
X71287713Y-98347342D01*
X71287713Y-98347342D02*
X71240094Y-98442580D01*
X71240094Y-98442580D02*
X71192475Y-98490200D01*
X71192475Y-98490200D02*
X71097237Y-98537819D01*
X71097237Y-98537819D02*
X71001999Y-98537819D01*
X71001999Y-98537819D02*
X70906761Y-98490200D01*
X70906761Y-98490200D02*
X70859142Y-98442580D01*
X70859142Y-98442580D02*
X70811523Y-98347342D01*
X70811523Y-98347342D02*
X70763904Y-98156866D01*
X70763904Y-98156866D02*
X70763904Y-97918771D01*
X70763904Y-97918771D02*
X70811523Y-97728295D01*
X70811523Y-97728295D02*
X70859142Y-97633057D01*
X70859142Y-97633057D02*
X70906761Y-97585438D01*
X70906761Y-97585438D02*
X71001999Y-97537819D01*
X71525809Y-98633057D02*
X72287713Y-98633057D01*
X73097237Y-98442580D02*
X73049618Y-98490200D01*
X73049618Y-98490200D02*
X72906761Y-98537819D01*
X72906761Y-98537819D02*
X72811523Y-98537819D01*
X72811523Y-98537819D02*
X72668666Y-98490200D01*
X72668666Y-98490200D02*
X72573428Y-98394961D01*
X72573428Y-98394961D02*
X72525809Y-98299723D01*
X72525809Y-98299723D02*
X72478190Y-98109247D01*
X72478190Y-98109247D02*
X72478190Y-97966390D01*
X72478190Y-97966390D02*
X72525809Y-97775914D01*
X72525809Y-97775914D02*
X72573428Y-97680676D01*
X72573428Y-97680676D02*
X72668666Y-97585438D01*
X72668666Y-97585438D02*
X72811523Y-97537819D01*
X72811523Y-97537819D02*
X72906761Y-97537819D01*
X72906761Y-97537819D02*
X73049618Y-97585438D01*
X73049618Y-97585438D02*
X73097237Y-97633057D01*
X74001999Y-98537819D02*
X73525809Y-98537819D01*
X73525809Y-98537819D02*
X73525809Y-97537819D01*
X74335333Y-98537819D02*
X74335333Y-97537819D01*
X74906761Y-98537819D02*
X74478190Y-97966390D01*
X74906761Y-97537819D02*
X74335333Y-98109247D01*
X75097238Y-98633057D02*
X75859142Y-98633057D01*
X76097238Y-98537819D02*
X76097238Y-97537819D01*
X76097238Y-97537819D02*
X76478190Y-97537819D01*
X76478190Y-97537819D02*
X76573428Y-97585438D01*
X76573428Y-97585438D02*
X76621047Y-97633057D01*
X76621047Y-97633057D02*
X76668666Y-97728295D01*
X76668666Y-97728295D02*
X76668666Y-97871152D01*
X76668666Y-97871152D02*
X76621047Y-97966390D01*
X76621047Y-97966390D02*
X76573428Y-98014009D01*
X76573428Y-98014009D02*
X76478190Y-98061628D01*
X76478190Y-98061628D02*
X76097238Y-98061628D01*
X84551143Y-82123819D02*
X84551143Y-81123819D01*
X84551143Y-81123819D02*
X84789238Y-81123819D01*
X84789238Y-81123819D02*
X84932095Y-81171438D01*
X84932095Y-81171438D02*
X85027333Y-81266676D01*
X85027333Y-81266676D02*
X85074952Y-81361914D01*
X85074952Y-81361914D02*
X85122571Y-81552390D01*
X85122571Y-81552390D02*
X85122571Y-81695247D01*
X85122571Y-81695247D02*
X85074952Y-81885723D01*
X85074952Y-81885723D02*
X85027333Y-81980961D01*
X85027333Y-81980961D02*
X84932095Y-82076200D01*
X84932095Y-82076200D02*
X84789238Y-82123819D01*
X84789238Y-82123819D02*
X84551143Y-82123819D01*
X85503524Y-82076200D02*
X85646381Y-82123819D01*
X85646381Y-82123819D02*
X85884476Y-82123819D01*
X85884476Y-82123819D02*
X85979714Y-82076200D01*
X85979714Y-82076200D02*
X86027333Y-82028580D01*
X86027333Y-82028580D02*
X86074952Y-81933342D01*
X86074952Y-81933342D02*
X86074952Y-81838104D01*
X86074952Y-81838104D02*
X86027333Y-81742866D01*
X86027333Y-81742866D02*
X85979714Y-81695247D01*
X85979714Y-81695247D02*
X85884476Y-81647628D01*
X85884476Y-81647628D02*
X85694000Y-81600009D01*
X85694000Y-81600009D02*
X85598762Y-81552390D01*
X85598762Y-81552390D02*
X85551143Y-81504771D01*
X85551143Y-81504771D02*
X85503524Y-81409533D01*
X85503524Y-81409533D02*
X85503524Y-81314295D01*
X85503524Y-81314295D02*
X85551143Y-81219057D01*
X85551143Y-81219057D02*
X85598762Y-81171438D01*
X85598762Y-81171438D02*
X85694000Y-81123819D01*
X85694000Y-81123819D02*
X85932095Y-81123819D01*
X85932095Y-81123819D02*
X86074952Y-81171438D01*
X86503524Y-82123819D02*
X86503524Y-81123819D01*
X87170190Y-81123819D02*
X87265428Y-81123819D01*
X87265428Y-81123819D02*
X87360666Y-81171438D01*
X87360666Y-81171438D02*
X87408285Y-81219057D01*
X87408285Y-81219057D02*
X87455904Y-81314295D01*
X87455904Y-81314295D02*
X87503523Y-81504771D01*
X87503523Y-81504771D02*
X87503523Y-81742866D01*
X87503523Y-81742866D02*
X87455904Y-81933342D01*
X87455904Y-81933342D02*
X87408285Y-82028580D01*
X87408285Y-82028580D02*
X87360666Y-82076200D01*
X87360666Y-82076200D02*
X87265428Y-82123819D01*
X87265428Y-82123819D02*
X87170190Y-82123819D01*
X87170190Y-82123819D02*
X87074952Y-82076200D01*
X87074952Y-82076200D02*
X87027333Y-82028580D01*
X87027333Y-82028580D02*
X86979714Y-81933342D01*
X86979714Y-81933342D02*
X86932095Y-81742866D01*
X86932095Y-81742866D02*
X86932095Y-81504771D01*
X86932095Y-81504771D02*
X86979714Y-81314295D01*
X86979714Y-81314295D02*
X87027333Y-81219057D01*
X87027333Y-81219057D02*
X87074952Y-81171438D01*
X87074952Y-81171438D02*
X87170190Y-81123819D01*
X87694000Y-82219057D02*
X88455904Y-82219057D01*
X89170190Y-82123819D02*
X88694000Y-82123819D01*
X88694000Y-82123819D02*
X88694000Y-81123819D01*
X89503524Y-82123819D02*
X89503524Y-81123819D01*
X89503524Y-81123819D02*
X90074952Y-82123819D01*
X90074952Y-82123819D02*
X90074952Y-81123819D01*
X90741619Y-81123819D02*
X90836857Y-81123819D01*
X90836857Y-81123819D02*
X90932095Y-81171438D01*
X90932095Y-81171438D02*
X90979714Y-81219057D01*
X90979714Y-81219057D02*
X91027333Y-81314295D01*
X91027333Y-81314295D02*
X91074952Y-81504771D01*
X91074952Y-81504771D02*
X91074952Y-81742866D01*
X91074952Y-81742866D02*
X91027333Y-81933342D01*
X91027333Y-81933342D02*
X90979714Y-82028580D01*
X90979714Y-82028580D02*
X90932095Y-82076200D01*
X90932095Y-82076200D02*
X90836857Y-82123819D01*
X90836857Y-82123819D02*
X90741619Y-82123819D01*
X90741619Y-82123819D02*
X90646381Y-82076200D01*
X90646381Y-82076200D02*
X90598762Y-82028580D01*
X90598762Y-82028580D02*
X90551143Y-81933342D01*
X90551143Y-81933342D02*
X90503524Y-81742866D01*
X90503524Y-81742866D02*
X90503524Y-81504771D01*
X90503524Y-81504771D02*
X90551143Y-81314295D01*
X90551143Y-81314295D02*
X90598762Y-81219057D01*
X90598762Y-81219057D02*
X90646381Y-81171438D01*
X90646381Y-81171438D02*
X90741619Y-81123819D01*
X91265429Y-82219057D02*
X92027333Y-82219057D01*
X92265429Y-82123819D02*
X92265429Y-81123819D01*
X92265429Y-81123819D02*
X92836857Y-82123819D01*
X92836857Y-82123819D02*
X92836857Y-81123819D01*
X68353952Y-82253819D02*
X68353952Y-81253819D01*
X68353952Y-81253819D02*
X68592047Y-81253819D01*
X68592047Y-81253819D02*
X68734904Y-81301438D01*
X68734904Y-81301438D02*
X68830142Y-81396676D01*
X68830142Y-81396676D02*
X68877761Y-81491914D01*
X68877761Y-81491914D02*
X68925380Y-81682390D01*
X68925380Y-81682390D02*
X68925380Y-81825247D01*
X68925380Y-81825247D02*
X68877761Y-82015723D01*
X68877761Y-82015723D02*
X68830142Y-82110961D01*
X68830142Y-82110961D02*
X68734904Y-82206200D01*
X68734904Y-82206200D02*
X68592047Y-82253819D01*
X68592047Y-82253819D02*
X68353952Y-82253819D01*
X69306333Y-82206200D02*
X69449190Y-82253819D01*
X69449190Y-82253819D02*
X69687285Y-82253819D01*
X69687285Y-82253819D02*
X69782523Y-82206200D01*
X69782523Y-82206200D02*
X69830142Y-82158580D01*
X69830142Y-82158580D02*
X69877761Y-82063342D01*
X69877761Y-82063342D02*
X69877761Y-81968104D01*
X69877761Y-81968104D02*
X69830142Y-81872866D01*
X69830142Y-81872866D02*
X69782523Y-81825247D01*
X69782523Y-81825247D02*
X69687285Y-81777628D01*
X69687285Y-81777628D02*
X69496809Y-81730009D01*
X69496809Y-81730009D02*
X69401571Y-81682390D01*
X69401571Y-81682390D02*
X69353952Y-81634771D01*
X69353952Y-81634771D02*
X69306333Y-81539533D01*
X69306333Y-81539533D02*
X69306333Y-81444295D01*
X69306333Y-81444295D02*
X69353952Y-81349057D01*
X69353952Y-81349057D02*
X69401571Y-81301438D01*
X69401571Y-81301438D02*
X69496809Y-81253819D01*
X69496809Y-81253819D02*
X69734904Y-81253819D01*
X69734904Y-81253819D02*
X69877761Y-81301438D01*
X70306333Y-82253819D02*
X70306333Y-81253819D01*
X70972999Y-81253819D02*
X71068237Y-81253819D01*
X71068237Y-81253819D02*
X71163475Y-81301438D01*
X71163475Y-81301438D02*
X71211094Y-81349057D01*
X71211094Y-81349057D02*
X71258713Y-81444295D01*
X71258713Y-81444295D02*
X71306332Y-81634771D01*
X71306332Y-81634771D02*
X71306332Y-81872866D01*
X71306332Y-81872866D02*
X71258713Y-82063342D01*
X71258713Y-82063342D02*
X71211094Y-82158580D01*
X71211094Y-82158580D02*
X71163475Y-82206200D01*
X71163475Y-82206200D02*
X71068237Y-82253819D01*
X71068237Y-82253819D02*
X70972999Y-82253819D01*
X70972999Y-82253819D02*
X70877761Y-82206200D01*
X70877761Y-82206200D02*
X70830142Y-82158580D01*
X70830142Y-82158580D02*
X70782523Y-82063342D01*
X70782523Y-82063342D02*
X70734904Y-81872866D01*
X70734904Y-81872866D02*
X70734904Y-81634771D01*
X70734904Y-81634771D02*
X70782523Y-81444295D01*
X70782523Y-81444295D02*
X70830142Y-81349057D01*
X70830142Y-81349057D02*
X70877761Y-81301438D01*
X70877761Y-81301438D02*
X70972999Y-81253819D01*
X71496809Y-82349057D02*
X72258713Y-82349057D01*
X72972999Y-82253819D02*
X72496809Y-82253819D01*
X72496809Y-82253819D02*
X72496809Y-81253819D01*
X73306333Y-82253819D02*
X73306333Y-81253819D01*
X73306333Y-81253819D02*
X73877761Y-82253819D01*
X73877761Y-82253819D02*
X73877761Y-81253819D01*
X74544428Y-81253819D02*
X74639666Y-81253819D01*
X74639666Y-81253819D02*
X74734904Y-81301438D01*
X74734904Y-81301438D02*
X74782523Y-81349057D01*
X74782523Y-81349057D02*
X74830142Y-81444295D01*
X74830142Y-81444295D02*
X74877761Y-81634771D01*
X74877761Y-81634771D02*
X74877761Y-81872866D01*
X74877761Y-81872866D02*
X74830142Y-82063342D01*
X74830142Y-82063342D02*
X74782523Y-82158580D01*
X74782523Y-82158580D02*
X74734904Y-82206200D01*
X74734904Y-82206200D02*
X74639666Y-82253819D01*
X74639666Y-82253819D02*
X74544428Y-82253819D01*
X74544428Y-82253819D02*
X74449190Y-82206200D01*
X74449190Y-82206200D02*
X74401571Y-82158580D01*
X74401571Y-82158580D02*
X74353952Y-82063342D01*
X74353952Y-82063342D02*
X74306333Y-81872866D01*
X74306333Y-81872866D02*
X74306333Y-81634771D01*
X74306333Y-81634771D02*
X74353952Y-81444295D01*
X74353952Y-81444295D02*
X74401571Y-81349057D01*
X74401571Y-81349057D02*
X74449190Y-81301438D01*
X74449190Y-81301438D02*
X74544428Y-81253819D01*
X75068238Y-82349057D02*
X75830142Y-82349057D01*
X76068238Y-82253819D02*
X76068238Y-81253819D01*
X76068238Y-81253819D02*
X76449190Y-81253819D01*
X76449190Y-81253819D02*
X76544428Y-81301438D01*
X76544428Y-81301438D02*
X76592047Y-81349057D01*
X76592047Y-81349057D02*
X76639666Y-81444295D01*
X76639666Y-81444295D02*
X76639666Y-81587152D01*
X76639666Y-81587152D02*
X76592047Y-81682390D01*
X76592047Y-81682390D02*
X76544428Y-81730009D01*
X76544428Y-81730009D02*
X76449190Y-81777628D01*
X76449190Y-81777628D02*
X76068238Y-81777628D01*
X68382952Y-65845819D02*
X68382952Y-64845819D01*
X68382952Y-64845819D02*
X68621047Y-64845819D01*
X68621047Y-64845819D02*
X68763904Y-64893438D01*
X68763904Y-64893438D02*
X68859142Y-64988676D01*
X68859142Y-64988676D02*
X68906761Y-65083914D01*
X68906761Y-65083914D02*
X68954380Y-65274390D01*
X68954380Y-65274390D02*
X68954380Y-65417247D01*
X68954380Y-65417247D02*
X68906761Y-65607723D01*
X68906761Y-65607723D02*
X68859142Y-65702961D01*
X68859142Y-65702961D02*
X68763904Y-65798200D01*
X68763904Y-65798200D02*
X68621047Y-65845819D01*
X68621047Y-65845819D02*
X68382952Y-65845819D01*
X69335333Y-65798200D02*
X69478190Y-65845819D01*
X69478190Y-65845819D02*
X69716285Y-65845819D01*
X69716285Y-65845819D02*
X69811523Y-65798200D01*
X69811523Y-65798200D02*
X69859142Y-65750580D01*
X69859142Y-65750580D02*
X69906761Y-65655342D01*
X69906761Y-65655342D02*
X69906761Y-65560104D01*
X69906761Y-65560104D02*
X69859142Y-65464866D01*
X69859142Y-65464866D02*
X69811523Y-65417247D01*
X69811523Y-65417247D02*
X69716285Y-65369628D01*
X69716285Y-65369628D02*
X69525809Y-65322009D01*
X69525809Y-65322009D02*
X69430571Y-65274390D01*
X69430571Y-65274390D02*
X69382952Y-65226771D01*
X69382952Y-65226771D02*
X69335333Y-65131533D01*
X69335333Y-65131533D02*
X69335333Y-65036295D01*
X69335333Y-65036295D02*
X69382952Y-64941057D01*
X69382952Y-64941057D02*
X69430571Y-64893438D01*
X69430571Y-64893438D02*
X69525809Y-64845819D01*
X69525809Y-64845819D02*
X69763904Y-64845819D01*
X69763904Y-64845819D02*
X69906761Y-64893438D01*
X70335333Y-65845819D02*
X70335333Y-64845819D01*
X71001999Y-64845819D02*
X71097237Y-64845819D01*
X71097237Y-64845819D02*
X71192475Y-64893438D01*
X71192475Y-64893438D02*
X71240094Y-64941057D01*
X71240094Y-64941057D02*
X71287713Y-65036295D01*
X71287713Y-65036295D02*
X71335332Y-65226771D01*
X71335332Y-65226771D02*
X71335332Y-65464866D01*
X71335332Y-65464866D02*
X71287713Y-65655342D01*
X71287713Y-65655342D02*
X71240094Y-65750580D01*
X71240094Y-65750580D02*
X71192475Y-65798200D01*
X71192475Y-65798200D02*
X71097237Y-65845819D01*
X71097237Y-65845819D02*
X71001999Y-65845819D01*
X71001999Y-65845819D02*
X70906761Y-65798200D01*
X70906761Y-65798200D02*
X70859142Y-65750580D01*
X70859142Y-65750580D02*
X70811523Y-65655342D01*
X70811523Y-65655342D02*
X70763904Y-65464866D01*
X70763904Y-65464866D02*
X70763904Y-65226771D01*
X70763904Y-65226771D02*
X70811523Y-65036295D01*
X70811523Y-65036295D02*
X70859142Y-64941057D01*
X70859142Y-64941057D02*
X70906761Y-64893438D01*
X70906761Y-64893438D02*
X71001999Y-64845819D01*
X71525809Y-65941057D02*
X72287713Y-65941057D01*
X73001999Y-65845819D02*
X72525809Y-65845819D01*
X72525809Y-65845819D02*
X72525809Y-64845819D01*
X73335333Y-65845819D02*
X73335333Y-64845819D01*
X73335333Y-64845819D02*
X73906761Y-65845819D01*
X73906761Y-65845819D02*
X73906761Y-64845819D01*
X74906761Y-65845819D02*
X74335333Y-65845819D01*
X74621047Y-65845819D02*
X74621047Y-64845819D01*
X74621047Y-64845819D02*
X74525809Y-64988676D01*
X74525809Y-64988676D02*
X74430571Y-65083914D01*
X74430571Y-65083914D02*
X74335333Y-65131533D01*
X75097238Y-65941057D02*
X75859142Y-65941057D01*
X76097238Y-65845819D02*
X76097238Y-64845819D01*
X76097238Y-64845819D02*
X76478190Y-64845819D01*
X76478190Y-64845819D02*
X76573428Y-64893438D01*
X76573428Y-64893438D02*
X76621047Y-64941057D01*
X76621047Y-64941057D02*
X76668666Y-65036295D01*
X76668666Y-65036295D02*
X76668666Y-65179152D01*
X76668666Y-65179152D02*
X76621047Y-65274390D01*
X76621047Y-65274390D02*
X76573428Y-65322009D01*
X76573428Y-65322009D02*
X76478190Y-65369628D01*
X76478190Y-65369628D02*
X76097238Y-65369628D01*
X145690095Y-53972438D02*
X145594857Y-53924819D01*
X145594857Y-53924819D02*
X145452000Y-53924819D01*
X145452000Y-53924819D02*
X145309143Y-53972438D01*
X145309143Y-53972438D02*
X145213905Y-54067676D01*
X145213905Y-54067676D02*
X145166286Y-54162914D01*
X145166286Y-54162914D02*
X145118667Y-54353390D01*
X145118667Y-54353390D02*
X145118667Y-54496247D01*
X145118667Y-54496247D02*
X145166286Y-54686723D01*
X145166286Y-54686723D02*
X145213905Y-54781961D01*
X145213905Y-54781961D02*
X145309143Y-54877200D01*
X145309143Y-54877200D02*
X145452000Y-54924819D01*
X145452000Y-54924819D02*
X145547238Y-54924819D01*
X145547238Y-54924819D02*
X145690095Y-54877200D01*
X145690095Y-54877200D02*
X145737714Y-54829580D01*
X145737714Y-54829580D02*
X145737714Y-54496247D01*
X145737714Y-54496247D02*
X145547238Y-54496247D01*
X146166286Y-54924819D02*
X146166286Y-53924819D01*
X146166286Y-53924819D02*
X146737714Y-54924819D01*
X146737714Y-54924819D02*
X146737714Y-53924819D01*
X147213905Y-54924819D02*
X147213905Y-53924819D01*
X147213905Y-53924819D02*
X147452000Y-53924819D01*
X147452000Y-53924819D02*
X147594857Y-53972438D01*
X147594857Y-53972438D02*
X147690095Y-54067676D01*
X147690095Y-54067676D02*
X147737714Y-54162914D01*
X147737714Y-54162914D02*
X147785333Y-54353390D01*
X147785333Y-54353390D02*
X147785333Y-54496247D01*
X147785333Y-54496247D02*
X147737714Y-54686723D01*
X147737714Y-54686723D02*
X147690095Y-54781961D01*
X147690095Y-54781961D02*
X147594857Y-54877200D01*
X147594857Y-54877200D02*
X147452000Y-54924819D01*
X147452000Y-54924819D02*
X147213905Y-54924819D01*
X146918666Y-60374819D02*
X146918666Y-61089104D01*
X146918666Y-61089104D02*
X146871047Y-61231961D01*
X146871047Y-61231961D02*
X146775809Y-61327200D01*
X146775809Y-61327200D02*
X146632952Y-61374819D01*
X146632952Y-61374819D02*
X146537714Y-61374819D01*
X147347238Y-60470057D02*
X147394857Y-60422438D01*
X147394857Y-60422438D02*
X147490095Y-60374819D01*
X147490095Y-60374819D02*
X147728190Y-60374819D01*
X147728190Y-60374819D02*
X147823428Y-60422438D01*
X147823428Y-60422438D02*
X147871047Y-60470057D01*
X147871047Y-60470057D02*
X147918666Y-60565295D01*
X147918666Y-60565295D02*
X147918666Y-60660533D01*
X147918666Y-60660533D02*
X147871047Y-60803390D01*
X147871047Y-60803390D02*
X147299619Y-61374819D01*
X147299619Y-61374819D02*
X147918666Y-61374819D01*
X90640819Y-33099333D02*
X91355104Y-33099333D01*
X91355104Y-33099333D02*
X91497961Y-33146952D01*
X91497961Y-33146952D02*
X91593200Y-33242190D01*
X91593200Y-33242190D02*
X91640819Y-33385047D01*
X91640819Y-33385047D02*
X91640819Y-33480285D01*
X91640819Y-32099333D02*
X91640819Y-32670761D01*
X91640819Y-32385047D02*
X90640819Y-32385047D01*
X90640819Y-32385047D02*
X90783676Y-32480285D01*
X90783676Y-32480285D02*
X90878914Y-32575523D01*
X90878914Y-32575523D02*
X90926533Y-32670761D01*
D11*
%TO.C,J3*%
X144922000Y-102090000D02*
X146252000Y-102090000D01*
X144922000Y-103420000D02*
X144922000Y-102090000D01*
X144922000Y-104690000D02*
X144922000Y-127610000D01*
X144922000Y-104690000D02*
X147522000Y-104690000D01*
X144922000Y-127610000D02*
X150122000Y-127610000D01*
X147522000Y-102090000D02*
X150122000Y-102090000D01*
X147522000Y-104690000D02*
X147522000Y-102090000D01*
X150122000Y-102090000D02*
X150122000Y-127610000D01*
D12*
%TO.C,J23*%
X117973000Y-127224000D02*
X117973000Y-125024000D01*
X120048000Y-122949000D02*
X122248000Y-122949000D01*
X120048000Y-129299000D02*
X122248000Y-129299000D01*
X124323000Y-127224000D02*
X124323000Y-125024000D01*
%TO.C,J22*%
X101702000Y-127232000D02*
X101702000Y-125032000D01*
X103777000Y-122957000D02*
X105977000Y-122957000D01*
X103777000Y-129307000D02*
X105977000Y-129307000D01*
X108052000Y-127232000D02*
X108052000Y-125032000D01*
%TO.C,J21*%
X118002000Y-110916000D02*
X118002000Y-108716000D01*
X120077000Y-106641000D02*
X122277000Y-106641000D01*
X120077000Y-112991000D02*
X122277000Y-112991000D01*
X124352000Y-110916000D02*
X124352000Y-108716000D01*
%TO.C,J20*%
X101731000Y-110924000D02*
X101731000Y-108724000D01*
X103806000Y-106649000D02*
X106006000Y-106649000D01*
X103806000Y-112999000D02*
X106006000Y-112999000D01*
X108081000Y-110924000D02*
X108081000Y-108724000D01*
%TO.C,J19*%
X117973000Y-94608000D02*
X117973000Y-92408000D01*
X120048000Y-90333000D02*
X122248000Y-90333000D01*
X120048000Y-96683000D02*
X122248000Y-96683000D01*
X124323000Y-94608000D02*
X124323000Y-92408000D01*
%TO.C,J18*%
X101702000Y-94616000D02*
X101702000Y-92416000D01*
X103777000Y-90341000D02*
X105977000Y-90341000D01*
X103777000Y-96691000D02*
X105977000Y-96691000D01*
X108052000Y-94616000D02*
X108052000Y-92416000D01*
%TO.C,J17*%
X117944000Y-78324000D02*
X117944000Y-76124000D01*
X120019000Y-74049000D02*
X122219000Y-74049000D01*
X120019000Y-80399000D02*
X122219000Y-80399000D01*
X124294000Y-78324000D02*
X124294000Y-76124000D01*
%TO.C,J16*%
X101673000Y-78332000D02*
X101673000Y-76132000D01*
X103748000Y-74057000D02*
X105948000Y-74057000D01*
X103748000Y-80407000D02*
X105948000Y-80407000D01*
X108023000Y-78332000D02*
X108023000Y-76132000D01*
%TO.C,J15*%
X117973000Y-62016000D02*
X117973000Y-59816000D01*
X120048000Y-57741000D02*
X122248000Y-57741000D01*
X120048000Y-64091000D02*
X122248000Y-64091000D01*
X124323000Y-62016000D02*
X124323000Y-59816000D01*
%TO.C,J14*%
X101702000Y-62024000D02*
X101702000Y-59824000D01*
X103777000Y-57749000D02*
X105977000Y-57749000D01*
X103777000Y-64099000D02*
X105977000Y-64099000D01*
X108052000Y-62024000D02*
X108052000Y-59824000D01*
%TO.C,J5*%
X87598000Y-57741000D02*
X89798000Y-57741000D01*
X87598000Y-64091000D02*
X89798000Y-64091000D01*
X85523000Y-62016000D02*
X85523000Y-59816000D01*
X91873000Y-62016000D02*
X91873000Y-59816000D01*
%TO.C,J13*%
X87598000Y-122949000D02*
X89798000Y-122949000D01*
X87598000Y-129299000D02*
X89798000Y-129299000D01*
X85523000Y-127224000D02*
X85523000Y-125024000D01*
X91873000Y-127224000D02*
X91873000Y-125024000D01*
%TO.C,J12*%
X75652000Y-127224000D02*
X75652000Y-125024000D01*
X69302000Y-127224000D02*
X69302000Y-125024000D01*
X71377000Y-129299000D02*
X73577000Y-129299000D01*
X71377000Y-122949000D02*
X73577000Y-122949000D01*
%TO.C,J11*%
X87627000Y-106641000D02*
X89827000Y-106641000D01*
X87627000Y-112991000D02*
X89827000Y-112991000D01*
X85552000Y-110916000D02*
X85552000Y-108716000D01*
X91902000Y-110916000D02*
X91902000Y-108716000D01*
%TO.C,J10*%
X75681000Y-110916000D02*
X75681000Y-108716000D01*
X69331000Y-110916000D02*
X69331000Y-108716000D01*
X71406000Y-112991000D02*
X73606000Y-112991000D01*
X71406000Y-106641000D02*
X73606000Y-106641000D01*
%TO.C,J9*%
X87598000Y-90333000D02*
X89798000Y-90333000D01*
X87598000Y-96683000D02*
X89798000Y-96683000D01*
X85523000Y-94608000D02*
X85523000Y-92408000D01*
X91873000Y-94608000D02*
X91873000Y-92408000D01*
%TO.C,J8*%
X75652000Y-94608000D02*
X75652000Y-92408000D01*
X69302000Y-94608000D02*
X69302000Y-92408000D01*
X71377000Y-96683000D02*
X73577000Y-96683000D01*
X71377000Y-90333000D02*
X73577000Y-90333000D01*
%TO.C,J7*%
X87569000Y-74049000D02*
X89769000Y-74049000D01*
X87569000Y-80399000D02*
X89769000Y-80399000D01*
X85494000Y-78324000D02*
X85494000Y-76124000D01*
X91844000Y-78324000D02*
X91844000Y-76124000D01*
%TO.C,J6*%
X75623000Y-78324000D02*
X75623000Y-76124000D01*
X69273000Y-78324000D02*
X69273000Y-76124000D01*
X71348000Y-80399000D02*
X73548000Y-80399000D01*
X71348000Y-74049000D02*
X73548000Y-74049000D01*
%TO.C,J4*%
X75652000Y-62016000D02*
X75652000Y-59816000D01*
X69302000Y-62016000D02*
X69302000Y-59816000D01*
X71377000Y-64091000D02*
X73577000Y-64091000D01*
X71377000Y-57741000D02*
X73577000Y-57741000D01*
D11*
%TO.C,TP1*%
X147402000Y-52720000D02*
G75*
G02*
X145502000Y-52720000I-950000J0D01*
G01*
X145502000Y-52720000D02*
G75*
G02*
X147402000Y-52720000I950000J0D01*
G01*
D13*
%TO.C,J2*%
X144687000Y-62170000D02*
X149767000Y-62170000D01*
X149767000Y-87570000D02*
X144687000Y-87570000D01*
X142427000Y-63440000D02*
G75*
G02*
X142227000Y-63440000I-100000J0D01*
G01*
X142227000Y-63440000D02*
G75*
G02*
X142427000Y-63440000I100000J0D01*
G01*
%TO.C,J1*%
X91922000Y-35985000D02*
X91922000Y-39185000D01*
X92762000Y-32215000D02*
X123972000Y-32215000D01*
X92762000Y-33550000D02*
X92762000Y-32215000D01*
X92762000Y-35985000D02*
X91922000Y-35985000D01*
X92762000Y-39185000D02*
X91922000Y-39185000D01*
X92762000Y-42955000D02*
X92762000Y-39185000D01*
X123972000Y-32215000D02*
X123972000Y-42955000D01*
X123972000Y-42955000D02*
X92762000Y-42955000D01*
X95982000Y-31455000D02*
G75*
G02*
X95782000Y-31455000I-100000J0D01*
G01*
X95782000Y-31455000D02*
G75*
G02*
X95982000Y-31455000I100000J0D01*
G01*
%TD*%
M02*
