%TF.GenerationSoftware,KiCad,Pcbnew,8.0.3*%
%TF.CreationDate,2024-07-13T21:55:38+05:30*%
%TF.ProjectId,Interpose_1,496e7465-7270-46f7-9365-5f312e6b6963,rev?*%
%TF.SameCoordinates,Original*%
%TF.FileFunction,Paste,Top*%
%TF.FilePolarity,Positive*%
%FSLAX46Y46*%
G04 Gerber Fmt 4.6, Leading zero omitted, Abs format (unit mm)*
G04 Created by KiCad (PCBNEW 8.0.3) date 2024-07-13 21:55:38*
%MOMM*%
%LPD*%
G01*
G04 APERTURE LIST*
%ADD10C,0.445000*%
%ADD11R,1.520000X1.520000*%
%ADD12R,1.905000X1.905000*%
%ADD13R,3.680000X1.270000*%
G04 APERTURE END LIST*
D10*
%TO.C,J1*%
X96104500Y-33140000D02*
G75*
G02*
X95659500Y-33140000I-222500J0D01*
G01*
X95659500Y-33140000D02*
G75*
G02*
X96104500Y-33140000I222500J0D01*
G01*
X96104500Y-34410000D02*
G75*
G02*
X95659500Y-34410000I-222500J0D01*
G01*
X95659500Y-34410000D02*
G75*
G02*
X96104500Y-34410000I222500J0D01*
G01*
X96104500Y-35680000D02*
G75*
G02*
X95659500Y-35680000I-222500J0D01*
G01*
X95659500Y-35680000D02*
G75*
G02*
X96104500Y-35680000I222500J0D01*
G01*
X96104500Y-36950000D02*
G75*
G02*
X95659500Y-36950000I-222500J0D01*
G01*
X95659500Y-36950000D02*
G75*
G02*
X96104500Y-36950000I222500J0D01*
G01*
X96104500Y-38220000D02*
G75*
G02*
X95659500Y-38220000I-222500J0D01*
G01*
X95659500Y-38220000D02*
G75*
G02*
X96104500Y-38220000I222500J0D01*
G01*
X96104500Y-39490000D02*
G75*
G02*
X95659500Y-39490000I-222500J0D01*
G01*
X95659500Y-39490000D02*
G75*
G02*
X96104500Y-39490000I222500J0D01*
G01*
X96104500Y-40760000D02*
G75*
G02*
X95659500Y-40760000I-222500J0D01*
G01*
X95659500Y-40760000D02*
G75*
G02*
X96104500Y-40760000I222500J0D01*
G01*
X96104500Y-42030000D02*
G75*
G02*
X95659500Y-42030000I-222500J0D01*
G01*
X95659500Y-42030000D02*
G75*
G02*
X96104500Y-42030000I222500J0D01*
G01*
X97374500Y-33140000D02*
G75*
G02*
X96929500Y-33140000I-222500J0D01*
G01*
X96929500Y-33140000D02*
G75*
G02*
X97374500Y-33140000I222500J0D01*
G01*
X97374500Y-34410000D02*
G75*
G02*
X96929500Y-34410000I-222500J0D01*
G01*
X96929500Y-34410000D02*
G75*
G02*
X97374500Y-34410000I222500J0D01*
G01*
X97374500Y-35680000D02*
G75*
G02*
X96929500Y-35680000I-222500J0D01*
G01*
X96929500Y-35680000D02*
G75*
G02*
X97374500Y-35680000I222500J0D01*
G01*
X97374500Y-36950000D02*
G75*
G02*
X96929500Y-36950000I-222500J0D01*
G01*
X96929500Y-36950000D02*
G75*
G02*
X97374500Y-36950000I222500J0D01*
G01*
X97374500Y-38220000D02*
G75*
G02*
X96929500Y-38220000I-222500J0D01*
G01*
X96929500Y-38220000D02*
G75*
G02*
X97374500Y-38220000I222500J0D01*
G01*
X97374500Y-39490000D02*
G75*
G02*
X96929500Y-39490000I-222500J0D01*
G01*
X96929500Y-39490000D02*
G75*
G02*
X97374500Y-39490000I222500J0D01*
G01*
X97374500Y-40760000D02*
G75*
G02*
X96929500Y-40760000I-222500J0D01*
G01*
X96929500Y-40760000D02*
G75*
G02*
X97374500Y-40760000I222500J0D01*
G01*
X97374500Y-42030000D02*
G75*
G02*
X96929500Y-42030000I-222500J0D01*
G01*
X96929500Y-42030000D02*
G75*
G02*
X97374500Y-42030000I222500J0D01*
G01*
X98644500Y-33140000D02*
G75*
G02*
X98199500Y-33140000I-222500J0D01*
G01*
X98199500Y-33140000D02*
G75*
G02*
X98644500Y-33140000I222500J0D01*
G01*
X98644500Y-34410000D02*
G75*
G02*
X98199500Y-34410000I-222500J0D01*
G01*
X98199500Y-34410000D02*
G75*
G02*
X98644500Y-34410000I222500J0D01*
G01*
X98644500Y-35680000D02*
G75*
G02*
X98199500Y-35680000I-222500J0D01*
G01*
X98199500Y-35680000D02*
G75*
G02*
X98644500Y-35680000I222500J0D01*
G01*
X98644500Y-36950000D02*
G75*
G02*
X98199500Y-36950000I-222500J0D01*
G01*
X98199500Y-36950000D02*
G75*
G02*
X98644500Y-36950000I222500J0D01*
G01*
X98644500Y-38220000D02*
G75*
G02*
X98199500Y-38220000I-222500J0D01*
G01*
X98199500Y-38220000D02*
G75*
G02*
X98644500Y-38220000I222500J0D01*
G01*
X98644500Y-39490000D02*
G75*
G02*
X98199500Y-39490000I-222500J0D01*
G01*
X98199500Y-39490000D02*
G75*
G02*
X98644500Y-39490000I222500J0D01*
G01*
X98644500Y-40760000D02*
G75*
G02*
X98199500Y-40760000I-222500J0D01*
G01*
X98199500Y-40760000D02*
G75*
G02*
X98644500Y-40760000I222500J0D01*
G01*
X98644500Y-42030000D02*
G75*
G02*
X98199500Y-42030000I-222500J0D01*
G01*
X98199500Y-42030000D02*
G75*
G02*
X98644500Y-42030000I222500J0D01*
G01*
X99914500Y-33140000D02*
G75*
G02*
X99469500Y-33140000I-222500J0D01*
G01*
X99469500Y-33140000D02*
G75*
G02*
X99914500Y-33140000I222500J0D01*
G01*
X99914500Y-34410000D02*
G75*
G02*
X99469500Y-34410000I-222500J0D01*
G01*
X99469500Y-34410000D02*
G75*
G02*
X99914500Y-34410000I222500J0D01*
G01*
X99914500Y-35680000D02*
G75*
G02*
X99469500Y-35680000I-222500J0D01*
G01*
X99469500Y-35680000D02*
G75*
G02*
X99914500Y-35680000I222500J0D01*
G01*
X99914500Y-36950000D02*
G75*
G02*
X99469500Y-36950000I-222500J0D01*
G01*
X99469500Y-36950000D02*
G75*
G02*
X99914500Y-36950000I222500J0D01*
G01*
X99914500Y-38220000D02*
G75*
G02*
X99469500Y-38220000I-222500J0D01*
G01*
X99469500Y-38220000D02*
G75*
G02*
X99914500Y-38220000I222500J0D01*
G01*
X99914500Y-39490000D02*
G75*
G02*
X99469500Y-39490000I-222500J0D01*
G01*
X99469500Y-39490000D02*
G75*
G02*
X99914500Y-39490000I222500J0D01*
G01*
X99914500Y-40760000D02*
G75*
G02*
X99469500Y-40760000I-222500J0D01*
G01*
X99469500Y-40760000D02*
G75*
G02*
X99914500Y-40760000I222500J0D01*
G01*
X99914500Y-42030000D02*
G75*
G02*
X99469500Y-42030000I-222500J0D01*
G01*
X99469500Y-42030000D02*
G75*
G02*
X99914500Y-42030000I222500J0D01*
G01*
X101184500Y-33140000D02*
G75*
G02*
X100739500Y-33140000I-222500J0D01*
G01*
X100739500Y-33140000D02*
G75*
G02*
X101184500Y-33140000I222500J0D01*
G01*
X101184500Y-34410000D02*
G75*
G02*
X100739500Y-34410000I-222500J0D01*
G01*
X100739500Y-34410000D02*
G75*
G02*
X101184500Y-34410000I222500J0D01*
G01*
X101184500Y-35680000D02*
G75*
G02*
X100739500Y-35680000I-222500J0D01*
G01*
X100739500Y-35680000D02*
G75*
G02*
X101184500Y-35680000I222500J0D01*
G01*
X101184500Y-36950000D02*
G75*
G02*
X100739500Y-36950000I-222500J0D01*
G01*
X100739500Y-36950000D02*
G75*
G02*
X101184500Y-36950000I222500J0D01*
G01*
X101184500Y-38220000D02*
G75*
G02*
X100739500Y-38220000I-222500J0D01*
G01*
X100739500Y-38220000D02*
G75*
G02*
X101184500Y-38220000I222500J0D01*
G01*
X101184500Y-39490000D02*
G75*
G02*
X100739500Y-39490000I-222500J0D01*
G01*
X100739500Y-39490000D02*
G75*
G02*
X101184500Y-39490000I222500J0D01*
G01*
X101184500Y-40760000D02*
G75*
G02*
X100739500Y-40760000I-222500J0D01*
G01*
X100739500Y-40760000D02*
G75*
G02*
X101184500Y-40760000I222500J0D01*
G01*
X101184500Y-42030000D02*
G75*
G02*
X100739500Y-42030000I-222500J0D01*
G01*
X100739500Y-42030000D02*
G75*
G02*
X101184500Y-42030000I222500J0D01*
G01*
X102454500Y-33140000D02*
G75*
G02*
X102009500Y-33140000I-222500J0D01*
G01*
X102009500Y-33140000D02*
G75*
G02*
X102454500Y-33140000I222500J0D01*
G01*
X102454500Y-34410000D02*
G75*
G02*
X102009500Y-34410000I-222500J0D01*
G01*
X102009500Y-34410000D02*
G75*
G02*
X102454500Y-34410000I222500J0D01*
G01*
X102454500Y-35680000D02*
G75*
G02*
X102009500Y-35680000I-222500J0D01*
G01*
X102009500Y-35680000D02*
G75*
G02*
X102454500Y-35680000I222500J0D01*
G01*
X102454500Y-36950000D02*
G75*
G02*
X102009500Y-36950000I-222500J0D01*
G01*
X102009500Y-36950000D02*
G75*
G02*
X102454500Y-36950000I222500J0D01*
G01*
X102454500Y-38220000D02*
G75*
G02*
X102009500Y-38220000I-222500J0D01*
G01*
X102009500Y-38220000D02*
G75*
G02*
X102454500Y-38220000I222500J0D01*
G01*
X102454500Y-39490000D02*
G75*
G02*
X102009500Y-39490000I-222500J0D01*
G01*
X102009500Y-39490000D02*
G75*
G02*
X102454500Y-39490000I222500J0D01*
G01*
X102454500Y-40760000D02*
G75*
G02*
X102009500Y-40760000I-222500J0D01*
G01*
X102009500Y-40760000D02*
G75*
G02*
X102454500Y-40760000I222500J0D01*
G01*
X102454500Y-42030000D02*
G75*
G02*
X102009500Y-42030000I-222500J0D01*
G01*
X102009500Y-42030000D02*
G75*
G02*
X102454500Y-42030000I222500J0D01*
G01*
X103724500Y-33140000D02*
G75*
G02*
X103279500Y-33140000I-222500J0D01*
G01*
X103279500Y-33140000D02*
G75*
G02*
X103724500Y-33140000I222500J0D01*
G01*
X103724500Y-34410000D02*
G75*
G02*
X103279500Y-34410000I-222500J0D01*
G01*
X103279500Y-34410000D02*
G75*
G02*
X103724500Y-34410000I222500J0D01*
G01*
X103724500Y-35680000D02*
G75*
G02*
X103279500Y-35680000I-222500J0D01*
G01*
X103279500Y-35680000D02*
G75*
G02*
X103724500Y-35680000I222500J0D01*
G01*
X103724500Y-36950000D02*
G75*
G02*
X103279500Y-36950000I-222500J0D01*
G01*
X103279500Y-36950000D02*
G75*
G02*
X103724500Y-36950000I222500J0D01*
G01*
X103724500Y-38220000D02*
G75*
G02*
X103279500Y-38220000I-222500J0D01*
G01*
X103279500Y-38220000D02*
G75*
G02*
X103724500Y-38220000I222500J0D01*
G01*
X103724500Y-39490000D02*
G75*
G02*
X103279500Y-39490000I-222500J0D01*
G01*
X103279500Y-39490000D02*
G75*
G02*
X103724500Y-39490000I222500J0D01*
G01*
X103724500Y-40760000D02*
G75*
G02*
X103279500Y-40760000I-222500J0D01*
G01*
X103279500Y-40760000D02*
G75*
G02*
X103724500Y-40760000I222500J0D01*
G01*
X103724500Y-42030000D02*
G75*
G02*
X103279500Y-42030000I-222500J0D01*
G01*
X103279500Y-42030000D02*
G75*
G02*
X103724500Y-42030000I222500J0D01*
G01*
X104994500Y-33140000D02*
G75*
G02*
X104549500Y-33140000I-222500J0D01*
G01*
X104549500Y-33140000D02*
G75*
G02*
X104994500Y-33140000I222500J0D01*
G01*
X104994500Y-34410000D02*
G75*
G02*
X104549500Y-34410000I-222500J0D01*
G01*
X104549500Y-34410000D02*
G75*
G02*
X104994500Y-34410000I222500J0D01*
G01*
X104994500Y-35680000D02*
G75*
G02*
X104549500Y-35680000I-222500J0D01*
G01*
X104549500Y-35680000D02*
G75*
G02*
X104994500Y-35680000I222500J0D01*
G01*
X104994500Y-36950000D02*
G75*
G02*
X104549500Y-36950000I-222500J0D01*
G01*
X104549500Y-36950000D02*
G75*
G02*
X104994500Y-36950000I222500J0D01*
G01*
X104994500Y-38220000D02*
G75*
G02*
X104549500Y-38220000I-222500J0D01*
G01*
X104549500Y-38220000D02*
G75*
G02*
X104994500Y-38220000I222500J0D01*
G01*
X104994500Y-39490000D02*
G75*
G02*
X104549500Y-39490000I-222500J0D01*
G01*
X104549500Y-39490000D02*
G75*
G02*
X104994500Y-39490000I222500J0D01*
G01*
X104994500Y-40760000D02*
G75*
G02*
X104549500Y-40760000I-222500J0D01*
G01*
X104549500Y-40760000D02*
G75*
G02*
X104994500Y-40760000I222500J0D01*
G01*
X104994500Y-42030000D02*
G75*
G02*
X104549500Y-42030000I-222500J0D01*
G01*
X104549500Y-42030000D02*
G75*
G02*
X104994500Y-42030000I222500J0D01*
G01*
X106264500Y-33140000D02*
G75*
G02*
X105819500Y-33140000I-222500J0D01*
G01*
X105819500Y-33140000D02*
G75*
G02*
X106264500Y-33140000I222500J0D01*
G01*
X106264500Y-34410000D02*
G75*
G02*
X105819500Y-34410000I-222500J0D01*
G01*
X105819500Y-34410000D02*
G75*
G02*
X106264500Y-34410000I222500J0D01*
G01*
X106264500Y-35680000D02*
G75*
G02*
X105819500Y-35680000I-222500J0D01*
G01*
X105819500Y-35680000D02*
G75*
G02*
X106264500Y-35680000I222500J0D01*
G01*
X106264500Y-36950000D02*
G75*
G02*
X105819500Y-36950000I-222500J0D01*
G01*
X105819500Y-36950000D02*
G75*
G02*
X106264500Y-36950000I222500J0D01*
G01*
X106264500Y-38220000D02*
G75*
G02*
X105819500Y-38220000I-222500J0D01*
G01*
X105819500Y-38220000D02*
G75*
G02*
X106264500Y-38220000I222500J0D01*
G01*
X106264500Y-39490000D02*
G75*
G02*
X105819500Y-39490000I-222500J0D01*
G01*
X105819500Y-39490000D02*
G75*
G02*
X106264500Y-39490000I222500J0D01*
G01*
X106264500Y-40760000D02*
G75*
G02*
X105819500Y-40760000I-222500J0D01*
G01*
X105819500Y-40760000D02*
G75*
G02*
X106264500Y-40760000I222500J0D01*
G01*
X106264500Y-42030000D02*
G75*
G02*
X105819500Y-42030000I-222500J0D01*
G01*
X105819500Y-42030000D02*
G75*
G02*
X106264500Y-42030000I222500J0D01*
G01*
X107534500Y-33140000D02*
G75*
G02*
X107089500Y-33140000I-222500J0D01*
G01*
X107089500Y-33140000D02*
G75*
G02*
X107534500Y-33140000I222500J0D01*
G01*
X107534500Y-34410000D02*
G75*
G02*
X107089500Y-34410000I-222500J0D01*
G01*
X107089500Y-34410000D02*
G75*
G02*
X107534500Y-34410000I222500J0D01*
G01*
X107534500Y-35680000D02*
G75*
G02*
X107089500Y-35680000I-222500J0D01*
G01*
X107089500Y-35680000D02*
G75*
G02*
X107534500Y-35680000I222500J0D01*
G01*
X107534500Y-36950000D02*
G75*
G02*
X107089500Y-36950000I-222500J0D01*
G01*
X107089500Y-36950000D02*
G75*
G02*
X107534500Y-36950000I222500J0D01*
G01*
X107534500Y-38220000D02*
G75*
G02*
X107089500Y-38220000I-222500J0D01*
G01*
X107089500Y-38220000D02*
G75*
G02*
X107534500Y-38220000I222500J0D01*
G01*
X107534500Y-39490000D02*
G75*
G02*
X107089500Y-39490000I-222500J0D01*
G01*
X107089500Y-39490000D02*
G75*
G02*
X107534500Y-39490000I222500J0D01*
G01*
X107534500Y-40760000D02*
G75*
G02*
X107089500Y-40760000I-222500J0D01*
G01*
X107089500Y-40760000D02*
G75*
G02*
X107534500Y-40760000I222500J0D01*
G01*
X107534500Y-42030000D02*
G75*
G02*
X107089500Y-42030000I-222500J0D01*
G01*
X107089500Y-42030000D02*
G75*
G02*
X107534500Y-42030000I222500J0D01*
G01*
X108804500Y-33140000D02*
G75*
G02*
X108359500Y-33140000I-222500J0D01*
G01*
X108359500Y-33140000D02*
G75*
G02*
X108804500Y-33140000I222500J0D01*
G01*
X108804500Y-34410000D02*
G75*
G02*
X108359500Y-34410000I-222500J0D01*
G01*
X108359500Y-34410000D02*
G75*
G02*
X108804500Y-34410000I222500J0D01*
G01*
X108804500Y-35680000D02*
G75*
G02*
X108359500Y-35680000I-222500J0D01*
G01*
X108359500Y-35680000D02*
G75*
G02*
X108804500Y-35680000I222500J0D01*
G01*
X108804500Y-36950000D02*
G75*
G02*
X108359500Y-36950000I-222500J0D01*
G01*
X108359500Y-36950000D02*
G75*
G02*
X108804500Y-36950000I222500J0D01*
G01*
X108804500Y-38220000D02*
G75*
G02*
X108359500Y-38220000I-222500J0D01*
G01*
X108359500Y-38220000D02*
G75*
G02*
X108804500Y-38220000I222500J0D01*
G01*
X108804500Y-39490000D02*
G75*
G02*
X108359500Y-39490000I-222500J0D01*
G01*
X108359500Y-39490000D02*
G75*
G02*
X108804500Y-39490000I222500J0D01*
G01*
X108804500Y-40760000D02*
G75*
G02*
X108359500Y-40760000I-222500J0D01*
G01*
X108359500Y-40760000D02*
G75*
G02*
X108804500Y-40760000I222500J0D01*
G01*
X108804500Y-42030000D02*
G75*
G02*
X108359500Y-42030000I-222500J0D01*
G01*
X108359500Y-42030000D02*
G75*
G02*
X108804500Y-42030000I222500J0D01*
G01*
X110074500Y-33140000D02*
G75*
G02*
X109629500Y-33140000I-222500J0D01*
G01*
X109629500Y-33140000D02*
G75*
G02*
X110074500Y-33140000I222500J0D01*
G01*
X110074500Y-34410000D02*
G75*
G02*
X109629500Y-34410000I-222500J0D01*
G01*
X109629500Y-34410000D02*
G75*
G02*
X110074500Y-34410000I222500J0D01*
G01*
X110074500Y-35680000D02*
G75*
G02*
X109629500Y-35680000I-222500J0D01*
G01*
X109629500Y-35680000D02*
G75*
G02*
X110074500Y-35680000I222500J0D01*
G01*
X110074500Y-36950000D02*
G75*
G02*
X109629500Y-36950000I-222500J0D01*
G01*
X109629500Y-36950000D02*
G75*
G02*
X110074500Y-36950000I222500J0D01*
G01*
X110074500Y-38220000D02*
G75*
G02*
X109629500Y-38220000I-222500J0D01*
G01*
X109629500Y-38220000D02*
G75*
G02*
X110074500Y-38220000I222500J0D01*
G01*
X110074500Y-39490000D02*
G75*
G02*
X109629500Y-39490000I-222500J0D01*
G01*
X109629500Y-39490000D02*
G75*
G02*
X110074500Y-39490000I222500J0D01*
G01*
X110074500Y-40760000D02*
G75*
G02*
X109629500Y-40760000I-222500J0D01*
G01*
X109629500Y-40760000D02*
G75*
G02*
X110074500Y-40760000I222500J0D01*
G01*
X110074500Y-42030000D02*
G75*
G02*
X109629500Y-42030000I-222500J0D01*
G01*
X109629500Y-42030000D02*
G75*
G02*
X110074500Y-42030000I222500J0D01*
G01*
X111344500Y-33140000D02*
G75*
G02*
X110899500Y-33140000I-222500J0D01*
G01*
X110899500Y-33140000D02*
G75*
G02*
X111344500Y-33140000I222500J0D01*
G01*
X111344500Y-34410000D02*
G75*
G02*
X110899500Y-34410000I-222500J0D01*
G01*
X110899500Y-34410000D02*
G75*
G02*
X111344500Y-34410000I222500J0D01*
G01*
X111344500Y-35680000D02*
G75*
G02*
X110899500Y-35680000I-222500J0D01*
G01*
X110899500Y-35680000D02*
G75*
G02*
X111344500Y-35680000I222500J0D01*
G01*
X111344500Y-36950000D02*
G75*
G02*
X110899500Y-36950000I-222500J0D01*
G01*
X110899500Y-36950000D02*
G75*
G02*
X111344500Y-36950000I222500J0D01*
G01*
X111344500Y-38220000D02*
G75*
G02*
X110899500Y-38220000I-222500J0D01*
G01*
X110899500Y-38220000D02*
G75*
G02*
X111344500Y-38220000I222500J0D01*
G01*
X111344500Y-39490000D02*
G75*
G02*
X110899500Y-39490000I-222500J0D01*
G01*
X110899500Y-39490000D02*
G75*
G02*
X111344500Y-39490000I222500J0D01*
G01*
X111344500Y-40760000D02*
G75*
G02*
X110899500Y-40760000I-222500J0D01*
G01*
X110899500Y-40760000D02*
G75*
G02*
X111344500Y-40760000I222500J0D01*
G01*
X111344500Y-42030000D02*
G75*
G02*
X110899500Y-42030000I-222500J0D01*
G01*
X110899500Y-42030000D02*
G75*
G02*
X111344500Y-42030000I222500J0D01*
G01*
X112614500Y-33140000D02*
G75*
G02*
X112169500Y-33140000I-222500J0D01*
G01*
X112169500Y-33140000D02*
G75*
G02*
X112614500Y-33140000I222500J0D01*
G01*
X112614500Y-34410000D02*
G75*
G02*
X112169500Y-34410000I-222500J0D01*
G01*
X112169500Y-34410000D02*
G75*
G02*
X112614500Y-34410000I222500J0D01*
G01*
X112614500Y-35680000D02*
G75*
G02*
X112169500Y-35680000I-222500J0D01*
G01*
X112169500Y-35680000D02*
G75*
G02*
X112614500Y-35680000I222500J0D01*
G01*
X112614500Y-36950000D02*
G75*
G02*
X112169500Y-36950000I-222500J0D01*
G01*
X112169500Y-36950000D02*
G75*
G02*
X112614500Y-36950000I222500J0D01*
G01*
X112614500Y-38220000D02*
G75*
G02*
X112169500Y-38220000I-222500J0D01*
G01*
X112169500Y-38220000D02*
G75*
G02*
X112614500Y-38220000I222500J0D01*
G01*
X112614500Y-39490000D02*
G75*
G02*
X112169500Y-39490000I-222500J0D01*
G01*
X112169500Y-39490000D02*
G75*
G02*
X112614500Y-39490000I222500J0D01*
G01*
X112614500Y-40760000D02*
G75*
G02*
X112169500Y-40760000I-222500J0D01*
G01*
X112169500Y-40760000D02*
G75*
G02*
X112614500Y-40760000I222500J0D01*
G01*
X112614500Y-42030000D02*
G75*
G02*
X112169500Y-42030000I-222500J0D01*
G01*
X112169500Y-42030000D02*
G75*
G02*
X112614500Y-42030000I222500J0D01*
G01*
X113884500Y-33140000D02*
G75*
G02*
X113439500Y-33140000I-222500J0D01*
G01*
X113439500Y-33140000D02*
G75*
G02*
X113884500Y-33140000I222500J0D01*
G01*
X113884500Y-34410000D02*
G75*
G02*
X113439500Y-34410000I-222500J0D01*
G01*
X113439500Y-34410000D02*
G75*
G02*
X113884500Y-34410000I222500J0D01*
G01*
X113884500Y-35680000D02*
G75*
G02*
X113439500Y-35680000I-222500J0D01*
G01*
X113439500Y-35680000D02*
G75*
G02*
X113884500Y-35680000I222500J0D01*
G01*
X113884500Y-36950000D02*
G75*
G02*
X113439500Y-36950000I-222500J0D01*
G01*
X113439500Y-36950000D02*
G75*
G02*
X113884500Y-36950000I222500J0D01*
G01*
X113884500Y-38220000D02*
G75*
G02*
X113439500Y-38220000I-222500J0D01*
G01*
X113439500Y-38220000D02*
G75*
G02*
X113884500Y-38220000I222500J0D01*
G01*
X113884500Y-39490000D02*
G75*
G02*
X113439500Y-39490000I-222500J0D01*
G01*
X113439500Y-39490000D02*
G75*
G02*
X113884500Y-39490000I222500J0D01*
G01*
X113884500Y-40760000D02*
G75*
G02*
X113439500Y-40760000I-222500J0D01*
G01*
X113439500Y-40760000D02*
G75*
G02*
X113884500Y-40760000I222500J0D01*
G01*
X113884500Y-42030000D02*
G75*
G02*
X113439500Y-42030000I-222500J0D01*
G01*
X113439500Y-42030000D02*
G75*
G02*
X113884500Y-42030000I222500J0D01*
G01*
X115154500Y-33140000D02*
G75*
G02*
X114709500Y-33140000I-222500J0D01*
G01*
X114709500Y-33140000D02*
G75*
G02*
X115154500Y-33140000I222500J0D01*
G01*
X115154500Y-34410000D02*
G75*
G02*
X114709500Y-34410000I-222500J0D01*
G01*
X114709500Y-34410000D02*
G75*
G02*
X115154500Y-34410000I222500J0D01*
G01*
X115154500Y-35680000D02*
G75*
G02*
X114709500Y-35680000I-222500J0D01*
G01*
X114709500Y-35680000D02*
G75*
G02*
X115154500Y-35680000I222500J0D01*
G01*
X115154500Y-36950000D02*
G75*
G02*
X114709500Y-36950000I-222500J0D01*
G01*
X114709500Y-36950000D02*
G75*
G02*
X115154500Y-36950000I222500J0D01*
G01*
X115154500Y-38220000D02*
G75*
G02*
X114709500Y-38220000I-222500J0D01*
G01*
X114709500Y-38220000D02*
G75*
G02*
X115154500Y-38220000I222500J0D01*
G01*
X115154500Y-39490000D02*
G75*
G02*
X114709500Y-39490000I-222500J0D01*
G01*
X114709500Y-39490000D02*
G75*
G02*
X115154500Y-39490000I222500J0D01*
G01*
X115154500Y-40760000D02*
G75*
G02*
X114709500Y-40760000I-222500J0D01*
G01*
X114709500Y-40760000D02*
G75*
G02*
X115154500Y-40760000I222500J0D01*
G01*
X115154500Y-42030000D02*
G75*
G02*
X114709500Y-42030000I-222500J0D01*
G01*
X114709500Y-42030000D02*
G75*
G02*
X115154500Y-42030000I222500J0D01*
G01*
X116424500Y-33140000D02*
G75*
G02*
X115979500Y-33140000I-222500J0D01*
G01*
X115979500Y-33140000D02*
G75*
G02*
X116424500Y-33140000I222500J0D01*
G01*
X116424500Y-34410000D02*
G75*
G02*
X115979500Y-34410000I-222500J0D01*
G01*
X115979500Y-34410000D02*
G75*
G02*
X116424500Y-34410000I222500J0D01*
G01*
X116424500Y-35680000D02*
G75*
G02*
X115979500Y-35680000I-222500J0D01*
G01*
X115979500Y-35680000D02*
G75*
G02*
X116424500Y-35680000I222500J0D01*
G01*
X116424500Y-36950000D02*
G75*
G02*
X115979500Y-36950000I-222500J0D01*
G01*
X115979500Y-36950000D02*
G75*
G02*
X116424500Y-36950000I222500J0D01*
G01*
X116424500Y-38220000D02*
G75*
G02*
X115979500Y-38220000I-222500J0D01*
G01*
X115979500Y-38220000D02*
G75*
G02*
X116424500Y-38220000I222500J0D01*
G01*
X116424500Y-39490000D02*
G75*
G02*
X115979500Y-39490000I-222500J0D01*
G01*
X115979500Y-39490000D02*
G75*
G02*
X116424500Y-39490000I222500J0D01*
G01*
X116424500Y-40760000D02*
G75*
G02*
X115979500Y-40760000I-222500J0D01*
G01*
X115979500Y-40760000D02*
G75*
G02*
X116424500Y-40760000I222500J0D01*
G01*
X116424500Y-42030000D02*
G75*
G02*
X115979500Y-42030000I-222500J0D01*
G01*
X115979500Y-42030000D02*
G75*
G02*
X116424500Y-42030000I222500J0D01*
G01*
X117694500Y-33140000D02*
G75*
G02*
X117249500Y-33140000I-222500J0D01*
G01*
X117249500Y-33140000D02*
G75*
G02*
X117694500Y-33140000I222500J0D01*
G01*
X117694500Y-34410000D02*
G75*
G02*
X117249500Y-34410000I-222500J0D01*
G01*
X117249500Y-34410000D02*
G75*
G02*
X117694500Y-34410000I222500J0D01*
G01*
X117694500Y-35680000D02*
G75*
G02*
X117249500Y-35680000I-222500J0D01*
G01*
X117249500Y-35680000D02*
G75*
G02*
X117694500Y-35680000I222500J0D01*
G01*
X117694500Y-36950000D02*
G75*
G02*
X117249500Y-36950000I-222500J0D01*
G01*
X117249500Y-36950000D02*
G75*
G02*
X117694500Y-36950000I222500J0D01*
G01*
X117694500Y-38220000D02*
G75*
G02*
X117249500Y-38220000I-222500J0D01*
G01*
X117249500Y-38220000D02*
G75*
G02*
X117694500Y-38220000I222500J0D01*
G01*
X117694500Y-39490000D02*
G75*
G02*
X117249500Y-39490000I-222500J0D01*
G01*
X117249500Y-39490000D02*
G75*
G02*
X117694500Y-39490000I222500J0D01*
G01*
X117694500Y-40760000D02*
G75*
G02*
X117249500Y-40760000I-222500J0D01*
G01*
X117249500Y-40760000D02*
G75*
G02*
X117694500Y-40760000I222500J0D01*
G01*
X117694500Y-42030000D02*
G75*
G02*
X117249500Y-42030000I-222500J0D01*
G01*
X117249500Y-42030000D02*
G75*
G02*
X117694500Y-42030000I222500J0D01*
G01*
X118964500Y-33140000D02*
G75*
G02*
X118519500Y-33140000I-222500J0D01*
G01*
X118519500Y-33140000D02*
G75*
G02*
X118964500Y-33140000I222500J0D01*
G01*
X118964500Y-34410000D02*
G75*
G02*
X118519500Y-34410000I-222500J0D01*
G01*
X118519500Y-34410000D02*
G75*
G02*
X118964500Y-34410000I222500J0D01*
G01*
X118964500Y-35680000D02*
G75*
G02*
X118519500Y-35680000I-222500J0D01*
G01*
X118519500Y-35680000D02*
G75*
G02*
X118964500Y-35680000I222500J0D01*
G01*
X118964500Y-36950000D02*
G75*
G02*
X118519500Y-36950000I-222500J0D01*
G01*
X118519500Y-36950000D02*
G75*
G02*
X118964500Y-36950000I222500J0D01*
G01*
X118964500Y-38220000D02*
G75*
G02*
X118519500Y-38220000I-222500J0D01*
G01*
X118519500Y-38220000D02*
G75*
G02*
X118964500Y-38220000I222500J0D01*
G01*
X118964500Y-39490000D02*
G75*
G02*
X118519500Y-39490000I-222500J0D01*
G01*
X118519500Y-39490000D02*
G75*
G02*
X118964500Y-39490000I222500J0D01*
G01*
X118964500Y-40760000D02*
G75*
G02*
X118519500Y-40760000I-222500J0D01*
G01*
X118519500Y-40760000D02*
G75*
G02*
X118964500Y-40760000I222500J0D01*
G01*
X118964500Y-42030000D02*
G75*
G02*
X118519500Y-42030000I-222500J0D01*
G01*
X118519500Y-42030000D02*
G75*
G02*
X118964500Y-42030000I222500J0D01*
G01*
X120234500Y-33140000D02*
G75*
G02*
X119789500Y-33140000I-222500J0D01*
G01*
X119789500Y-33140000D02*
G75*
G02*
X120234500Y-33140000I222500J0D01*
G01*
X120234500Y-34410000D02*
G75*
G02*
X119789500Y-34410000I-222500J0D01*
G01*
X119789500Y-34410000D02*
G75*
G02*
X120234500Y-34410000I222500J0D01*
G01*
X120234500Y-35680000D02*
G75*
G02*
X119789500Y-35680000I-222500J0D01*
G01*
X119789500Y-35680000D02*
G75*
G02*
X120234500Y-35680000I222500J0D01*
G01*
X120234500Y-36950000D02*
G75*
G02*
X119789500Y-36950000I-222500J0D01*
G01*
X119789500Y-36950000D02*
G75*
G02*
X120234500Y-36950000I222500J0D01*
G01*
X120234500Y-38220000D02*
G75*
G02*
X119789500Y-38220000I-222500J0D01*
G01*
X119789500Y-38220000D02*
G75*
G02*
X120234500Y-38220000I222500J0D01*
G01*
X120234500Y-39490000D02*
G75*
G02*
X119789500Y-39490000I-222500J0D01*
G01*
X119789500Y-39490000D02*
G75*
G02*
X120234500Y-39490000I222500J0D01*
G01*
X120234500Y-40760000D02*
G75*
G02*
X119789500Y-40760000I-222500J0D01*
G01*
X119789500Y-40760000D02*
G75*
G02*
X120234500Y-40760000I222500J0D01*
G01*
X120234500Y-42030000D02*
G75*
G02*
X119789500Y-42030000I-222500J0D01*
G01*
X119789500Y-42030000D02*
G75*
G02*
X120234500Y-42030000I222500J0D01*
G01*
%TD*%
D11*
%TO.C,J23*%
X121148000Y-126124000D03*
D12*
X118773000Y-123749000D03*
X123523000Y-123749000D03*
X123523000Y-128499000D03*
X118773000Y-128499000D03*
%TD*%
D11*
%TO.C,J22*%
X104877000Y-126132000D03*
D12*
X102502000Y-123757000D03*
X107252000Y-123757000D03*
X107252000Y-128507000D03*
X102502000Y-128507000D03*
%TD*%
D11*
%TO.C,J21*%
X121177000Y-109816000D03*
D12*
X118802000Y-107441000D03*
X123552000Y-107441000D03*
X123552000Y-112191000D03*
X118802000Y-112191000D03*
%TD*%
D11*
%TO.C,J20*%
X104906000Y-109824000D03*
D12*
X102531000Y-107449000D03*
X107281000Y-107449000D03*
X107281000Y-112199000D03*
X102531000Y-112199000D03*
%TD*%
D11*
%TO.C,J19*%
X121148000Y-93508000D03*
D12*
X118773000Y-91133000D03*
X123523000Y-91133000D03*
X123523000Y-95883000D03*
X118773000Y-95883000D03*
%TD*%
D11*
%TO.C,J18*%
X104877000Y-93516000D03*
D12*
X102502000Y-91141000D03*
X107252000Y-91141000D03*
X107252000Y-95891000D03*
X102502000Y-95891000D03*
%TD*%
D11*
%TO.C,J17*%
X121119000Y-77224000D03*
D12*
X118744000Y-74849000D03*
X123494000Y-74849000D03*
X123494000Y-79599000D03*
X118744000Y-79599000D03*
%TD*%
D11*
%TO.C,J16*%
X104848000Y-77232000D03*
D12*
X102473000Y-74857000D03*
X107223000Y-74857000D03*
X107223000Y-79607000D03*
X102473000Y-79607000D03*
%TD*%
D11*
%TO.C,J15*%
X121148000Y-60916000D03*
D12*
X118773000Y-58541000D03*
X123523000Y-58541000D03*
X123523000Y-63291000D03*
X118773000Y-63291000D03*
%TD*%
D11*
%TO.C,J14*%
X104877000Y-60924000D03*
D12*
X102502000Y-58549000D03*
X107252000Y-58549000D03*
X107252000Y-63299000D03*
X102502000Y-63299000D03*
%TD*%
%TO.C,J5*%
X86323000Y-58541000D03*
X91073000Y-58541000D03*
X86323000Y-63291000D03*
X91073000Y-63291000D03*
D11*
X88698000Y-60916000D03*
%TD*%
D12*
%TO.C,J13*%
X86323000Y-123749000D03*
X91073000Y-123749000D03*
X86323000Y-128499000D03*
X91073000Y-128499000D03*
D11*
X88698000Y-126124000D03*
%TD*%
%TO.C,J12*%
X72477000Y-126124000D03*
D12*
X74852000Y-128499000D03*
X70102000Y-128499000D03*
X74852000Y-123749000D03*
X70102000Y-123749000D03*
%TD*%
%TO.C,J11*%
X86352000Y-107441000D03*
X91102000Y-107441000D03*
X86352000Y-112191000D03*
X91102000Y-112191000D03*
D11*
X88727000Y-109816000D03*
%TD*%
%TO.C,J10*%
X72506000Y-109816000D03*
D12*
X74881000Y-112191000D03*
X70131000Y-112191000D03*
X74881000Y-107441000D03*
X70131000Y-107441000D03*
%TD*%
%TO.C,J9*%
X86323000Y-91133000D03*
X91073000Y-91133000D03*
X86323000Y-95883000D03*
X91073000Y-95883000D03*
D11*
X88698000Y-93508000D03*
%TD*%
%TO.C,J8*%
X72477000Y-93508000D03*
D12*
X74852000Y-95883000D03*
X70102000Y-95883000D03*
X74852000Y-91133000D03*
X70102000Y-91133000D03*
%TD*%
%TO.C,J7*%
X86294000Y-74849000D03*
X91044000Y-74849000D03*
X86294000Y-79599000D03*
X91044000Y-79599000D03*
D11*
X88669000Y-77224000D03*
%TD*%
%TO.C,J6*%
X72448000Y-77224000D03*
D12*
X74823000Y-79599000D03*
X70073000Y-79599000D03*
X74823000Y-74849000D03*
X70073000Y-74849000D03*
%TD*%
D11*
%TO.C,J4*%
X72477000Y-60916000D03*
D12*
X74852000Y-63291000D03*
X70102000Y-63291000D03*
X74852000Y-58541000D03*
X70102000Y-58541000D03*
%TD*%
D13*
%TO.C,J2*%
X144752000Y-63440000D03*
X149702000Y-63440000D03*
X144752000Y-65980000D03*
X149702000Y-65980000D03*
X144752000Y-68520000D03*
X149702000Y-68520000D03*
X144752000Y-71060000D03*
X149702000Y-71060000D03*
X144752000Y-73600000D03*
X149702000Y-73600000D03*
X144752000Y-76140000D03*
X149702000Y-76140000D03*
X144752000Y-78680000D03*
X149702000Y-78680000D03*
X144752000Y-81220000D03*
X149702000Y-81220000D03*
X144752000Y-83760000D03*
X149702000Y-83760000D03*
X144752000Y-86300000D03*
X149702000Y-86300000D03*
%TD*%
M02*
